{
.appVersion = "3336";
.formatVersion = 3;
axes = (
{
name = Weight;
tag = wght;
}
);
classes = (
{
automatic = 1;

glyphs = (
{
glyphname = A;
kernLeft = A;
kernRight = A;
lastChange = "2024-12-12 09:14:51 +0000";
layers = (
{
anchors = (
{
name = bottom;
pos = (199.479,-4.413);
},
{
name = ogonek;
pos = (368.067,4.413);
},
{
name = top;
pos = (199.479,664.638);
}
);
background = {
hints = (
{
horizontal = 1;
place = (197.715,22.066);
type = Stem;
},
{
horizontal = 1;
place = (271.857,21.184);
type = Stem;
},
{
place = (31.396,348.507);
type = Stem;
}
);
shapes = (
{
closed = 1;
nodes = (
(28.245,15.888,ls),
(26.48,9.709,o),
(30.011,4.413,o),
(36.189,2.648,cs),
(42.367,0.882,o),
(47.664,4.413,o),
(49.428,10.592,cs),
(97.974,197.715,l),
(306.281,197.715,l),
(354.827,10.592,ls),
(356.593,4.413,o),
(361.888,0.882,o),
(368.067,2.648,cs),
(374.246,4.413,o),
(377.776,9.709,o),
(376.01,15.888,cs),
(212.719,651.398,ls),
(211.837,656.695,o),
(207.424,660.225,o),
(202.128,660.225,cs),
(196.832,660.225,o),
(192.418,656.695,o),
(191.536,651.398,cs)
);
},
{
closed = 1;
nodes = (
(282.449,293.041,l),
(121.806,293.041,l),
(202.128,604.618,l)
);
},
{
closed = 1;
nodes = (
(103.271,219.781,l),
(116.51,271.857,l),
(287.745,271.857,l),
(300.985,219.781,l)
);
}
);
};
layerId = m01;
shapes = (
{
closed = 1;
nodes = (
(27.362,14.122,ls),
(26.48,11.474,o),
(26.48,8.827,o),
(26.48,7.944,cs),
(26.48,3.531,o),
(30.011,0,o),
(34.424,0,cs),
(38.837,0,o),
(42.367,2.648,o),
(43.25,7.061,cs),
(208.306,653.164,l),
(208.306,655.812,l),
(208.306,660.225,o),
(203.893,663.756,o),
(199.921,663.756,cs),
(195.066,663.756,o),
(191.536,661.108,o),
(190.653,656.695,cs)
);
},
{
closed = 1;
nodes = (
(310.694,198.597,ls),
(315.99,198.597,o),
(319.521,202.128,o),
(319.521,207.424,cs),
(319.521,212.719,o),
(315.99,216.25,o),
(310.694,216.25,cs),
(88.265,216.25,ls),
(82.97,216.25,o),
(79.439,212.719,o),
(79.439,207.424,cs),
(79.439,202.128,o),
(82.97,198.597,o),
(88.265,198.597,cs)
);
},
{
closed = 1;
nodes = (
(293.041,274.505,ls),
(298.337,274.505,o),
(301.868,278.036,o),
(301.868,283.332,cs),
(301.868,288.628,o),
(298.337,292.158,o),
(293.041,292.158,cs),
(106.801,292.158,ls),
(101.505,292.158,o),
(98.857,288.628,o),
(98.857,283.332,cs),
(98.857,278.036,o),
(101.505,274.505,o),
(106.801,274.505,cs)
);
},
{
closed = 1;
nodes = (
(209.189,656.695,ls),
(208.306,661.108,o),
(204.776,663.756,o),
(199.921,663.756,cs),
(195.949,663.756,o),
(191.536,660.225,o),
(191.536,654.929,c),
(191.536,653.164,l),
(356.593,7.061,ls),
(357.475,2.648,o),
(361.888,0,o),
(366.301,0,cs),
(369.832,0,o),
(373.362,4.413,o),
(373.362,8.827,cs),
(373.362,9.709,o),
(373.362,9.709,o),
(373.362,10.592,cs)
);
}
);
width = 400.09823;
},
{
anchors = (
{
name = bottom;
pos = (255.087,0);
},
{
name = ogonek;
pos = (427.205,43.25);
},
{
name = top;
pos = (255.087,659.343);
}
);
layerId = m002;
shapes = (
{
closed = 1;
nodes = (
(29.127,67.965,ls),
(27.466,62.635,o),
(26.48,57.373,o),
(26.48,52.077,cs),
(26.48,22.949,o),
(50.311,-0.882,o),
(79.439,-0.882,cs),
(103.271,-0.882,o),
(123.075,14.88,o),
(129.75,36.189,cs),
(304.516,594.026,l),
(305.398,609.914,l),
(305.398,639.042,o),
(283.332,662.873,o),
(254.204,662.873,cs),
(230.372,662.873,o),
(210.49,646.859,o),
(203.893,625.802,cs)
);
},
{
closed = 1;
nodes = (
(373.362,91.796,ls),
(402.49,91.796,o),
(426.322,115.627,o),
(426.322,144.756,cs),
(426.322,173.883,o),
(402.49,197.715,o),
(373.362,197.715,cs),
(135.929,197.715,ls),
(106.801,197.715,o),
(82.97,173.883,o),
(82.97,144.756,cs),
(82.97,115.627,o),
(106.801,91.796,o),
(135.929,91.796,cs)
);
},
{
closed = 1;
nodes = (
(353.944,235.669,ls),
(383.072,235.669,o),
(406.903,259.501,o),
(406.903,288.628,cs),
(406.903,317.755,o),
(383.072,341.587,o),
(353.944,341.587,cs),
(156.23,341.587,ls),
(127.102,341.587,o),
(103.271,317.755,o),
(103.271,288.628,cs),
(103.271,259.501,o),
(127.102,235.669,o),
(156.23,235.669,cs)
);
},
{
closed = 1;
nodes = (
(304.516,625.802,ls),
(297.455,646.985,o),
(278.036,662.873,o),
(254.204,662.873,cs),
(225.077,662.873,o),
(203.01,639.042,o),
(203.01,609.914,c),
(203.893,594.026,l),
(379.541,36.189,ls),
(386.602,15.005,o),
(406.021,-0.882,o),
(429.853,-0.882,cs),
(458.98,-0.882,o),
(482.812,22.949,o),
(482.812,52.077,cs),
(482.812,57.373,o),
(481.929,62.668,o),
(480.164,67.965,cs)
);
}
);
width = 509.29136;
}
);
note = A;
unicode = 65;
},
{
glyphname = AE;
kernLeft = A;
kernRight = E;
lastChange = "2024-12-12 09:14:51 +0000";
layers = (
{
anchors = (
{
name = top;
pos = (449.271,659.343);
}
);
layerId = m01;
shapes = (
{
closed = 1;
nodes = (
(27.362,13.24,ls),
(26.48,11.474,o),
(26.48,10.592,o),
(26.48,8.827,cs),
(26.48,4.413,o),
(30.011,0,o),
(35.306,0,cs),
(38.837,0,o),
(41.485,1.765,o),
(43.25,4.413,cs),
(380.424,646.103,l),
(392.787,659.343,l),
(372.48,659.343,l),
(368.95,659.343,o),
(366.301,657.577,o),
(364.536,654.929,cs)
);
},
{
closed = 1;
nodes = (
(367.184,200.363,ls),
(372.48,200.363,o),
(376.01,203.893,o),
(376.01,209.189,cs),
(376.01,214.485,o),
(372.48,218.016,o),
(367.184,218.016,cs),
(144.756,218.016,ls),
(140.342,218.016,o),
(135.929,214.485,o),
(135.929,209.189,cs),
(135.929,203.893,o),
(140.342,200.363,o),
(144.756,200.363,cs)
);
},
{
closed = 1;
nodes = (
(368.067,274.505,ls),
(373.362,274.505,o),
(376.893,278.036,o),
(376.893,283.332,cs),
(376.893,288.628,o),
(373.362,292.158,o),
(368.067,292.158,cs),
(183.592,292.158,ls),
(179.179,292.158,o),
(174.765,288.628,o),
(174.765,283.332,cs),
(174.765,278.036,o),
(179.179,274.505,o),
(183.592,274.505,cs)
);
},
{
alignment = -1;
pos = (301.868,0);
ref = E;
}
);
width = 682.29154;
},
{
anchors = (
{
name = top;
pos = (469.572,659.343);
}
);
layerId = m002;
shapes = (
{
closed = 1;
nodes = (
(32.658,78.557,ls),
(28.609,70.864,o),
(26.48,61.786,o),
(26.48,52.959,cs),
(26.48,23.832,o),
(50.311,0,o),
(79.439,0,cs),
(99.74,0,o),
(117.393,10.592,o),
(126.219,27.362,cs),
(417.495,580.786,l),
(466.168,659.343,l),
(370.715,659.343,l),
(350.414,659.343,o),
(332.761,648.751,o),
(323.934,631.98,cs)
);
},
{
closed = 1;
nodes = (
(398.077,90.031,ls),
(427.205,90.031,o),
(451.036,113.863,o),
(451.036,142.99,cs),
(451.036,172.118,o),
(427.205,195.949,o),
(398.077,195.949,cs),
(143.872,195.949,ls),
(114.745,195.949,o),
(90.913,172.118,o),
(90.913,142.99,cs),
(90.913,113.863,o),
(114.745,90.031,o),
(143.872,90.031,cs)
);
},
{
closed = 1;
nodes = (
(398.96,230.372,ls),
(428.087,230.372,o),
(451.919,254.204,o),
(451.919,283.332,cs),
(451.919,312.46,o),
(428.087,336.291,o),
(398.96,336.291,cs),
(248.909,336.291,ls),
(219.781,336.291,o),
(195.949,312.46,o),
(195.949,283.332,cs),
(195.949,254.204,o),
(219.781,230.372,o),
(248.909,230.372,cs)
);
},
{
alignment = -1;
pos = (322.169,0);
ref = E;
}
);
width = 807.62841;
}
);
metricLeft = A;
metricRight = E;
unicode = 198;
},
{
glyphname = B;
kernLeft = H;
kernRight = B;
lastChange = "2024-12-12 09:14:51 +0000";
layers = (
{
anchors = (
{
name = bottom;
pos = (206.541,-4.413);
},
{
name = center;
pos = (206.541,330.113);
},
{
name = top;
pos = (206.541,664.638);
}
);
background = {
hints = (
{
horizontal = 1;
place = (1.765,22.066);
type = Stem;
},
{
horizontal = 1;
place = (337.174,21.184);
type = Stem;
},
{
horizontal = 1;
place = (637.276,22.066);
type = Stem;
},
{
place = (54.725,21.184);
type = Stem;
},
{
place = (255.97,22.949);
type = Stem;
},
{
place = (319.521,22.066);
type = Stem;
},
{
place = (347.766,22.066);
type = Stem;
}
);
shapes = (
{
closed = 1;
nodes = (
(71.495,659.343,ls),
(65.317,659.343,o),
(60.903,654.929,o),
(60.903,648.751,cs),
(60.903,13.24,ls),
(60.903,7.061,o),
(65.317,1.765,o),
(71.495,1.765,cs),
(211.837,1.765,l),
(253.322,6.179,o),
(293.041,23.832,o),
(322.169,52.959,cs),
(352.179,82.087,o),
(370.715,120.924,o),
(375.128,162.409,cs),
(375.128,167.704,o),
(376.01,173.883,o),
(376.01,180.062,cs),
(376.01,221.546,o),
(361.006,263.031,o),
(334.526,294.807,cs),
(314.225,319.521,o),
(278.036,338.939,o),
(244.495,349.531,c),
(264.796,357.475,o),
(284.215,368.067,o),
(297.455,381.307,cs),
(329.23,411.316,o),
(347.766,453.684,o),
(347.766,497.817,cs),
(347.766,541.95,o),
(329.23,584.317,o),
(298.337,614.327,cs),
(268.327,643.455,o),
(226.842,660.225,o),
(185.357,660.225,cs),
(182.71,660.225,o),
(180.944,660.225,o),
(179.179,659.343,c)
);
},
{
closed = 1;
nodes = (
(82.087,358.357,l),
(82.087,637.276,l),
(114.745,637.276,ls),
(147.403,637.276,o),
(188.888,624.919,o),
(222.429,596.674,cs),
(249.791,571.96,o),
(262.148,535.771,o),
(262.148,498.7,cs),
(262.148,465.159,o),
(248.025,422.792,o),
(218.016,396.312,cs),
(189.771,372.48,o),
(145.638,360.123,o),
(114.745,360.123,cs),
(112.98,360.123,o),
(112.097,359.24,o),
(110.332,358.357,c)
);
},
{
closed = 1;
nodes = (
(214.485,366.301,o),
(224.194,372.48,o),
(232.138,380.424,c),
(266.562,408.669,o),
(285.097,455.449,o),
(285.097,498.7,cs),
(285.097,541.067,o),
(270.975,584.317,o),
(236.551,612.562,cs),
(225.959,622.271,o),
(213.602,630.215,o),
(201.245,637.276,c),
(231.256,633.745,o),
(261.265,619.623,o),
(282.449,598.439,cs),
(309.811,572.843,o),
(325.7,535.771,o),
(325.7,497.817,cs),
(325.7,459.862,o),
(308.929,422.792,o),
(282.449,397.194,cs),
(262.148,378.659,o),
(232.138,366.301,o),
(204.776,361.006,c)
);
},
{
closed = 1;
nodes = (
(82.087,23.832,l),
(82.087,337.174,l),
(192.418,337.174,ls),
(229.49,337.174,o),
(292.158,310.694,o),
(317.755,280.684,cs),
(340.704,253.322,o),
(353.944,216.25,o),
(353.944,180.062,cs),
(353.944,174.765,o),
(353.944,169.47,o),
(353.062,164.173,cs),
(349.531,128.867,o),
(332.761,93.561,o),
(307.163,68.847,cs),
(281.567,43.25,o),
(247.143,27.362,o),
(210.955,23.832,c)
);
}
);
};
layerId = m01;
shapes = (
{
closed = 1;
nodes = (
(204.776,0,ls),
(302.75,0,o),
(368.95,78.557,o),
(368.95,173,cs),
(368.95,187.123,ls),
(368.95,283.332,o),
(302.75,361.006,o),
(204.776,361.006,cs),
(70.612,361.006,l),
(70.612,343.353,l),
(190.653,343.353,ls),
(279.801,343.353,o),
(338.939,413.965,o),
(338.939,496.934,cs),
(338.939,505.761,ls),
(338.939,589.613,o),
(279.801,659.343,o),
(190.653,659.343,cs),
(76.791,659.343,ls),
(67.081,659.343,o),
(61.786,654.046,o),
(61.786,644.337,cs),
(61.786,15.005,ls),
(61.786,5.296,o),
(67.081,0,o),
(76.791,0,cs)
);
},
{
closed = 1;
nodes = (
(79.439,17.653,l),
(79.439,641.69,l),
(190.653,641.69,ls),
(270.092,641.69,o),
(321.286,581.669,o),
(321.286,505.761,cs),
(321.286,496.934,ls),
(321.286,421.908,o),
(270.092,361.006,o),
(190.653,361.006,cs),
(70.612,361.006,l),
(70.612,343.353,l),
(204.776,343.353,ls),
(293.924,343.353,o),
(351.296,275.388,o),
(351.296,187.123,cs),
(351.296,173,ls),
(351.296,86.5,o),
(293.924,17.653,o),
(204.776,17.653,cs)
);
},
{
closed = 1;
nodes = (
(208.306,641.69,o),
(259.501,581.669,o),
(259.501,505.761,cs),
(259.501,496.934,ls),
(259.501,421.908,o),
(208.306,361.006,o),
(128.867,361.006,cs),
(123.572,361.006,o),
(120.041,357.475,o),
(120.041,352.179,cs),
(120.041,346.883,o),
(123.572,343.353,o),
(128.867,343.353,cs),
(218.016,343.353,o),
(277.154,413.965,o),
(277.154,496.934,cs),
(277.154,505.761,ls),
(277.154,589.613,o),
(218.016,659.343,o),
(128.867,659.343,cs),
(123.572,659.343,o),
(120.041,655.812,o),
(120.041,650.516,cs),
(120.041,645.22,o),
(123.572,641.69,o),
(128.867,641.69,cs)
);
}
);
width = 413.08207;
},
{
anchors = (
{
name = bottom;
pos = (259.501,0);
},
{
name = center;
pos = (259.501,330.113);
},
{
name = top;
pos = (259.501,659.343);
}
);
layerId = m002;
shapes = (
{
closed = 1;
nodes = (
(257.735,0,ls),
(384.837,0,o),
(475.751,86.5,o),
(475.751,194.184,cs),
(475.751,205.658,ls),
(475.751,314.225,o),
(384.837,400.725,o),
(257.735,400.725,cs),
(114.745,400.725,l),
(114.745,294.807,l),
(242.73,294.807,ls),
(361.006,294.807,o),
(443.975,375.128,o),
(443.975,473.102,cs),
(443.975,481.046,ls),
(443.975,579.904,o),
(360.123,659.343,o),
(242.73,659.343,cs),
(114.745,659.343,ls),
(80.321,659.343,o),
(61.786,640.806,o),
(61.786,606.383,cs),
(61.786,52.959,ls),
(61.786,18.535,o),
(80.321,0,o),
(114.745,0,cs)
);
},
{
closed = 1;
nodes = (
(167.704,105.918,l),
(167.704,553.424,l),
(242.73,553.424,ls),
(310.694,553.424,o),
(338.056,526.945,o),
(338.056,481.046,cs),
(338.056,473.102,ls),
(338.056,427.205,o),
(310.694,400.725,o),
(242.73,400.725,cs),
(114.745,400.725,l),
(114.745,294.807,l),
(257.735,294.807,ls),
(335.409,294.807,o),
(369.832,261.265,o),
(369.832,205.658,cs),
(369.832,194.184,ls),
(369.832,139.459,o),
(335.409,105.918,o),
(257.735,105.918,cs)
);
},
{
closed = 1;
nodes = (
(187.123,553.424,o),
(214.485,526.945,o),
(214.485,481.046,cs),
(214.485,473.102,ls),
(214.485,427.205,o),
(187.123,400.725,o),
(119.158,400.725,cs),
(90.031,400.725,o),
(66.199,376.893,o),
(66.199,347.766,cs),
(66.199,318.638,o),
(90.031,294.807,o),
(119.158,294.807,cs),
(237.434,294.807,o),
(320.403,375.128,o),
(320.403,473.102,cs),
(320.403,481.046,ls),
(320.403,579.904,o),
(236.551,659.343,o),
(119.158,659.343,cs),
(90.031,659.343,o),
(66.199,635.511,o),
(66.199,606.383,cs),
(66.199,577.256,o),
(90.031,553.424,o),
(119.158,553.424,cs)
);
}
);
width = 519.88321;
}
);
note = B;
unicode = 66;
},
{
glyphname = C;
kernLeft = O;
kernRight = C;
lastChange = "2024-12-12 09:14:51 +0000";
layers = (
{
anchors = (
{
name = bottom;
pos = (220.664,-4.413);
},
{
name = top;
pos = (220.664,664.638);
}
);
background = {
hints = (
{
horizontal = 1;
place = (1.765,22.066);
type = Stem;
},
{
horizontal = 1;
place = (637.276,22.949);
type = Stem;
},
{
place = (38.837,22.066);
type = Stem;
},
{
place = (130.633,22.949);
type = Stem;
}
);
shapes = (
{
closed = 1;
nodes = (
(244.495,23.832,ls),
(212.719,23.832,o),
(191.536,30.893,o),
(167.704,45.015,c),
(168.587,45.015,l),
(168.587,616.092,l),
(191.536,631.098,o),
(213.602,637.276,o),
(245.378,637.276,cs),
(273.623,637.276,o),
(300.102,631.98,o),
(327.464,615.21,cs),
(338.939,607.266,o),
(349.531,598.439,o),
(358.357,588.73,cs),
(362.77,584.317,o),
(369.832,584.317,o),
(374.246,587.847,cs),
(378.659,592.261,o),
(378.659,599.322,o),
(375.128,603.736,cs),
(364.536,615.21,o),
(352.179,624.919,o),
(338.939,633.745,cs),
(307.163,653.164,o),
(278.036,660.225,o),
(245.378,660.225,cs),
(208.306,660.225,o),
(180.944,650.516,o),
(153.582,633.745,cs),
(112.98,607.266,o),
(86.5,565.781,o),
(72.378,522.531,cs),
(58.255,479.281,o),
(53.842,434.266,o),
(53.842,390.133,cs),
(53.842,330.995,l),
(53.842,270.975,ls),
(53.842,226.842,o),
(58.255,181.826,o),
(72.378,138.577,cs),
(86.5,95.326,o),
(112.98,53.842,o),
(153.582,28.245,cs),
(184.475,8.827,o),
(212.719,1.765,o),
(244.495,1.765,cs),
(245.378,1.765,ls),
(282.449,2.648,o),
(313.342,9.709,o),
(340.704,29.127,cs),
(366.301,47.664,o),
(383.072,72.378,o),
(391.899,100.623,cs),
(393.663,106.801,o),
(390.133,112.98,o),
(384.837,114.745,cs),
(378.659,116.51,o),
(372.48,112.98,o),
(370.715,107.684,cs),
(362.77,82.97,o),
(349.531,62.668,o),
(327.464,46.781,cs),
(304.516,30.011,o),
(279.801,24.714,o),
(245.378,23.832,cs)
);
},
{
closed = 1;
nodes = (
(145.638,60.903,l),
(120.924,82.97,o),
(103.271,113.863,o),
(92.679,145.638,cs),
(80.321,185.357,o),
(75.908,227.725,o),
(75.908,270.975,cs),
(75.908,292.158,o),
(75.026,311.577,o),
(75.026,330.995,cs),
(75.026,350.414,o),
(75.908,368.95,o),
(75.908,390.133,cs),
(75.908,433.383,o),
(80.321,475.751,o),
(92.679,515.47,cs),
(103.271,548.128,o),
(120.924,578.138,o),
(145.638,600.205,c)
);
}
);
};
layerId = m01;
shapes = (
{
closed = 1;
nodes = (
(360.123,47.664,o),
(317.755,13.24,o),
(248.025,13.24,cs),
(235.669,13.24,ls),
(128.867,13.24,o),
(70.612,90.913,o),
(70.612,236.551,cs),
(70.612,422.792,ls),
(70.612,569.312,o),
(128.867,646.103,o),
(235.669,646.103,cs),
(248.025,646.103,ls),
(300.985,646.103,o),
(339.822,629.332,o),
(368.067,593.144,cs),
(369.832,590.496,o),
(371.597,589.613,o),
(374.246,589.613,cs),
(379.541,589.613,o),
(383.072,593.144,o),
(383.072,598.439,cs),
(383.072,600.205,o),
(382.189,601.97,o),
(381.307,603.736,cs),
(350.414,643.455,o),
(304.516,663.756,o),
(248.025,663.756,cs),
(235.669,663.756,ls),
(119.158,663.756,o),
(52.959,576.373,o),
(52.959,422.792,cs),
(52.959,236.551,ls),
(52.959,83.852,o),
(119.158,-4.413,o),
(235.669,-4.413,cs),
(248.025,-4.413,ls),
(325.7,-4.413,o),
(374.246,36.189,o),
(395.429,105.036,cs),
(395.429,105.918,o),
(395.429,105.918,o),
(395.429,106.801,cs),
(395.429,111.214,o),
(391.016,116.51,o),
(386.602,116.51,cs),
(382.189,116.51,o),
(378.659,113.863,o),
(377.776,110.332,cs)
);
},
{
closed = 1;
nodes = (
(145.638,26.48,ls),
(145.638,21.184,o),
(149.169,17.653,o),
(154.464,17.653,cs),
(159.76,17.653,o),
(163.291,21.184,o),
(163.291,26.48,cs),
(163.291,633.745,ls),
(163.291,638.159,o),
(159.76,641.69,o),
(154.464,641.69,cs),
(149.169,641.69,o),
(145.638,638.159,o),
(145.638,633.745,cs)
);
}
);
width = 439.85297;
},
{
anchors = (
{
name = bottom;
pos = (273.623,0);
},
{
name = top;
pos = (273.623,659.343);
}
);
background = {
shapes = (
{
closed = 1;
nodes = (
(386.602,116.51,o),
(365.419,101.505,o),
(303.633,101.505,cs),
(291.276,101.505,ls),
(195.066,101.505,o),
(158.878,141.225,o),
(158.878,249.791,cs),
(158.878,409.552,ls),
(158.878,518.118,o),
(195.066,557.837,o),
(291.276,557.837,cs),
(303.633,557.837,ls),
(351.296,557.837,o),
(376.893,548.128,o),
(398.96,525.179,cs),
(408.669,514.587,o),
(422.792,508.408,o),
(437.796,508.408,cs),
(466.924,508.408,o),
(490.755,532.24,o),
(490.755,561.368,cs),
(490.755,575.491,o),
(485.46,587.847,o),
(476.633,597.557,cs),
(434.266,641.69,o),
(373.362,663.756,o),
(303.633,663.756,cs),
(291.276,663.756,ls),
(141.225,663.756,o),
(52.959,567.546,o),
(52.959,409.552,cs),
(52.959,249.791,ls),
(52.959,92.679,o),
(141.225,-4.413,o),
(291.276,-4.413,cs),
(303.633,-4.413,ls),
(403.373,-4.413,o),
(473.102,42.367,o),
(500.465,120.924,cs),
(502.23,126.219,o),
(503.995,132.398,o),
(503.995,138.577,cs),
(503.995,167.704,o),
(480.164,191.536,o),
(451.036,191.536,cs),
(428.087,191.536,o),
(408.669,176.531,o),
(401.608,156.23,cs)
);
},
{
closed = 1;
nodes = (
(203.01,65.317,ls),
(203.01,36.189,o),
(226.842,12.357,o),
(255.97,12.357,cs),
(285.097,12.357,o),
(308.929,36.189,o),
(308.929,65.317,cs),
(308.929,594.026,ls),
(308.929,623.153,o),
(285.097,646.985,o),
(255.97,646.985,cs),
(226.842,646.985,o),
(203.01,623.153,o),
(203.01,594.026,cs)
);
}
);
};
layerId = m002;
shapes = (
{
closed = 1;
nodes = (
(386.956,116.379,o),
(365.419,101.505,o),
(303.633,101.505,cs),
(291.276,101.505,ls),
(195.066,101.505,o),
(158.878,141.225,o),
(158.878,249.791,cs),
(158.878,409.552,ls),
(158.878,518.118,o),
(195.066,557.837,o),
(291.276,557.837,cs),
(303.633,557.837,ls),
(351.296,557.837,o),
(376.893,548.128,o),
(398.96,525.179,cs),
(408.669,514.587,o),
(422.792,508.408,o),
(437.796,508.408,cs),
(466.924,508.408,o),
(490.755,532.24,o),
(490.755,561.368,cs),
(490.755,575.491,o),
(485.46,587.847,o),
(476.633,597.557,cs),
(434.266,641.69,o),
(373.362,663.756,o),
(303.633,663.756,cs),
(291.276,663.756,ls),
(141.225,663.756,o),
(52.959,567.546,o),
(52.959,409.552,cs),
(52.959,249.791,ls),
(52.959,92.679,o),
(141.225,-4.413,o),
(291.276,-4.413,cs),
(303.633,-4.413,ls),
(403.373,-4.413,o),
(473.102,42.367,o),
(500.465,120.924,cs),
(502.23,126.219,o),
(503.995,132.398,o),
(503.995,138.577,cs),
(503.995,167.704,o),
(480.164,191.536,o),
(451.036,191.536,cs),
(428.087,191.536,o),
(409.024,176.404,o),
(401.608,156.23,cs)
);
},
{
closed = 1;
nodes = (
(216.25,65.317,ls),
(216.25,36.189,o),
(240.082,12.357,o),
(269.209,12.357,cs),
(298.337,12.357,o),
(322.169,36.189,o),
(322.169,65.317,cs),
(322.169,594.026,ls),
(322.169,623.153,o),
(298.337,646.985,o),
(269.209,646.985,cs),
(240.082,646.985,o),
(216.25,623.153,o),
(216.25,594.026,cs)
);
}
);
width = 548.12813;
}
);
note = C;
unicode = 67;
},
{
glyphname = D;
kernLeft = H;
kernRight = O;
lastChange = "2024-12-12 09:14:51 +0000";
layers = (
{
anchors = (
{
name = bottom;
pos = (209.189,-4.413);
},
{
name = center;
pos = (222.429,330.113);
},
{
name = top;
pos = (209.189,664.638);
}
);
background = {
hints = (
{
horizontal = 1;
place = (1.765,21);
target = up;
type = BottomGhost;
},
{
horizontal = 1;
place = (637.276,22.949);
type = Stem;
},
{
place = (54.725,21.184);
type = Stem;
},
{
place = (305.398,21.184);
type = Stem;
},
{
place = (376.01,22.066);
type = Stem;
},
{
horizontal = 1;
place = (2.648,21.184);
type = Stem;
}
);
shapes = (
{
closed = 1;
nodes = (
(71.495,660.225,ls),
(65.317,660.225,o),
(60.903,654.929,o),
(60.903,648.751,cs),
(60.903,13.24,ls),
(60.903,7.061,o),
(65.317,1.765,o),
(71.495,1.765,cs),
(104.153,1.765,l),
(105.918,0.882,o),
(108.566,0,o),
(110.332,0,cs),
(119.158,0,o),
(128.867,0.882,o),
(137.694,2.648,c),
(179.179,2.648,l),
(180.944,1.765,o),
(181.826,1.765,o),
(183.592,1.765,cs),
(220.664,1.765,o),
(257.735,13.24,o),
(288.628,34.424,cs),
(335.409,65.317,o),
(366.301,115.627,o),
(382.189,167.704,cs),
(398.96,219.781,o),
(403.373,274.505,o),
(403.373,328.347,c),
(404.255,330.995,o),
(404.255,333.643,o),
(404.255,336.291,cs),
(404.255,385.72,o),
(399.842,435.148,o),
(386.602,482.812,cs),
(373.362,534.006,o),
(346.883,583.434,o),
(304.516,616.975,cs),
(270.092,644.337,o),
(226.842,660.225,o),
(182.71,660.225,cs)
);
},
{
closed = 1;
nodes = (
(82.087,23.832,l),
(82.087,637.276,l),
(104.153,637.276,l),
(105.918,636.393,o),
(108.566,635.511,o),
(110.332,635.511,cs),
(142.107,635.511,o),
(186.24,626.684,o),
(218.016,598.439,c),
(260.383,565.781,o),
(283.332,514.587,o),
(293.924,476.633,cs),
(307.163,428.97,o),
(311.577,376.893,o),
(311.577,324.817,cs),
(311.577,272.74,o),
(306.281,220.664,o),
(289.51,173.883,cs),
(272.74,126.219,o),
(246.261,80.321,o),
(205.658,51.194,cs),
(184.475,36.189,o),
(160.643,27.362,o),
(135.929,23.832,c)
);
},
{
closed = 1;
nodes = (
(210.955,28.245,o),
(214.485,30.893,o),
(218.016,33.541,cs),
(268.327,68.847,o),
(294.807,122.689,o),
(310.694,166.822,cs),
(329.23,217.133,o),
(332.761,270.975,o),
(332.761,324.817,cs),
(332.761,378.659,o),
(328.347,432.5,o),
(315.108,481.929,cs),
(303.633,524.297,o),
(278.918,579.904,o),
(232.138,616.092,cs),
(222.429,624.037,o),
(211.837,631.098,o),
(200.363,636.393,c),
(233.021,632.863,o),
(264.796,619.623,o),
(290.393,599.322,cs),
(332.761,565.781,o),
(354.827,516.353,o),
(365.419,477.515,cs),
(377.776,431.618,o),
(382.189,383.954,o),
(382.189,336.291,cs),
(382.189,328.347,ls),
(381.307,276.271,o),
(376.893,223.311,o),
(361.888,174.765,cs),
(346,125.337,o),
(317.755,80.321,o),
(276.271,52.077,cs),
(255.087,38.837,o),
(231.256,29.127,o),
(206.541,25.597,c)
);
}
);
};
layerId = m01;
shapes = (
{
closed = 1;
nodes = (
(76.791,659.343,ls),
(67.081,659.343,o),
(61.786,654.046,o),
(61.786,644.337,cs),
(61.786,15.005,ls),
(61.786,5.296,o),
(67.081,0,o),
(76.791,0,cs),
(203.893,0,ls),
(322.169,0,o),
(399.842,119.158,o),
(399.842,291.276,cs),
(399.842,368.95,ls),
(399.842,541.95,o),
(322.169,659.343,o),
(203.893,659.343,cs)
);
},
{
closed = 1;
nodes = (
(203.893,641.69,ls),
(311.577,641.69,o),
(382.189,536.653,o),
(382.189,368.95,cs),
(382.189,291.276,ls),
(382.189,124.454,o),
(311.577,17.653,o),
(203.893,17.653,cs),
(79.439,17.653,l),
(79.439,641.69,l)
);
},
{
closed = 1;
nodes = (
(231.256,641.69,o),
(301.868,536.653,o),
(301.868,368.95,cs),
(301.868,291.276,ls),
(301.868,124.454,o),
(231.256,17.653,o),
(122.689,17.653,cs),
(117.393,17.653,o),
(113.863,14.122,o),
(113.863,8.827,cs),
(113.863,3.531,o),
(117.393,0,o),
(122.689,0,cs),
(240.964,0,o),
(318.638,119.158,o),
(318.638,291.276,cs),
(318.638,368.95,ls),
(318.638,541.95,o),
(240.964,659.343,o),
(122.689,659.343,cs),
(117.393,659.343,o),
(113.863,655.812,o),
(113.863,650.516,cs),
(113.863,645.22,o),
(117.393,641.69,o),
(122.689,641.69,cs)
);
}
);
width = 452.8015;
},
{
anchors = (
{
name = bottom;
pos = (236.551,0);
},
{
name = center;
pos = (276.271,330.113);
},
{
name = top;
pos = (236.551,659.343);
}
);
layerId = m002;
shapes = (
{
closed = 1;
nodes = (
(114.745,659.343,ls),
(80.321,659.343,o),
(61.786,640.806,o),
(61.786,606.383,cs),
(61.786,52.077,ls),
(61.786,17.653,o),
(80.321,-0.882,o),
(114.745,-0.882,cs),
(256.852,-0.882,ls),
(406.903,-0.882,o),
(508.408,121.806,o),
(508.408,295.689,cs),
(508.408,362.77,ls),
(508.408,536.653,o),
(406.903,659.343,o),
(256.852,659.343,cs)
);
},
{
closed = 1;
nodes = (
(256.852,553.424,ls),
(351.296,553.424,o),
(402.49,490.755,o),
(402.49,362.77,cs),
(402.49,295.689,ls),
(402.49,167.704,o),
(351.296,105.036,o),
(256.852,105.036,cs),
(167.704,105.036,l),
(167.704,553.424,l)
);
},
{
closed = 1;
nodes = (
(211.837,553.424,o),
(263.914,489.873,o),
(263.914,362.77,cs),
(263.914,295.689,ls),
(263.914,168.587,o),
(211.837,105.036,o),
(117.393,105.036,cs),
(88.265,105.036,o),
(64.434,81.204,o),
(64.434,52.077,cs),
(64.434,22.949,o),
(88.265,-0.882,o),
(117.393,-0.882,cs),
(267.444,-0.882,o),
(369.832,121.806,o),
(369.832,295.689,cs),
(369.832,362.77,ls),
(369.832,536.653,o),
(267.444,659.343,o),
(117.393,659.343,cs),
(88.265,659.343,o),
(64.434,635.511,o),
(64.434,606.383,cs),
(64.434,577.256,o),
(88.265,553.424,o),
(117.393,553.424,cs)
);
}
);
width = 561.36794;
}
);
note = D;
unicode = 68;
},
{
glyphname = Eth;
kernLeft = H;
lastChange = "2024-12-12 09:14:51 +0000";
layers = (
{
layerId = m01;
shapes = (
{
pos = (2.648,0);
ref = D;
},
{
closed = 1;
nodes = (
(195.949,310.694,ls),
(201.245,310.694,o),
(204.776,314.225,o),
(204.776,319.521,cs),
(204.776,324.817,o),
(201.245,328.347,o),
(195.949,328.347,cs),
(26.48,328.347,ls),
(21.184,328.347,o),
(17.653,324.817,o),
(17.653,319.521,cs),
(17.653,314.225,o),
(21.184,310.694,o),
(26.48,310.694,cs)
);
}
);
width = 451.03619;
},
{
layerId = m002;
shapes = (
{
pos = (82.087,0);
ref = D;
},
{
closed = 1;
nodes = (
(266.562,266.562,ls),
(295.689,266.562,o),
(319.521,290.393,o),
(319.521,319.521,cs),
(319.521,348.648,o),
(295.689,372.48,o),
(266.562,372.48,cs),
(70.612,372.48,ls),
(41.485,372.48,o),
(17.653,348.648,o),
(17.653,319.521,cs),
(17.653,290.393,o),
(41.485,266.562,o),
(70.612,266.562,cs)
);
}
);
width = 638.84731;
}
);
unicode = 208;
},
{
glyphname = E;
kernLeft = H;
kernRight = E;
lastChange = "2024-12-12 09:14:51 +0000";
layers = (
{
anchors = (
{
name = bottom;
pos = (192.418,-4.413);
},
{
name = ogonek;
pos = (306.281,4.413);
},
{
name = top;
pos = (192.418,664.638);
},
{
name = topleft;
pos = (18.535,664.638);
}
);
background = {
hints = (
{
horizontal = 1;
place = (1.765,22.949);
type = Stem;
},
{
horizontal = 1;
place = (324.817,22.949);
type = Stem;
},
{
horizontal = 1;
place = (395.429,22.949);
type = Stem;
},
{
horizontal = 1;
place = (637.276,22.949);
type = Stem;
},
{
place = (54.725,21.184);
type = Stem;
}
);
shapes = (
{
closed = 1;
nodes = (
(82.087,24.714,l),
(82.087,324.817,l),
(302.75,324.817,ls),
(308.929,324.817,o),
(313.342,330.113,o),
(313.342,336.291,cs),
(313.342,342.47,o),
(308.929,347.766,o),
(302.75,347.766,cs),
(82.087,347.766,l),
(82.087,395.429,l),
(300.985,395.429,ls),
(307.163,395.429,o),
(311.577,400.725,o),
(311.577,406.903,cs),
(311.577,413.082,o),
(307.163,418.378,o),
(300.985,418.378,cs),
(82.087,418.378,l),
(82.087,637.276,l),
(321.286,637.276,ls),
(327.464,637.276,o),
(332.761,642.572,o),
(332.761,648.751,cs),
(332.761,654.929,o),
(327.464,660.225,o),
(321.286,660.225,cs),
(71.495,660.225,ls),
(65.317,660.225,o),
(60.903,654.929,o),
(60.903,648.751,cs),
(60.903,13.24,ls),
(60.903,7.061,o),
(65.317,1.765,o),
(71.495,1.765,cs),
(321.286,1.765,ls),
(327.464,1.765,o),
(332.761,7.061,o),
(332.761,13.24,cs),
(332.761,19.419,o),
(327.464,24.714,o),
(321.286,24.714,cs)
);
}
);
};
layerId = m01;
shapes = (
{
closed = 1;
nodes = (
(79.439,17.653,l),
(79.439,641.69,l),
(323.051,641.69,ls),
(328.347,641.69,o),
(331.878,645.22,o),
(331.878,650.516,cs),
(331.878,655.812,o),
(328.347,659.343,o),
(323.051,659.343,cs),
(76.791,659.343,ls),
(67.081,659.343,o),
(61.786,654.046,o),
(61.786,644.337,cs),
(61.786,15.005,ls),
(61.786,5.296,o),
(67.081,0,o),
(76.791,0,cs),
(323.051,0,ls),
(328.347,0,o),
(331.878,3.531,o),
(331.878,8.827,cs),
(331.878,14.122,o),
(328.347,17.653,o),
(323.051,17.653,cs)
);
},
{
closed = 1;
nodes = (
(70.612,346,ls),
(65.317,346,o),
(61.786,342.47,o),
(61.786,337.174,cs),
(61.786,331.878,o),
(65.317,328.347,o),
(70.612,328.347,cs),
(301.868,328.347,ls),
(306.281,328.347,o),
(309.811,331.878,o),
(309.811,337.174,cs),
(309.811,342.47,o),
(306.281,346,o),
(301.868,346,cs)
);
},
{
closed = 1;
nodes = (
(70.612,455.449,ls),
(65.317,455.449,o),
(61.786,451.919,o),
(61.786,446.623,cs),
(61.786,441.327,o),
(65.317,437.796,o),
(70.612,437.796,cs),
(301.868,437.796,ls),
(306.281,437.796,o),
(309.811,441.327,o),
(309.811,446.623,cs),
(309.811,451.919,o),
(306.281,455.449,o),
(301.868,455.449,cs)
);
}
);
width = 380.42387;
},
{
anchors = (
{
name = bottom;
pos = (244.495,0);
},
{
name = ogonek;
pos = (354.827,35.306);
},
{
name = top;
pos = (244.495,659.343);
},
{
name = topleft;
pos = (58.255,659.343);
}
);
layerId = m002;
shapes = (
{
closed = 1;
nodes = (
(167.704,105.918,l),
(167.704,553.424,l),
(383.954,553.424,ls),
(413.082,553.424,o),
(436.914,577.256,o),
(436.914,606.383,cs),
(436.914,635.511,o),
(413.082,659.343,o),
(383.954,659.343,cs),
(114.745,659.343,ls),
(80.321,659.343,o),
(61.786,640.806,o),
(61.786,606.383,cs),
(61.786,52.959,ls),
(61.786,18.535,o),
(80.321,0,o),
(114.745,0,cs),
(383.954,0,ls),
(413.082,0,o),
(436.914,23.832,o),
(436.914,52.959,cs),
(436.914,82.087,o),
(413.082,105.918,o),
(383.954,105.918,cs)
);
},
{
closed = 1;
nodes = (
(114.745,348.648,ls),
(85.618,348.648,o),
(61.786,324.817,o),
(61.786,295.689,cs),
(61.786,266.562,o),
(85.618,242.73,o),
(114.745,242.73,cs),
(360.123,242.73,ls),
(389.25,242.73,o),
(413.082,266.562,o),
(413.082,295.689,cs),
(413.082,324.817,o),
(389.25,348.648,o),
(360.123,348.648,cs)
);
},
{
closed = 1;
nodes = (
(114.745,482.812,ls),
(85.618,482.812,o),
(61.786,458.98,o),
(61.786,429.853,cs),
(61.786,400.725,o),
(85.618,376.893,o),
(114.745,376.893,cs),
(360.123,376.893,ls),
(389.25,376.893,o),
(413.082,400.725,o),
(413.082,429.853,cs),
(413.082,458.98,o),
(389.25,482.812,o),
(360.123,482.812,cs)
);
}
);
width = 485.4597;
}
);
note = E;
unicode = 69;
},
{
glyphname = Schwa;
lastChange = "2024-12-12 09:14:51 +0000";
layers = (
{
layerId = m01;
shapes = (
{
closed = 1;
nodes = (
(61.786,291.256,ls),
(50.318,291.256,o),
(44.133,285.077,o),
(44.133,272.72,cs),
(45.899,125.317,o),
(96.21,-4.413,o),
(232.09,-4.413,cs),
(236.581,-4.413,ls),
(373.343,-4.413,o),
(438.659,143.852,o),
(438.659,282.429,cs),
(438.659,366.271,ls),
(438.659,549.847,o),
(374.226,669.878,o),
(238.807,669.878,cs),
(229.864,669.878,ls),
(141.225,669.878,o),
(96.602,611.212,o),
(64.435,560.439,cs),
(63.552,559.047,o),
(63.552,557.792,o),
(63.552,556.026,cs),
(63.552,551.613,o),
(66.199,547.2,o),
(72.378,547.2,cs),
(75.909,547.2,o),
(78.557,548.965,o),
(80.322,551.613,cs),
(106.802,599.276,o),
(146.521,652.225,o),
(229.864,652.225,cs),
(238.807,652.225,ls),
(363.634,652.225,o),
(421.006,542.786,o),
(421.006,366.271,cs),
(421.006,282.429,ls),
(421.006,150.913,o),
(363.634,12.357,o),
(236.581,12.357,cs),
(232.09,12.357,ls),
(105.919,12.357,o),
(62.669,132.378,o),
(60.904,273.602,c),
(429.833,273.602,ls),
(435.128,273.602,o),
(436.894,277.133,o),
(436.894,282.429,cs),
(436.894,287.725,o),
(435.128,291.256,o),
(429.833,291.256,cs)
);
},
{
closed = 1;
nodes = (
(164.175,18.592,ls),
(164.175,14.179,o),
(168.588,9.765,o),
(173.001,9.765,cs),
(178.297,9.765,o),
(181.828,14.179,o),
(181.828,18.592,cs),
(181.828,278.016,ls),
(181.828,283.311,o),
(178.297,286.842,o),
(173.001,286.842,cs),
(168.588,286.842,o),
(164.175,283.311,o),
(164.175,278.016,cs)
);
}
);
width = 483.66;
},
{
layerId = m002;
shapes = (
{
closed = 1;
nodes = (
(98.858,321.276,ls),
(64.434,321.276,o),
(44.133,302.739,o),
(44.133,268.316,cs),
(45.016,111.203,o),
(118.276,-4.413,o),
(277.552,-4.413,cs),
(284.684,-4.413,ls),
(438.664,-4.413,o),
(532.225,138.561,o),
(532.225,283.316,cs),
(532.225,361.278,ls),
(532.225,565.151,o),
(438.664,664.008,o),
(284.684,664.008,cs),
(277.552,664.008,ls),
(181.827,664.008,o),
(114.745,603.115,o),
(75.026,546.625,cs),
(68.847,537.799,o),
(65.317,527.207,o),
(65.317,515.732,cs),
(65.317,486.605,o),
(89.149,462.773,o),
(118.276,462.773,cs),
(135.929,462.773,o),
(151.817,471.6,o),
(161.526,484.839,cs),
(183.592,516.615,o),
(210.955,558.09,o),
(277.552,558.09,cs),
(284.684,558.09,ls),
(384.822,558.09,o),
(426.307,516.605,o),
(426.307,361.278,cs),
(426.307,283.316,ls),
(426.307,187.107,o),
(384.822,101.505,o),
(284.684,101.505,cs),
(277.552,101.505,ls),
(203.011,101.505,o),
(159.761,161.515,o),
(152.699,215.357,c),
(479.266,215.357,ls),
(508.393,215.357,o),
(517.225,254.188,o),
(517.225,283.316,cs),
(517.225,312.444,o),
(508.393,321.276,o),
(479.266,321.276,cs)
);
},
{
closed = 1;
nodes = (
(203.888,71.494,l),
(203.888,42.367,o),
(227.72,18.535,o),
(256.848,18.535,cs),
(288.309,18.535,o),
(309.807,17.89,o),
(309.807,71.494,cs),
(309.807,224.184,ls),
(309.807,277.788,o),
(288.309,277.143,o),
(256.848,277.143,cs),
(227.72,277.143,o),
(203.888,253.311,o),
(203.888,224.184,c)
);
}
);
width = 577.22;
}
);
unicode = 399;
},
{
glyphname = F;
kernLeft = H;
kernRight = F;
lastChange = "2024-12-12 09:14:51 +0000";
layers = (
{
anchors = (
{
name = bottom;
pos = (192.418,-4.413);
},
{
name = top;
pos = (192.418,664.638);
}
);
background = {
hints = (
{
horizontal = 1;
place = (324.817,22.949);
type = Stem;
},
{
horizontal = 1;
place = (534.888,21.184);
type = Stem;
},
{
horizontal = 1;
place = (637.276,22.949);
type = Stem;
},
{
place = (54.725,21.184);
type = Stem;
}
);
shapes = (
{
closed = 1;
nodes = (
(82.087,324.817,l),
(302.75,324.817,ls),
(308.929,324.817,o),
(313.342,330.113,o),
(313.342,336.291,cs),
(313.342,342.47,o),
(308.929,347.766,o),
(302.75,347.766,cs),
(82.087,347.766,l),
(82.087,534.888,l),
(319.521,534.888,ls),
(325.7,534.888,o),
(330.995,539.301,o),
(330.995,545.48,cs),
(330.995,551.659,o),
(325.7,556.072,o),
(319.521,556.072,cs),
(82.087,556.072,l),
(82.087,637.276,l),
(321.286,637.276,ls),
(327.464,637.276,o),
(332.761,642.572,o),
(332.761,648.751,cs),
(332.761,654.929,o),
(327.464,660.225,o),
(321.286,660.225,cs),
(71.495,660.225,ls),
(65.317,660.225,o),
(60.903,654.929,o),
(60.903,648.751,cs),
(60.903,13.24,ls),
(60.903,7.061,o),
(65.317,1.765,o),
(71.495,1.765,cs),
(77.673,1.765,o),
(82.087,7.061,o),
(82.087,13.24,cs)
);
}
);
};
layerId = m01;
shapes = (
{
closed = 1;
nodes = (
(79.439,641.69,l),
(323.051,641.69,ls),
(328.347,641.69,o),
(331.878,645.22,o),
(331.878,650.516,cs),
(331.878,655.812,o),
(328.347,659.343,o),
(323.051,659.343,cs),
(76.791,659.343,ls),
(67.081,659.343,o),
(61.786,654.046,o),
(61.786,644.337,cs),
(61.786,8.827,ls),
(61.786,3.531,o),
(65.317,0,o),
(70.612,0,cs),
(75.908,0,o),
(79.439,3.531,o),
(79.439,8.827,cs)
);
},
{
closed = 1;
nodes = (
(70.612,550.776,ls),
(65.317,550.776,o),
(61.786,547.245,o),
(61.786,541.95,cs),
(61.786,536.653,o),
(65.317,533.123,o),
(70.612,533.123,cs),
(323.051,533.123,ls),
(328.347,533.123,o),
(331.878,536.653,o),
(331.878,541.95,cs),
(331.878,547.245,o),
(328.347,550.776,o),
(323.051,550.776,cs)
);
},
{
closed = 1;
nodes = (
(70.612,346,ls),
(65.317,346,o),
(61.786,342.47,o),
(61.786,337.174,cs),
(61.786,331.878,o),
(65.317,328.347,o),
(70.612,328.347,cs),
(314.225,328.347,ls),
(319.521,328.347,o),
(323.051,331.878,o),
(323.051,337.174,cs),
(323.051,342.47,o),
(319.521,346,o),
(314.225,346,cs)
);
}
);
width = 367.18406;
},
{
anchors = (
{
name = bottom;
pos = (244.495,0);
},
{
name = top;
pos = (244.495,659.343);
}
);
layerId = m002;
shapes = (
{
closed = 1;
nodes = (
(167.704,553.424,l),
(383.954,553.424,ls),
(413.082,553.424,o),
(436.914,577.256,o),
(436.914,606.383,cs),
(436.914,635.511,o),
(413.082,659.343,o),
(383.954,659.343,cs),
(114.745,659.343,ls),
(80.321,659.343,o),
(61.786,640.806,o),
(61.786,606.383,cs),
(61.786,52.077,ls),
(61.786,22.949,o),
(85.618,-0.882,o),
(114.745,-0.882,cs),
(143.872,-0.882,o),
(167.704,22.949,o),
(167.704,52.077,cs)
);
},
{
closed = 1;
nodes = (
(114.745,525.179,ls),
(85.618,525.179,o),
(61.786,501.347,o),
(61.786,472.22,cs),
(61.786,443.092,o),
(85.618,419.261,o),
(114.745,419.261,cs),
(383.954,419.261,ls),
(413.082,419.261,o),
(436.914,443.092,o),
(436.914,472.22,cs),
(436.914,501.347,o),
(413.082,525.179,o),
(383.954,525.179,cs)
);
},
{
closed = 1;
nodes = (
(114.745,388.368,ls),
(85.618,388.368,o),
(61.786,364.536,o),
(61.786,335.409,cs),
(61.786,306.281,o),
(85.618,282.449,o),
(114.745,282.449,cs),
(374.246,282.449,ls),
(403.373,282.449,o),
(427.205,306.281,o),
(427.205,335.409,cs),
(427.205,364.536,o),
(403.373,388.368,o),
(374.246,388.368,cs)
);
}
);
width = 472.21989;
}
);
note = F;
unicode = 70;
},
{
glyphname = G;
kernLeft = O;
kernRight = G;
lastChange = "2024-12-12 09:14:51 +0000";
layers = (
{
anchors = (
{
name = bottom;
pos = (227.725,-4.413);
},
{
name = top;
pos = (227.725,664.638);
}
);
background = {
hints = (
{
horizontal = 1;
place = (2.648,22.066);
type = Stem;
},
{
horizontal = 1;
place = (206.541,21.184);
type = Stem;
},
{
horizontal = 1;
place = (287.745,21.184);
type = Stem;
},
{
horizontal = 1;
place = (637.276,22.949);
type = Stem;
},
{
place = (38.837,22.066);
type = Stem;
},
{
place = (363.654,22.949);
type = Stem;
}
);
shapes = (
{
closed = 1;
nodes = (
(200.363,308.929,ls),
(194.184,308.929,o),
(189.771,304.516,o),
(189.771,298.337,cs),
(189.771,292.158,o),
(194.184,287.745,o),
(200.363,287.745,cs),
(380.424,287.745,l),
(379.541,266.562,o),
(379.541,247.143,o),
(379.541,227.725,c),
(203.893,227.725,ls),
(197.715,227.725,o),
(193.302,223.311,o),
(193.302,217.133,cs),
(193.302,210.955,o),
(197.715,206.541,o),
(203.893,206.541,cs),
(379.541,206.541,l),
(379.541,195.066,o),
(378.659,184.475,o),
(378.659,173,cs),
(378.659,114.745,o),
(364.536,73.26,o),
(326.582,45.898,cs),
(304.516,30.011,o),
(279.801,24.714,o),
(245.378,24.714,cs),
(211.837,24.714,o),
(189.771,30.893,o),
(165.056,46.781,cs),
(130.633,68.847,o),
(105.918,105.918,o),
(92.679,145.638,cs),
(80.321,185.357,o),
(75.908,227.725,o),
(75.908,270.975,cs),
(75.908,292.158,o),
(75.026,311.577,o),
(75.026,330.995,cs),
(75.026,350.414,o),
(75.908,368.95,o),
(75.908,390.133,cs),
(75.908,433.383,o),
(80.321,475.751,o),
(92.679,515.47,cs),
(105.918,555.19,o),
(130.633,592.261,o),
(165.056,615.21,cs),
(190.653,630.215,o),
(211.837,637.276,o),
(245.378,637.276,cs),
(273.623,637.276,o),
(300.102,631.98,o),
(327.464,615.21,cs),
(338.939,607.266,o),
(349.531,598.439,o),
(359.24,588.73,c),
(362.77,583.434,o),
(369.832,583.434,o),
(374.246,587.847,cs),
(378.659,591.378,o),
(379.541,598.439,o),
(375.128,602.853,cs),
(364.536,614.327,o),
(353.062,624.919,o),
(338.939,633.745,cs),
(307.163,653.164,o),
(278.036,660.225,o),
(245.378,660.225,cs),
(208.306,660.225,o),
(180.944,650.516,o),
(153.582,633.745,cs),
(112.98,607.266,o),
(86.5,565.781,o),
(72.378,522.531,cs),
(58.255,479.281,o),
(53.842,434.266,o),
(53.842,390.133,cs),
(53.842,330.995,l),
(53.842,270.975,ls),
(53.842,226.842,o),
(58.255,181.826,o),
(72.378,138.577,cs),
(86.5,95.326,o),
(112.98,53.842,o),
(153.582,28.245,cs),
(184.475,8.827,o),
(212.719,2.648,o),
(245.378,2.648,cs),
(281.567,2.648,o),
(312.46,8.827,o),
(339.822,28.245,cs),
(373.362,52.077,o),
(401.608,92.679,o),
(401.608,173,cs),
(401.608,216.25,o),
(401.608,254.204,o),
(402.49,298.337,cs),
(402.49,304.516,o),
(397.194,308.929,o),
(391.016,308.929,cs)
);
}
);
};
layerId = m01;
shapes = (
{
closed = 1;
nodes = (
(387.485,289.51,l),
(387.485,183.592,ls),
(387.485,76.791,o),
(342.47,13.24,o),
(248.025,13.24,cs),
(235.669,13.24,ls),
(128.867,13.24,o),
(70.612,90.913,o),
(70.612,236.551,cs),
(70.612,422.792,ls),
(70.612,569.312,o),
(128.867,646.103,o),
(235.669,646.103,cs),
(248.025,646.103,ls),
(300.985,646.103,o),
(339.822,629.332,o),
(368.067,593.144,cs),
(369.832,590.496,o),
(371.597,589.613,o),
(374.246,589.613,cs),
(379.541,589.613,o),
(383.072,593.144,o),
(383.072,598.439,cs),
(383.072,600.205,o),
(382.189,601.97,o),
(381.307,603.736,c),
(350.414,643.455,o),
(304.516,663.756,o),
(248.025,663.756,cs),
(235.669,663.756,ls),
(119.158,663.756,o),
(52.959,576.373,o),
(52.959,422.792,cs),
(52.959,236.551,ls),
(52.959,83.852,o),
(119.158,-4.413,o),
(235.669,-4.413,cs),
(248.025,-4.413,ls),
(352.179,-4.413,o),
(405.139,70.612,o),
(405.139,183.592,cs),
(405.139,291.276,ls),
(405.139,300.985,o),
(399.842,306.281,o),
(390.133,306.281,cs),
(188.005,306.281,ls),
(182.71,306.281,o),
(179.179,302.75,o),
(179.179,298.337,cs),
(179.179,293.041,o),
(182.71,289.51,o),
(188.005,289.51,cs)
);
},
{
closed = 1;
nodes = (
(396.312,207.424,ls),
(401.608,207.424,o),
(405.139,210.955,o),
(405.139,216.25,cs),
(405.139,221.546,o),
(401.608,225.077,o),
(396.312,225.077,cs),
(188.005,225.077,ls),
(182.71,225.077,o),
(179.179,221.546,o),
(179.179,216.25,cs),
(179.179,210.955,o),
(182.71,207.424,o),
(188.005,207.424,cs)
);
}
);
width = 453.68416;
},
{
anchors = (
{
name = bottom;
pos = (290.393,0);
},
{
name = top;
pos = (291.276,659.343);
}
);
layerId = m002;
shapes = (
{
closed = 1;
nodes = (
(408.669,289.51,l),
(408.669,203.893,ls),
(408.669,128.867,o),
(384.837,101.505,o),
(303.633,101.505,cs),
(291.276,101.505,ls),
(195.066,101.505,o),
(158.878,141.225,o),
(158.878,249.791,cs),
(158.878,409.552,ls),
(158.878,518.118,o),
(195.066,557.837,o),
(291.276,557.837,cs),
(303.633,557.837,ls),
(351.296,557.837,o),
(376.893,548.128,o),
(398.96,525.179,cs),
(408.669,514.587,o),
(422.792,508.408,o),
(437.796,508.408,cs),
(466.924,508.408,o),
(490.755,532.24,o),
(490.755,561.368,cs),
(490.755,575.491,o),
(485.46,587.847,o),
(476.633,597.557,cs),
(434.266,641.69,o),
(373.362,663.756,o),
(303.633,663.756,cs),
(291.276,663.756,ls),
(141.225,663.756,o),
(52.959,567.546,o),
(52.959,409.552,cs),
(52.959,249.791,ls),
(52.959,92.679,o),
(141.225,-4.413,o),
(291.276,-4.413,cs),
(303.633,-4.413,ls),
(440.445,-4.413,o),
(514.587,82.087,o),
(514.587,203.893,cs),
(514.587,342.47,ls),
(514.587,376.893,o),
(496.052,395.429,o),
(461.628,395.429,cs),
(240.082,395.429,ls),
(210.955,395.429,o),
(187.123,371.597,o),
(187.123,342.47,cs),
(187.123,313.342,o),
(210.955,289.51,o),
(240.082,289.51,cs)
);
},
{
closed = 1;
nodes = (
(461.628,151.817,ls),
(490.755,151.817,o),
(514.587,175.648,o),
(514.587,204.776,cs),
(514.587,233.903,o),
(490.755,257.735,o),
(461.628,257.735,cs),
(240.082,257.735,ls),
(210.955,257.735,o),
(187.123,233.903,o),
(187.123,204.776,cs),
(187.123,175.648,o),
(210.955,151.817,o),
(240.082,151.817,cs)
);
}
);
width = 563.13325;
}
);
note = G;
unicode = 71;
},
{
glyphname = H;
kernLeft = H;
kernRight = H;
lastChange = "2024-12-12 09:14:51 +0000";
layers = (
{
anchors = (
{
name = bottom;
pos = (256.852,0);
},
{
name = center;
pos = (256.852,330.113);
},
{
name = top;
pos = (256.852,659.343);
},
{
name = topleft;
pos = (59.138,659.343);
}
);
layerId = m002;
shapes = (
{
closed = 1;
nodes = (
(61.786,52.959,ls),
(61.786,23.832,o),
(85.618,0,o),
(114.745,0,cs),
(143.872,0,o),
(167.704,23.832,o),
(167.704,52.959,cs),
(167.704,606.383,ls),
(167.704,635.511,o),
(143.872,659.343,o),
(114.745,659.343,cs),
(85.618,659.343,o),
(61.786,635.511,o),
(61.786,606.383,cs)
);
},
{
closed = 1;
nodes = (
(346,52.959,ls),
(346,23.832,o),
(369.832,0,o),
(398.96,0,cs),
(428.97,0,o),
(451.919,23.832,o),
(451.919,52.959,cs),
(451.919,606.383,ls),
(451.919,635.511,o),
(428.97,659.343,o),
(398.96,659.343,cs),
(369.832,659.343,o),
(346,635.511,o),
(346,606.383,cs)
);
},
{
closed = 1;
nodes = (
(114.745,396.312,ls),
(85.618,396.312,o),
(61.786,372.48,o),
(61.786,343.353,cs),
(61.786,314.225,o),
(85.618,290.393,o),
(114.745,290.393,cs),
(398.96,290.393,ls),
(428.97,290.393,o),
(451.919,314.225,o),
(451.919,343.353,cs),
(451.919,372.48,o),
(428.97,396.312,o),
(398.96,396.312,cs)
);
},
{
closed = 1;
nodes = (
(114.745,251.556,ls),
(85.618,251.556,o),
(61.786,228.608,o),
(61.786,198.597,cs),
(61.786,169.47,o),
(85.618,145.638,o),
(114.745,145.638,cs),
(398.96,145.638,ls),
(428.97,145.638,o),
(451.919,169.47,o),
(451.919,198.597,cs),
(451.919,228.608,o),
(428.97,251.556,o),
(398.96,251.556,cs)
);
}
);
width = 514.05769;
},
{
anchors = (
{
name = bottom;
pos = (205.658,-4.413);
},
{
name = center;
pos = (205.658,330.113);
},
{
name = top;
pos = (205.658,664.638);
},
{
name = topleft;
pos = (18.535,664.638);
}
);
background = {
hints = (
{
horizontal = 1;
place = (234.786,21.184);
type = Stem;
},
{
horizontal = 1;
place = (326.582,21.184);
type = Stem;
},
{
place = (54.725,21.184);
type = Stem;
},
{
place = (328.347,21.184);
type = Stem;
}
);
shapes = (
{
closed = 1;
nodes = (
(82.087,234.786,l),
(334.526,234.786,l),
(334.526,13.24,ls),
(334.526,7.061,o),
(338.939,1.765,o),
(345.117,1.765,cs),
(351.296,1.765,o),
(355.709,7.061,o),
(355.709,13.24,cs),
(355.709,648.751,ls),
(355.709,654.929,o),
(351.296,660.225,o),
(345.117,660.225,cs),
(338.939,660.225,o),
(334.526,654.929,o),
(334.526,648.751,cs),
(334.526,347.766,l),
(82.087,347.766,l),
(82.087,648.751,ls),
(82.087,654.929,o),
(77.673,660.225,o),
(71.495,660.225,cs),
(65.317,660.225,o),
(60.903,654.929,o),
(60.903,648.751,cs),
(60.903,13.24,ls),
(60.903,7.061,o),
(65.317,1.765,o),
(71.495,1.765,cs),
(77.673,1.765,o),
(82.087,7.061,o),
(82.087,13.24,cs)
);
},
{
closed = 1;
nodes = (
(82.087,255.97,l),
(82.087,326.582,l),
(334.526,326.582,l),
(334.526,255.97,l)
);
}
);
};
guides = (
{
pos = (1,5);
},
{
pos = (1,742);
}
);
layerId = m01;
name = Thin;
shapes = (
{
closed = 1;
nodes = (
(61.786,8.827,ls),
(61.786,3.531,o),
(65.317,0,o),
(70.612,0,cs),
(75.908,0,o),
(79.439,3.531,o),
(79.439,8.827,cs),
(79.439,650.516,ls),
(79.439,655.812,o),
(75.908,659.343,o),
(70.612,659.343,cs),
(65.317,659.343,o),
(61.786,655.812,o),
(61.786,650.516,cs)
);
},
{
closed = 1;
nodes = (
(331.878,8.827,ls),
(331.878,3.531,o),
(335.409,0,o),
(340.704,0,cs),
(346,0,o),
(349.531,3.531,o),
(349.531,8.827,cs),
(349.531,650.516,ls),
(349.531,655.812,o),
(346,659.343,o),
(340.704,659.343,cs),
(335.409,659.343,o),
(331.878,655.812,o),
(331.878,650.516,cs)
);
},
{
closed = 1;
nodes = (
(70.612,349.531,ls),
(65.317,349.531,o),
(61.786,346,o),
(61.786,340.704,cs),
(61.786,335.409,o),
(65.317,331.878,o),
(70.612,331.878,cs),
(340.704,331.878,ls),
(346,331.878,o),
(349.531,335.409,o),
(349.531,340.704,cs),
(349.531,346,o),
(346,349.531,o),
(340.704,349.531,cs)
);
},
{
closed = 1;
nodes = (
(70.612,226.842,ls),
(65.317,226.842,o),
(61.786,223.311,o),
(61.786,218.016,cs),
(61.786,212.719,o),
(65.317,209.189,o),
(70.612,209.189,cs),
(340.704,209.189,ls),
(346,209.189,o),
(349.531,212.719,o),
(349.531,218.016,cs),
(349.531,223.311,o),
(346,226.842,o),
(340.704,226.842,cs)
);
}
);
width = 411.31676;
}
);
note = H;
unicode = 72;
},
{
glyphname = Hbar;
kernLeft = H;
lastChange = "2024-12-12 09:14:51 +0000";
layers = (
{
layerId = m01;
shapes = (
{
pos = (37.954,0);
ref = H;
},
{
closed = 1;
nodes = (
(70.612,467.807,ls),
(65.317,467.807,o),
(61.786,464.276,o),
(61.786,458.98,cs),
(61.786,453.684,o),
(65.317,450.154,o),
(70.612,450.154,cs),
(414.847,450.154,ls),
(420.143,450.154,o),
(423.674,453.684,o),
(423.674,458.98,cs),
(423.674,464.276,o),
(420.143,467.807,o),
(414.847,467.807,cs)
);
}
);
width = 450.15354;
},
{
layerId = m002;
shapes = (
{
pos = (68.847,0);
ref = H;
},
{
closed = 1;
nodes = (
(114.745,551.659,ls),
(85.618,551.659,o),
(61.786,527.827,o),
(61.786,498.7,cs),
(61.786,469.572,o),
(85.618,445.74,o),
(114.745,445.74,cs),
(535.771,445.74,ls),
(564.899,445.74,o),
(588.73,469.572,o),
(588.73,498.7,cs),
(588.73,527.827,o),
(564.899,551.659,o),
(535.771,551.659,cs)
);
}
);
width = 615.20984;
}
);
unicode = 294;
},
{
glyphname = I;
kernLeft = I;
kernRight = I;
lastChange = "2024-12-12 09:14:51 +0000";
layers = (
{
anchors = (
{
name = bottom;
pos = (70.612,-4.413);
},
{
name = ogonek;
pos = (75.908,6.179);
},
{
name = top;
pos = (70.612,664.638);
},
{
name = topleft;
pos = (18.535,664.638);
}
);
background = {
hints = (
{
horizontal = 1;
place = (1.765,658.46);
type = Stem;
},
{
place = (54.725,21.184);
type = Stem;
}
);
shapes = (
{
closed = 1;
nodes = (
(82.087,648.751,ls),
(82.087,654.929,o),
(77.673,660.225,o),
(71.495,660.225,cs),
(65.317,660.225,o),
(60.903,654.929,o),
(60.903,648.751,cs),
(60.903,13.24,ls),
(60.903,7.061,o),
(65.317,1.765,o),
(71.495,1.765,cs),
(77.673,1.765,o),
(82.087,7.061,o),
(82.087,13.24,cs)
);
}
);
};
layerId = m01;
shapes = (
{
closed = 1;
nodes = (
(61.786,8.827,ls),
(61.786,3.531,o),
(65.317,0,o),
(70.612,0,cs),
(75.908,0,o),
(79.439,3.531,o),
(79.439,8.827,cs),
(79.439,650.516,ls),
(79.439,655.812,o),
(75.908,659.343,o),
(70.612,659.343,cs),
(65.317,659.343,o),
(61.786,655.812,o),
(61.786,650.516,cs)
);
}
);
width = 141.22464;
},
{
anchors = (
{
name = bottom;
pos = (114.745,0);
},
{
name = ogonek;
pos = (113.863,48.546);
},
{
name = top;
pos = (114.745,659.343);
},
{
name = topleft;
pos = (58.255,659.343);
}
);
layerId = m002;
shapes = (
{
closed = 1;
nodes = (
(61.786,52.959,ls),
(61.786,23.832,o),
(85.618,0,o),
(114.745,0,cs),
(143.872,0,o),
(167.704,23.832,o),
(167.704,52.959,cs),
(167.704,606.383,ls),
(167.704,635.511,o),
(143.872,659.343,o),
(114.745,659.343,cs),
(85.618,659.343,o),
(61.786,635.511,o),
(61.786,606.383,cs)
);
}
);
width = 229.49004;
}
);
note = I;
unicode = 73;
},
{
glyphname = J;
kernLeft = J;
kernRight = J;
lastChange = "2024-12-12 09:14:51 +0000";
layers = (
{
anchors = (
{
name = bottom;
pos = (203.01,-4.413);
},
{
name = top;
pos = (203.01,664.638);
}
);
background = {
hints = (
{
horizontal = 1;
place = (1.765,22.949);
type = Stem;
},
{
horizontal = 1;
place = (637.276,22.949);
type = Stem;
},
{
place = (233.021,21.184);
type = Stem;
},
{
place = (300.985,22.066);
type = Stem;
}
);
shapes = (
{
closed = 1;
nodes = (
(325.814,648.751,ls),
(325.814,654.929,o),
(320.518,660.225,o),
(314.34,660.225,cs),
(149.283,660.225,ls),
(143.105,660.225,o),
(137.809,654.929,o),
(137.809,648.751,cs),
(137.809,642.572,o),
(143.105,637.276,o),
(149.283,637.276,cs),
(235.783,637.276,l),
(235.783,45.898,l),
(212.835,31.775,o),
(188.12,24.714,o),
(155.462,24.714,cs),
(117.507,24.714,o),
(83.967,34.424,o),
(53.957,60.903,c),
(41.6,74.143,ls),
(38.069,78.557,o),
(31.008,79.439,o),
(26.594,75.908,cs),
(21.299,71.495,o),
(21.299,64.434,o),
(24.829,60.02,cs),
(29.242,54.725,o),
(34.538,49.428,o),
(39.834,45.015,cs),
(73.375,14.122,o),
(112.212,1.765,o),
(155.462,1.765,cs),
(198.712,1.765,o),
(236.666,14.122,o),
(271.09,45.015,cs),
(301.982,73.26,o),
(321.401,113.863,o),
(324.931,155.347,cs),
(324.931,159.76,o),
(325.814,164.173,o),
(325.814,167.704,cs)
);
},
{
closed = 1;
nodes = (
(256.967,637.276,l),
(303.748,637.276,l),
(303.748,167.704,ls),
(303.748,164.173,o),
(302.865,160.643,o),
(302.865,157.112,cs),
(300.217,121.806,o),
(283.447,86.5,o),
(256.967,62.668,c)
);
}
);
};
layerId = m01;
shapes = (
{
closed = 1;
nodes = (
(327.464,641.69,l),
(327.464,236.551,ls),
(327.464,90.913,o),
(269.209,13.24,o),
(162.409,13.24,cs),
(150.051,13.24,ls),
(93.561,13.24,o),
(55.607,35.306,o),
(33.541,76.791,c),
(32.658,79.439,o),
(30.011,81.204,o),
(26.48,81.204,cs),
(21.184,81.204,o),
(17.653,76.791,o),
(17.653,72.378,cs),
(17.653,70.612,o),
(17.653,68.847,o),
(18.535,67.965,cs),
(43.25,22.949,o),
(87.383,-4.413,o),
(150.051,-4.413,cs),
(162.409,-4.413,ls),
(278.918,-4.413,o),
(345.117,83.852,o),
(345.117,236.551,cs),
(345.117,644.337,ls),
(345.117,654.046,o),
(339.822,659.343,o),
(330.113,659.343,cs),
(141.225,659.343,ls),
(135.929,659.343,o),
(132.398,655.812,o),
(132.398,650.516,cs),
(132.398,645.22,o),
(135.929,641.69,o),
(141.225,641.69,cs)
);
},
{
closed = 1;
nodes = (
(249.791,650.516,ls),
(249.791,655.812,o),
(246.261,659.343,o),
(240.964,659.343,cs),
(235.669,659.343,o),
(233.021,655.812,o),
(233.021,650.516,cs),
(233.021,23.832,ls),
(233.021,18.535,o),
(235.669,15.005,o),
(240.964,15.005,cs),
(246.261,15.005,o),
(249.791,18.535,o),
(249.791,23.832,cs)
);
}
);
width = 407.01824;
},
{
anchors = (
{
name = bottom;
pos = (258.617,0);
},
{
name = top;
pos = (258.617,659.343);
}
);
layerId = m002;
shapes = (
{
closed = 1;
nodes = (
(346.883,553.424,l),
(346.883,249.791,ls),
(346.883,141.225,o),
(310.694,101.505,o),
(214.485,101.505,cs),
(202.128,101.505,ls),
(150.934,101.505,o),
(131.516,111.214,o),
(114.745,136.811,cs),
(105.036,150.934,o),
(89.148,160.643,o),
(70.612,160.643,cs),
(41.485,160.643,o),
(17.653,136.811,o),
(17.653,107.684,cs),
(17.653,97.092,o),
(21.184,86.5,o),
(26.48,78.557,cs),
(61.786,26.48,o),
(121.806,-4.413,o),
(202.128,-4.413,cs),
(214.485,-4.413,ls),
(364.536,-4.413,o),
(452.801,92.679,o),
(452.801,249.791,cs),
(452.801,606.383,ls),
(452.801,640.806,o),
(434.266,659.343,o),
(399.842,659.343,cs),
(152.699,659.343,ls),
(123.572,659.343,o),
(99.74,635.511,o),
(99.74,606.383,cs),
(99.74,577.256,o),
(123.572,553.424,o),
(152.699,553.424,cs)
);
},
{
closed = 1;
nodes = (
(312.46,606.383,ls),
(312.46,635.511,o),
(288.628,659.343,o),
(259.501,659.343,cs),
(230.372,659.343,o),
(206.541,635.511,o),
(206.541,606.383,cs),
(206.541,65.317,ls),
(206.541,36.189,o),
(230.372,12.357,o),
(259.501,12.357,cs),
(288.628,12.357,o),
(312.46,36.189,o),
(312.46,65.317,cs)
);
}
);
width = 514.58728;
}
);
note = J;
unicode = 74;
},
{
glyphname = K;
kernLeft = H;
kernRight = K;
lastChange = "2024-12-12 09:14:51 +0000";
layers = (
{
anchors = (
{
name = bottom;
pos = (192.418,-4.413);
},
{
name = top;
pos = (192.418,664.638);
}
);
background = {
hints = (
{
horizontal = 1;
place = (659.563,-20);
target = down;
type = TopGhost;
},
{
place = (54.725,21.184);
type = Stem;
},
{
place = (239.199,21.184);
type = Stem;
}
);
shapes = (
{
closed = 1;
nodes = (
(82.087,303.633,l),
(111.214,343.353,l),
(245.378,6.179,ls),
(248.025,0.882,o),
(254.204,-1.765,o),
(260.383,0,cs),
(265.679,2.648,o),
(268.327,8.827,o),
(266.562,15.005,c),
(126.219,365.419,l),
(158.878,411.316,l),
(321.286,8.827,ls),
(323.934,3.531,o),
(330.113,0.882,o),
(335.409,2.648,cs),
(341.587,5.296,o),
(344.235,11.474,o),
(341.587,17.653,cs),
(174.765,432.5,l),
(323.934,642.572,ls),
(327.464,646.985,o),
(326.582,654.046,o),
(321.286,657.577,cs),
(316.873,661.108,o),
(309.811,660.225,o),
(306.281,654.929,cs),
(82.087,341.587,l),
(82.087,648.751,ls),
(82.087,654.929,o),
(77.673,660.225,o),
(71.495,660.225,cs),
(65.317,660.225,o),
(60.903,654.929,o),
(60.903,648.751,cs),
(60.903,13.24,ls),
(60.903,7.061,o),
(65.317,1.765,o),
(71.495,1.765,cs),
(77.673,1.765,o),
(82.087,7.061,o),
(82.087,13.24,cs)
);
}
);
};
layerId = m01;
shapes = (
{
closed = 1;
nodes = (
(79.439,650.516,ls),
(79.439,655.812,o),
(75.908,659.343,o),
(70.612,659.343,cs),
(65.317,659.343,o),
(61.786,655.812,o),
(61.786,650.516,cs),
(61.786,8.827,ls),
(61.786,3.531,o),
(65.317,0,o),
(70.612,0,cs),
(75.908,0,o),
(79.439,3.531,o),
(79.439,8.827,cs)
);
},
{
closed = 1;
nodes = (
(323.934,645.22,ls),
(324.817,646.985,o),
(325.7,648.751,o),
(325.7,650.516,cs),
(325.7,655.812,o),
(322.169,659.343,o),
(316.873,659.343,cs),
(314.225,659.343,o),
(311.577,657.577,o),
(309.811,655.812,cs),
(63.551,315.99,ls),
(62.668,314.225,o),
(61.786,312.46,o),
(61.786,310.694,cs),
(61.786,305.398,o),
(65.317,301.868,o),
(70.612,301.868,cs),
(73.26,301.868,o),
(75.908,303.633,o),
(77.673,305.398,c)
);
},
{
closed = 1;
nodes = (
(323.934,5.296,ls),
(324.817,2.648,o),
(328.347,0,o),
(331.878,0,cs),
(337.174,0,o),
(340.704,3.531,o),
(340.704,8.827,cs),
(340.704,9.709,o),
(340.704,11.474,o),
(339.822,12.357,cs),
(165.939,434.266,ls),
(165.056,436.031,o),
(161.526,438.679,o),
(157.995,438.679,cs),
(152.699,438.679,o),
(149.169,435.148,o),
(149.169,430.735,cs),
(149.169,429.853,o),
(149.169,428.087,o),
(150.051,427.205,cs)
);
},
{
closed = 1;
nodes = (
(251.556,5.296,ls),
(252.439,2.648,o),
(255.97,0,o),
(259.501,0,cs),
(264.796,0,o),
(268.327,3.531,o),
(268.327,8.827,cs),
(268.327,9.709,o),
(268.327,11.474,o),
(267.444,12.357,cs),
(119.158,368.067,ls),
(118.276,369.832,o),
(114.745,372.48,o),
(111.214,372.48,cs),
(106.801,372.48,o),
(102.388,368.95,o),
(102.388,364.536,cs),
(102.388,362.77,o),
(103.271,361.888,o),
(103.271,361.006,cs)
);
}
);
width = 358.22513;
},
{
anchors = (
{
name = bottom;
pos = (244.495,0);
},
{
name = top;
pos = (244.495,659.343);
}
);
layerId = m002;
shapes = (
{
closed = 1;
nodes = (
(167.704,606.383,ls),
(167.704,635.511,o),
(143.872,659.343,o),
(114.745,659.343,cs),
(85.618,659.343,o),
(61.786,635.511,o),
(61.786,606.383,cs),
(61.786,52.077,ls),
(61.786,22.949,o),
(85.618,-0.882,o),
(114.745,-0.882,cs),
(143.872,-0.882,o),
(167.704,22.949,o),
(167.704,52.077,cs)
);
},
{
closed = 1;
nodes = (
(416.613,571.077,ls),
(424.556,580.786,o),
(429.853,593.144,o),
(429.853,606.383,cs),
(429.853,635.511,o),
(406.021,659.343,o),
(376.893,659.343,cs),
(361.006,659.343,o),
(346.883,652.282,o),
(337.174,641.69,cs),
(75.026,347.766,ls),
(67.081,338.056,o),
(61.786,325.7,o),
(61.786,312.46,cs),
(61.786,283.332,o),
(85.618,259.501,o),
(114.745,259.501,cs),
(130.633,259.501,o),
(144.756,266.562,o),
(154.464,277.154,cs)
);
},
{
closed = 1;
nodes = (
(425.439,28.245,ls),
(434.266,10.592,o),
(451.919,-0.882,o),
(472.22,-0.882,cs),
(501.347,-0.882,o),
(525.179,22.949,o),
(525.179,52.077,cs),
(525.179,60.903,o),
(522.531,68.847,o),
(519,75.908,cs),
(315.108,474.868,ls),
(306.281,491.638,o),
(288.628,503.995,o),
(268.327,503.995,cs),
(239.199,503.995,o),
(215.368,480.164,o),
(215.368,451.036,cs),
(215.368,442.209,o),
(217.133,434.266,o),
(221.546,427.205,c)
);
},
{
closed = 1;
nodes = (
(269.209,27.362,ls),
(278.036,10.592,o),
(295.689,-0.882,o),
(315.99,-0.882,cs),
(345.117,-0.882,o),
(368.95,22.949,o),
(368.95,52.077,cs),
(368.95,60.903,o),
(367.184,68.847,o),
(362.77,76.791,cs),
(204.776,383.072,ls),
(195.949,399.842,o),
(178.296,411.316,o),
(157.995,411.316,cs),
(128.867,411.316,o),
(105.036,387.485,o),
(105.036,358.357,cs),
(105.036,349.531,o),
(106.801,341.587,o),
(111.214,333.643,cs)
);
}
);
width = 542.83221;
}
);
note = K;
unicode = 75;
},
{
glyphname = L;
kernLeft = H;
kernRight = L;
lastChange = "2024-12-12 09:14:51 +0000";
layers = (
{
anchors = (
{
name = bottom;
pos = (210.955,-4.413);
},
{
name = center;
pos = (174.765,330.113);
},
{
name = top;
pos = (174.765,664.638);
},
{
name = topright;
pos = (331.878,664.638);
}
);
background = {
hints = (
{
horizontal = 1;
place = (1.765,22.949);
type = Stem;
},
{
horizontal = 1;
place = (111.214,21.184);
type = Stem;
},
{
place = (54.725,21.184);
type = Stem;
}
);
shapes = (
{
closed = 1;
nodes = (
(82.087,24.714,l),
(82.087,111.214,l),
(320.403,111.214,ls),
(326.582,111.214,o),
(330.995,115.627,o),
(330.995,121.806,cs),
(330.995,127.985,o),
(326.582,132.398,o),
(320.403,132.398,cs),
(82.087,132.398,l),
(82.087,648.751,ls),
(82.087,654.929,o),
(77.673,660.225,o),
(71.495,660.225,cs),
(65.317,660.225,o),
(60.903,654.929,o),
(60.903,648.751,cs),
(60.903,13.24,ls),
(60.903,7.061,o),
(65.317,1.765,o),
(71.495,1.765,cs),
(321.286,1.765,ls),
(327.464,1.765,o),
(332.761,7.061,o),
(332.761,13.24,cs),
(332.761,19.419,o),
(327.464,24.714,o),
(321.286,24.714,cs)
);
}
);
};
layerId = m01;
shapes = (
{
closed = 1;
nodes = (
(79.439,17.653,l),
(79.439,650.516,ls),
(79.439,655.812,o),
(75.908,659.343,o),
(70.612,659.343,cs),
(65.317,659.343,o),
(61.786,655.812,o),
(61.786,650.516,cs),
(61.786,15.005,ls),
(61.786,5.296,o),
(67.081,0,o),
(76.791,0,cs),
(323.051,0,ls),
(328.347,0,o),
(331.878,3.531,o),
(331.878,8.827,cs),
(331.878,14.122,o),
(328.347,17.653,o),
(323.051,17.653,cs)
);
},
{
closed = 1;
nodes = (
(70.612,127.102,ls),
(65.317,127.102,o),
(61.786,123.572,o),
(61.786,118.276,cs),
(61.786,112.98,o),
(65.317,109.449,o),
(70.612,109.449,cs),
(323.051,109.449,ls),
(328.347,109.449,o),
(331.878,112.98,o),
(331.878,118.276,cs),
(331.878,123.572,o),
(328.347,127.102,o),
(323.051,127.102,cs)
);
}
);
width = 349.53098;
},
{
anchors = (
{
name = bottom;
pos = (210.955,-4.413);
},
{
name = center;
pos = (225.959,330.113);
},
{
name = top;
pos = (225.959,659.343);
},
{
name = topright;
pos = (393.663,659.343);
}
);
layerId = m002;
shapes = (
{
closed = 1;
nodes = (
(167.704,105.918,l),
(167.704,606.383,ls),
(167.704,635.511,o),
(143.872,659.343,o),
(114.745,659.343,cs),
(85.618,659.343,o),
(61.786,635.511,o),
(61.786,606.383,cs),
(61.786,52.959,ls),
(61.786,18.535,o),
(80.321,0,o),
(114.745,0,cs),
(383.954,0,ls),
(413.082,0,o),
(436.914,23.832,o),
(436.914,52.959,cs),
(436.914,82.087,o),
(413.082,105.918,o),
(383.954,105.918,cs)
);
},
{
closed = 1;
nodes = (
(114.745,253.322,ls),
(85.618,253.322,o),
(61.786,229.49,o),
(61.786,200.363,cs),
(61.786,171.235,o),
(85.618,147.403,o),
(114.745,147.403,cs),
(383.954,147.403,ls),
(413.082,147.403,o),
(436.914,171.235,o),
(436.914,200.363,cs),
(436.914,229.49,o),
(413.082,253.322,o),
(383.954,253.322,cs)
);
}
);
width = 454.56681;
}
);
note = L;
unicode = 76;
},
{
glyphname = Lslash;
kernRight = L;
lastChange = "2024-12-12 09:14:51 +0000";
layers = (
{
layerId = m01;
shapes = (
{
ref = L;
},
{
closed = 1;
nodes = (
(286.863,397.194,ls),
(288.628,398.96,o),
(289.51,401.608,o),
(289.51,404.255,cs),
(289.51,409.552,o),
(285.98,413.082,o),
(280.684,413.082,cs),
(278.918,413.082,o),
(276.271,412.2,o),
(274.505,411.316,cs),
(21.184,192.418,ls),
(19.419,190.653,o),
(18.535,188.005,o),
(18.535,185.357,cs),
(18.535,180.062,o),
(22.066,176.531,o),
(27.362,176.531,cs),
(30.011,176.531,o),
(31.775,177.413,o),
(33.541,178.296,cs)
);
}
);
width = 348.64833;
},
{
layerId = m002;
shapes = (
{
ref = L;
},
{
closed = 1;
nodes = (
(315.108,364.536,ls),
(326.582,374.246,o),
(333.643,388.368,o),
(333.643,404.255,cs),
(333.643,433.383,o),
(309.811,457.215,o),
(280.684,457.215,cs),
(267.445,457.215,o),
(255.087,451.919,o),
(246.261,443.975,cs),
(-7.061,225.077,ls),
(-18.535,215.368,o),
(-25.597,201.245,o),
(-25.597,185.357,cs),
(-25.597,156.23,o),
(-1.765,132.398,o),
(27.362,132.398,cs),
(40.601,132.398,o),
(52.959,137.694,o),
(61.786,145.638,cs)
);
}
);
width = 458.09743;
}
);
unicode = 321;
},
{
glyphname = M;
kernLeft = H;
kernRight = H;
lastChange = "2024-12-12 09:14:51 +0000";
layers = (
{
anchors = (
{
name = bottom;
pos = (234.786,-4.413);
},
{
name = top;
pos = (234.786,664.638);
}
);
background = {
hints = (
{
horizontal = 1;
place = (659.343,-20);
target = down;
type = TopGhost;
},
{
place = (54.725,22.066);
type = Stem;
},
{
place = (220.664,22.949);
type = Stem;
},
{
place = (386.602,22.066);
type = Stem;
}
);
shapes = (
{
closed = 1;
nodes = (
(249.791,292.158,l),
(392.781,599.322,l),
(392.781,13.24,ls),
(392.781,7.061,o),
(397.194,1.765,o),
(403.373,1.765,cs),
(409.552,1.765,o),
(414.847,7.061,o),
(414.847,13.24,cs),
(414.847,648.751,ls),
(414.847,654.046,o),
(411.316,658.46,o),
(406.021,659.343,cs),
(400.725,661.108,o),
(396.312,658.46,o),
(393.663,653.164,cs),
(237.434,319.521,l),
(82.087,653.164,ls),
(79.439,658.46,o),
(74.143,661.108,o),
(68.847,659.343,cs),
(64.434,658.46,o),
(60.903,654.046,o),
(60.903,648.751,cs),
(60.903,13.24,ls),
(60.903,7.061,o),
(65.317,1.765,o),
(71.495,1.765,cs),
(77.673,1.765,o),
(82.97,7.061,o),
(82.97,13.24,cs),
(82.97,599.322,l),
(226.842,289.51,l),
(226.842,10.592,ls),
(226.842,4.413,o),
(232.138,0,o),
(238.317,0,cs),
(244.495,0,o),
(249.791,4.413,o),
(249.791,10.592,cs)
);
}
);
};
layerId = m01;
shapes = (
{
closed = 1;
nodes = (
(61.786,8.827,ls),
(61.786,3.531,o),
(65.317,0,o),
(70.612,0,cs),
(75.908,0,o),
(79.439,3.531,o),
(79.439,8.827,cs),
(79.439,637.276,ls),
(79.439,642.572,o),
(75.908,659.343,o),
(70.612,659.343,cs),
(65.317,659.343,o),
(61.786,655.812,o),
(61.786,650.516,cs)
);
},
{
closed = 1;
nodes = (
(242.73,299.22,ls),
(242.73,303.633,o),
(239.199,307.163,o),
(234.786,307.163,cs),
(229.49,307.163,o),
(225.959,303.633,o),
(225.959,299.22,cs),
(225.959,8.827,ls),
(225.959,3.531,o),
(229.49,0,o),
(234.786,0,cs),
(239.199,0,o),
(242.73,3.531,o),
(242.73,8.827,cs)
);
},
{
closed = 1;
nodes = (
(406.903,650.516,ls),
(406.903,655.812,o),
(403.373,659.343,o),
(398.077,659.343,cs),
(392.781,659.343,o),
(389.25,642.572,o),
(389.25,637.276,cs),
(389.25,8.827,ls),
(389.25,3.531,o),
(392.781,0,o),
(398.077,0,cs),
(403.373,0,o),
(406.903,3.531,o),
(406.903,8.827,cs)
);
},
{
closed = 1;
nodes = (
(234.786,319.521,l),
(78.557,654.046,ls),
(76.791,657.577,o),
(74.143,659.343,o),
(70.612,659.343,cs),
(65.317,659.343,o),
(62.668,654.929,o),
(62.668,650.516,cs),
(62.668,649.633,o),
(61.786,647.868,o),
(62.668,646.985,cs),
(234.786,278.036,l),
(406.021,646.985,ls),
(406.903,647.868,o),
(406.021,649.633,o),
(406.021,650.516,cs),
(406.021,654.929,o),
(403.373,659.343,o),
(398.077,659.343,cs),
(394.546,659.343,o),
(391.016,657.577,o),
(390.133,654.046,cs)
);
}
);
width = 468.68927;
},
{
anchors = (
{
name = bottom;
pos = (289.51,0);
},
{
name = top;
pos = (289.51,659.343);
}
);
layerId = m002;
shapes = (
{
closed = 1;
nodes = (
(61.786,52.959,ls),
(61.786,23.832,o),
(85.618,0,o),
(114.745,0,cs),
(143.872,0,o),
(167.704,23.832,o),
(167.704,52.959,cs),
(167.704,606.383,ls),
(167.704,635.511,o),
(143.872,659.343,o),
(114.745,659.343,cs),
(85.618,659.343,o),
(61.786,635.511,o),
(61.786,606.383,cs)
);
},
{
closed = 1;
nodes = (
(341.587,302.75,ls),
(341.587,331.878,o),
(317.755,355.709,o),
(288.628,355.709,cs),
(259.501,355.709,o),
(235.669,331.878,o),
(235.669,302.75,cs),
(235.669,52.959,ls),
(235.669,23.832,o),
(259.501,0,o),
(288.628,0,cs),
(317.755,0,o),
(341.587,23.832,o),
(341.587,52.959,cs)
);
},
{
closed = 1;
nodes = (
(516.353,606.383,ls),
(516.353,635.511,o),
(492.521,659.343,o),
(463.393,659.343,cs),
(434.266,659.343,o),
(410.434,635.511,o),
(410.434,606.383,cs),
(410.434,52.959,ls),
(410.434,23.832,o),
(434.266,0,o),
(463.393,0,cs),
(492.521,0,o),
(516.353,23.832,o),
(516.353,52.959,cs)
);
},
{
closed = 1;
nodes = (
(288.628,409.552,l),
(160.643,632.863,ls),
(151.817,648.751,o),
(134.164,659.343,o),
(114.745,659.343,cs),
(85.618,659.343,o),
(61.786,635.511,o),
(61.786,606.383,cs),
(61.786,596.674,o),
(64.434,587.847,o),
(68.847,579.904,cs),
(288.628,195.949,l),
(509.292,579.904,ls),
(513.705,587.847,o),
(516.353,596.674,o),
(516.353,606.383,cs),
(516.353,635.511,o),
(492.521,659.343,o),
(463.393,659.343,cs),
(443.975,659.343,o),
(426.322,648.751,o),
(417.495,632.863,cs)
);
}
);
width = 578.13837;
}
);
note = M;
unicode = 77;
},
{
glyphname = N;
kernLeft = H;
kernRight = H;
lastChange = "2024-12-12 09:14:51 +0000";
layers = (
{
anchors = (
{
name = bottom;
pos = (198.597,-4.413);
},
{
name = top;
pos = (198.597,664.638);
}
);
background = {
hints = (
{
horizontal = 1;
place = (659.343,-20);
target = down;
type = TopGhost;
},
{
place = (54.725,21.184);
type = Stem;
},
{
place = (237.434,19.419);
type = Stem;
},
{
place = (312.46,22.949);
type = Stem;
}
);
shapes = (
{
closed = 1;
nodes = (
(341.508,648.751,ls),
(341.508,654.929,o),
(336.212,660.225,o),
(330.033,660.225,cs),
(323.855,660.225,o),
(318.558,654.929,o),
(318.558,648.751,cs),
(318.558,69.73,l),
(82.007,653.164,ls),
(79.36,658.46,o),
(74.946,660.225,o),
(69.65,659.343,cs),
(63.472,658.46,o),
(60.823,654.046,o),
(60.823,648.751,cs),
(60.823,13.24,ls),
(60.823,7.061,o),
(65.237,1.765,o),
(71.415,1.765,cs),
(77.594,1.765,o),
(82.007,7.061,o),
(82.007,13.24,cs),
(82.007,376.893,l),
(243.533,7.944,ls),
(245.298,2.648,o),
(252.359,0,o),
(257.656,2.648,cs),
(262.951,4.413,o),
(265.599,11.474,o),
(262.951,16.771,cs),
(84.655,426.322,l),
(84.655,428.087,o),
(83.773,428.97,o),
(82.007,429.853,c),
(82.007,592.261,l),
(319.442,8.827,ls),
(322.089,3.531,o),
(326.503,1.765,o),
(331.798,2.648,cs),
(337.977,3.531,o),
(341.508,7.944,o),
(341.508,13.24,cs)
);
}
);
};
layerId = m01;
shapes = (
{
closed = 1;
nodes = (
(61.786,8.827,ls),
(61.786,3.531,o),
(65.317,0,o),
(70.612,0,cs),
(75.908,0,o),
(79.439,3.531,o),
(79.439,8.827,cs),
(79.439,650.516,ls),
(79.439,655.812,o),
(75.908,659.343,o),
(70.612,659.343,cs),
(65.317,659.343,o),
(61.786,655.812,o),
(61.786,650.516,cs)
);
},
{
closed = 1;
nodes = (
(78.557,401.608,ls),
(77.673,404.255,o),
(74.143,406.903,o),
(70.612,406.903,cs),
(66.199,406.903,o),
(61.786,403.373,o),
(61.786,398.96,cs),
(61.786,397.194,o),
(62.668,396.312,o),
(62.668,394.546,cs),
(222.429,5.296,ls),
(223.311,2.648,o),
(226.842,0,o),
(230.372,0,cs),
(234.786,0,o),
(238.317,3.531,o),
(238.317,8.827,cs),
(238.317,9.709,o),
(238.317,11.474,o),
(237.434,12.357,cs)
);
},
{
closed = 1;
nodes = (
(316.873,8.827,ls),
(316.873,3.531,o),
(320.403,0,o),
(325.7,0,cs),
(330.995,0,o),
(334.526,3.531,o),
(334.526,8.827,cs),
(334.526,650.516,ls),
(334.526,655.812,o),
(330.995,659.343,o),
(325.7,659.343,cs),
(320.403,659.343,o),
(316.873,655.812,o),
(316.873,650.516,cs)
);
},
{
closed = 1;
nodes = (
(78.557,654.046,ls),
(77.673,656.695,o),
(74.143,659.343,o),
(70.612,659.343,cs),
(65.317,659.343,o),
(61.786,655.812,o),
(61.786,650.516,cs),
(61.786,649.633,o),
(62.668,647.868,o),
(62.668,646.985,cs),
(317.755,5.296,ls),
(318.638,2.648,o),
(322.169,0,o),
(325.7,0,cs),
(330.995,0,o),
(334.526,3.531,o),
(334.526,8.827,cs),
(334.526,9.709,o),
(333.643,11.474,o),
(333.643,12.357,cs)
);
}
);
width = 396.24986;
},
{
anchors = (
{
name = bottom;
pos = (250.674,0);
},
{
name = top;
pos = (250.674,659.343);
}
);
layerId = m002;
shapes = (
{
closed = 1;
nodes = (
(61.786,52.959,ls),
(61.786,23.832,o),
(85.618,0,o),
(114.745,0,cs),
(143.872,0,o),
(167.704,23.832,o),
(167.704,52.959,cs),
(167.704,606.383,ls),
(167.704,635.511,o),
(143.872,659.343,o),
(114.745,659.343,cs),
(85.618,659.343,o),
(61.786,635.511,o),
(61.786,606.383,cs)
);
},
{
closed = 1;
nodes = (
(164.173,335.409,ls),
(155.342,353.057,o),
(136.811,364.536,o),
(116.51,364.536,cs),
(87.383,364.536,o),
(63.551,340.704,o),
(63.551,311.577,cs),
(63.551,302.75,o),
(65.317,294.807,o),
(68.847,287.745,cs),
(196.832,29.127,ls),
(205.658,11.474,o),
(224.194,0,o),
(244.495,0,cs),
(273.623,0,o),
(297.455,23.832,o),
(297.455,52.959,cs),
(297.455,61.786,o),
(295.689,69.73,o),
(292.158,76.791,cs)
);
},
{
closed = 1;
nodes = (
(333.643,52.959,ls),
(333.643,23.832,o),
(357.475,0,o),
(386.602,0,cs),
(415.73,0,o),
(439.562,23.832,o),
(439.562,52.959,cs),
(439.562,606.383,ls),
(439.562,635.511,o),
(415.73,659.343,o),
(386.602,659.343,cs),
(357.475,659.343,o),
(333.643,635.511,o),
(333.643,606.383,cs)
);
},
{
closed = 1;
nodes = (
(162.409,629.332,ls),
(153.582,646.985,o),
(135.929,659.343,o),
(114.745,659.343,cs),
(85.618,659.343,o),
(61.786,635.511,o),
(61.786,606.383,cs),
(61.786,598.439,o),
(63.551,590.496,o),
(67.081,583.434,cs),
(338.939,30.011,ls),
(347.766,12.357,o),
(365.419,0,o),
(386.602,0,cs),
(415.73,0,o),
(439.562,23.832,o),
(439.562,52.959,cs),
(439.562,60.903,o),
(437.796,68.847,o),
(434.266,75.908,cs)
);
}
);
width = 501.34747;
}
);
note = N;
unicode = 78;
},
{
glyphname = Nhookleft;
kernLeft = H;
kernRight = H;
lastChange = "2024-12-12 09:14:51 +0000";
layers = (
{
layerId = m01;
shapes = (
{
ref = N;
},
{
closed = 1;
nodes = (
(60.903,-127.102,ls),
(60.903,-173.883,o),
(-0.882,-188.888,o),
(-42.367,-150.051,cs),
(-44.133,-148.286,o),
(-45.898,-147.403,o),
(-48.546,-147.403,cs),
(-53.842,-147.403,o),
(-57.373,-150.934,o),
(-57.373,-156.23,cs),
(-57.373,-158.878,o),
(-56.49,-160.643,o),
(-54.725,-162.409,cs),
(-4.413,-210.071,o),
(78.557,-189.771,o),
(78.557,-127.102,cs),
(78.557,14.122,ls),
(78.557,19.419,o),
(75.026,22.949,o),
(69.73,22.949,cs),
(64.434,22.949,o),
(60.903,19.419,o),
(60.903,14.122,cs)
);
}
);
width = 396.24986;
},
{
layerId = m002;
shapes = (
{
pos = (39.719,0);
ref = N;
},
{
closed = 1;
nodes = (
(100.623,-127.102,ls),
(100.623,-139.459,o),
(95.326,-140.342,o),
(71.495,-117.393,cs),
(61.786,-108.566,o),
(49.428,-103.271,o),
(35.306,-103.271,cs),
(6.179,-103.271,o),
(-17.653,-127.102,o),
(-17.653,-156.23,cs),
(-17.653,-171.235,o),
(-11.474,-185.357,o),
(-0.882,-195.066,cs),
(77.673,-268.327,o),
(206.541,-228.608,o),
(206.541,-127.102,cs),
(206.541,67.081,ls),
(206.541,96.21,o),
(182.71,120.041,o),
(153.582,120.041,cs),
(124.454,120.041,o),
(100.623,96.21,o),
(100.623,67.081,cs)
);
}
);
width = 541.0669;
}
);
unicode = 413;
},
{
glyphname = Eng;
kernLeft = H;
kernRight = H;
lastChange = "2024-12-12 09:14:51 +0000";
layers = (
{
layerId = m01;
shapes = (
{
ref = N;
},
{
closed = 1;
nodes = (
(316.873,-127.102,ls),
(316.873,-173.883,o),
(255.087,-188.888,o),
(213.602,-150.051,cs),
(211.837,-148.286,o),
(210.071,-147.403,o),
(207.424,-147.403,cs),
(202.128,-147.403,o),
(198.597,-150.934,o),
(198.597,-156.23,cs),
(198.597,-158.878,o),
(199.479,-160.643,o),
(201.245,-162.409,cs),
(251.556,-210.071,o),
(334.526,-189.771,o),
(334.526,-127.102,cs),
(334.526,14.122,ls),
(334.526,19.419,o),
(330.995,22.949,o),
(325.7,22.949,cs),
(320.403,22.949,o),
(316.873,19.419,o),
(316.873,14.122,cs)
);
}
);
width = 396.24986;
},
{
layerId = m002;
shapes = (
{
ref = N;
},
{
closed = 1;
nodes = (
(333.643,-127.102,ls),
(333.643,-139.459,o),
(328.347,-140.342,o),
(304.516,-117.393,cs),
(294.807,-108.566,o),
(282.449,-103.271,o),
(268.327,-103.271,cs),
(239.199,-103.271,o),
(215.368,-127.102,o),
(215.368,-156.23,cs),
(215.368,-171.235,o),
(221.546,-185.357,o),
(232.138,-195.066,cs),
(310.694,-268.327,o),
(439.562,-228.608,o),
(439.562,-127.102,cs),
(439.562,67.081,ls),
(439.562,96.21,o),
(415.73,120.041,o),
(386.602,120.041,cs),
(357.475,120.041,o),
(333.643,96.21,o),
(333.643,67.081,cs)
);
}
);
width = 501.34747;
}
);
unicode = 330;
},
{
glyphname = O;
kernLeft = O;
kernRight = O;
lastChange = "2024-12-12 09:14:51 +0000";
layers = (
{
anchors = (
{
name = bottom;
pos = (241.848,-4.413);
},
{
name = center;
pos = (241.848,330.113);
},
{
name = ogonek;
pos = (259.501,1.765);
},
{
name = top;
pos = (241.848,664.638);
},
{
name = topleft;
pos = (18.535,664.638);
},
{
name = topright;
pos = (381.424,603.307);
}
);
background = {
hints = (
{
horizontal = 1;
place = (1.765,22.066);
type = Stem;
},
{
horizontal = 1;
place = (637.276,22.949);
type = Stem;
},
{
place = (38.837,22.066);
type = Stem;
},
{
place = (324.817,22.949);
type = Stem;
},
{
place = (402.49,22.066);
type = Stem;
}
);
shapes = (
{
closed = 1;
nodes = (
(435.148,181.826,o),
(438.679,227.725,o),
(439.562,272.74,cs),
(439.562,351.296,l),
(439.562,390.133,ls),
(438.679,434.266,o),
(435.148,479.281,o),
(421.026,522.531,cs),
(406.903,565.781,o),
(380.424,607.266,o),
(338.939,633.745,cs),
(307.163,653.164,o),
(278.036,660.225,o),
(245.378,660.225,cs),
(208.306,660.225,o),
(180.944,650.516,o),
(153.582,633.745,cs),
(112.98,607.266,o),
(86.5,565.781,o),
(72.378,522.531,cs),
(58.255,479.281,o),
(53.842,434.266,o),
(53.842,390.133,cs),
(53.842,330.995,l),
(53.842,270.975,ls),
(53.842,226.842,o),
(58.255,181.826,o),
(72.378,138.577,cs),
(86.5,95.326,o),
(112.98,53.842,o),
(153.582,28.245,cs),
(180.944,10.592,o),
(208.306,1.765,o),
(245.378,1.765,cs),
(278.036,1.765,o),
(307.163,7.944,o),
(338.939,28.245,cs),
(380.424,53.842,o),
(406.903,95.326,o),
(421.026,138.577,cs)
);
},
{
closed = 1;
nodes = (
(264.796,26.48,ls),
(308.047,51.194,o),
(330.113,97.092,o),
(344.235,138.577,cs),
(358.357,180.062,o),
(362.77,229.49,o),
(362.77,274.505,cs),
(362.77,389.25,ls),
(362.77,434.266,o),
(358.357,483.694,o),
(344.235,525.179,cs),
(330.113,565.781,o),
(308.047,608.149,o),
(264.796,632.863,cs),
(256.852,637.276,l),
(280.684,636.393,o),
(303.633,630.215,o),
(327.464,615.21,cs),
(362.77,592.261,o),
(386.602,555.19,o),
(399.842,515.47,cs),
(413.082,475.751,o),
(416.613,433.383,o),
(417.495,390.133,cs),
(417.495,351.296,l),
(417.495,272.74,ls),
(417.495,228.608,o),
(413.082,185.357,o),
(399.842,145.638,cs),
(386.602,105.918,o),
(362.77,68.847,o),
(327.464,46.781,cs),
(304.516,31.775,o),
(283.332,25.597,o),
(260.383,23.832,c)
);
},
{
closed = 1;
nodes = (
(339.822,274.505,ls),
(339.822,231.256,o),
(335.409,183.592,o),
(323.051,145.638,cs),
(311.577,112.097,o),
(291.276,67.081,o),
(252.439,45.898,c),
(239.199,36.189,o),
(226.842,31.775,o),
(214.485,29.127,c),
(212.719,29.127,o),
(211.837,28.245,o),
(210.071,27.362,c),
(194.184,30.893,o),
(180.062,37.072,o),
(165.056,46.781,cs),
(130.633,68.847,o),
(105.918,105.918,o),
(92.679,145.638,cs),
(80.321,185.357,o),
(75.908,227.725,o),
(75.908,270.975,cs),
(75.908,292.158,o),
(75.026,311.577,o),
(75.026,330.995,cs),
(75.026,350.414,o),
(75.908,368.95,o),
(75.908,390.133,cs),
(75.908,433.383,o),
(80.321,475.751,o),
(92.679,515.47,cs),
(105.918,555.19,o),
(130.633,592.261,o),
(165.056,615.21,cs),
(180.944,624.919,o),
(195.066,631.098,o),
(211.837,634.629,c),
(212.719,633.745,o),
(214.485,632.863,o),
(216.25,631.98,cs),
(228.608,627.567,o),
(240.964,621.389,o),
(252.439,613.445,c),
(288.628,594.026,o),
(310.694,556.954,o),
(323.051,518.118,cs),
(335.409,480.164,o),
(339.822,432.5,o),
(339.822,389.25,cs)
);
}
);
};
layerId = m01;
shapes = (
{
closed = 1;
nodes = (
(52.959,236.551,ls),
(52.959,83.852,o),
(119.158,-4.413,o),
(235.669,-4.413,cs),
(248.025,-4.413,ls),
(365.419,-4.413,o),
(431.618,83.852,o),
(431.618,236.551,cs),
(431.618,422.792,ls),
(431.618,576.373,o),
(365.419,663.756,o),
(248.025,663.756,cs),
(235.669,663.756,ls),
(119.158,663.756,o),
(52.959,576.373,o),
(52.959,422.792,cs)
);
},
{
closed = 1;
nodes = (
(70.612,569.312,o),
(128.867,646.103,o),
(235.669,646.103,cs),
(248.025,646.103,ls),
(355.709,646.103,o),
(413.965,569.312,o),
(413.965,422.792,cs),
(413.965,236.551,ls),
(413.965,90.913,o),
(355.709,13.24,o),
(248.025,13.24,cs),
(235.669,13.24,ls),
(128.867,13.24,o),
(70.612,90.913,o),
(70.612,236.551,cs),
(70.612,422.792,ls)
);
},
{
closed = 1;
nodes = (
(281.567,627.567,o),
(326.582,551.659,o),
(326.582,422.792,cs),
(326.582,236.551,ls),
(326.582,107.684,o),
(281.567,33.541,o),
(197.715,16.771,cs),
(193.302,15.888,o),
(190.653,12.357,o),
(190.653,7.944,cs),
(190.653,2.648,o),
(195.949,-1.765,o),
(201.245,-0.882,cs),
(293.041,17.653,o),
(344.235,101.505,o),
(344.235,236.551,cs),
(344.235,422.792,ls),
(344.235,557.837,o),
(293.041,642.572,o),
(200.363,660.225,cs),
(198.597,660.225,o),
(189.771,656.695,o),
(189.771,651.398,cs),
(189.771,646.985,o),
(193.302,643.455,o),
(196.832,642.572,cs)
);
}
);
width = 484.57705;
},
{
anchors = (
{
name = bottom;
pos = (297.455,0);
},
{
name = center;
pos = (297.455,330.113);
},
{
name = ogonek;
pos = (318.638,35.306);
},
{
name = top;
pos = (297.455,659.343);
},
{
name = topleft;
pos = (58.255,659.343);
},
{
name = topright;
pos = (471.671,603.307);
}
);
layerId = m002;
shapes = (
{
closed = 1;
nodes = (
(52.959,248.909,ls),
(52.959,91.796,o),
(141.225,-5.296,o),
(291.276,-5.296,cs),
(303.633,-5.296,ls),
(453.684,-5.296,o),
(541.95,91.796,o),
(541.95,248.909,cs),
(541.95,409.552,ls),
(541.95,567.546,o),
(453.684,663.756,o),
(303.633,663.756,cs),
(291.276,663.756,ls),
(141.225,663.756,o),
(52.959,567.546,o),
(52.959,409.552,cs)
);
},
{
closed = 1;
nodes = (
(158.878,518.118,o),
(195.066,557.837,o),
(291.276,557.837,cs),
(303.633,557.837,ls),
(399.842,557.837,o),
(436.031,518.118,o),
(436.031,409.552,cs),
(436.031,248.909,ls),
(436.031,140.342,o),
(399.842,100.623,o),
(303.633,100.623,cs),
(291.276,100.623,ls),
(195.066,100.623,o),
(158.878,140.342,o),
(158.878,248.909,cs),
(158.878,409.552,ls)
);
},
{
closed = 1;
nodes = (
(274.505,544.598,o),
(303.633,505.761,o),
(303.633,409.552,cs),
(303.633,248.909,ls),
(303.633,152.699,o),
(275.388,114.745,o),
(203.893,103.271,cs),
(178.296,99.74,o),
(158.878,77.673,o),
(158.878,51.194,cs),
(158.878,30.011,o),
(225.959,-8.827,o),
(282.449,16.771,cs),
(363.654,53.842,o),
(409.552,135.929,o),
(409.552,248.909,cs),
(409.552,409.552,ls),
(409.552,513.705,o),
(370.715,591.378,o),
(300.102,631.98,cs),
(240.964,666.404,o),
(157.995,634.629,o),
(157.995,608.149,cs),
(157.995,581.669,o),
(177.413,559.603,o),
(202.128,556.072,cs)
);
}
);
width = 594.9088;
}
);
note = O;
unicode = 79;
},
{
glyphname = Oslash;
kernLeft = O;
kernRight = O;
lastChange = "2024-12-12 09:14:51 +0000";
layers = (
{
anchors = (
{
name = bottom;
pos = (240.964,-4.413);
},
{
name = center;
pos = (240.964,330.113);
},
{
name = ogonek;
pos = (435.148,4.413);
},
{
name = top;
pos = (244.495,659.343);
},
{
name = topleft;
pos = (17.653,664.638);
},
{
name = topright;
pos = (465.159,664.638);
}
);
layerId = m01;
shapes = (
{
closed = 1;
nodes = (
(52.077,236.551,ls),
(52.077,83.852,o),
(118.276,-4.413,o),
(234.786,-4.413,cs),
(247.143,-4.413,ls),
(364.536,-4.413,o),
(430.735,83.852,o),
(430.735,236.551,cs),
(430.735,422.792,ls),
(430.735,576.373,o),
(364.536,663.756,o),
(247.143,663.756,cs),
(234.786,663.756,ls),
(118.276,663.756,o),
(52.077,576.373,o),
(52.077,422.792,cs)
);
},
{
closed = 1;
nodes = (
(69.73,569.312,o),
(127.985,646.103,o),
(234.786,646.103,cs),
(247.143,646.103,ls),
(354.827,646.103,o),
(413.082,569.312,o),
(413.082,422.792,cs),
(413.082,236.551,ls),
(413.082,90.913,o),
(354.827,13.24,o),
(247.143,13.24,cs),
(234.786,13.24,ls),
(127.985,13.24,o),
(69.73,90.913,o),
(69.73,236.551,cs),
(69.73,422.792,ls)
);
},
{
pos = (95.326,0);
ref = slash;
}
);
width = 483.69439;
},
{
anchors = (
{
name = bottom;
pos = (297.455,0);
},
{
name = center;
pos = (297.455,330.113);
},
{
name = ogonek;
pos = (503.113,8.827);
},
{
name = top;
pos = (324.817,659.343);
},
{
name = topleft;
pos = (58.255,659.343);
},
{
name = topright;
pos = (536.653,659.343);
}
);
layerId = m002;
shapes = (
{
closed = 1;
nodes = (
(52.959,248.909,ls),
(52.959,91.796,o),
(141.225,-5.296,o),
(291.276,-5.296,cs),
(303.633,-5.296,ls),
(453.684,-5.296,o),
(541.95,91.796,o),
(541.95,248.909,cs),
(541.95,409.552,ls),
(541.95,567.546,o),
(453.684,663.756,o),
(303.633,663.756,cs),
(291.276,663.756,ls),
(141.225,663.756,o),
(52.959,567.546,o),
(52.959,409.552,cs)
);
},
{
closed = 1;
nodes = (
(158.878,518.118,o),
(195.066,557.837,o),
(291.276,557.837,cs),
(303.633,557.837,ls),
(399.842,557.837,o),
(436.031,518.118,o),
(436.031,409.552,cs),
(436.031,248.909,ls),
(436.031,140.342,o),
(399.842,100.623,o),
(303.633,100.623,cs),
(291.276,100.623,ls),
(195.066,100.623,o),
(158.878,140.342,o),
(158.878,248.909,cs),
(158.878,409.552,ls)
);
},
{
pos = (107.684,0);
ref = slash;
}
);
width = 594.9088;
}
);
unicode = 216;
},
{
glyphname = P;
kernLeft = H;
kernRight = P;
lastChange = "2024-12-12 09:14:51 +0000";
layers = (
{
anchors = (
{
name = bottom;
pos = (187.123,-4.413);
},
{
name = top;
pos = (187.123,664.638);
}
);
background = {
hints = (
{
horizontal = 1;
place = (308.929,22.066);
type = Stem;
},
{
horizontal = 1;
place = (637.276,22.949);
type = Stem;
},
{
place = (54.725,21.184);
type = Stem;
},
{
place = (250.674,22.949);
type = Stem;
},
{
place = (317.755,22.066);
type = Stem;
}
);
shapes = (
{
closed = 1;
nodes = (
(82.087,308.929,l),
(170.352,308.929,ls),
(216.25,308.929,o),
(261.265,327.464,o),
(293.924,360.123,cs),
(327.464,392.781,o),
(346,437.796,o),
(346,484.577,cs),
(346.883,530.475,o),
(327.464,579.904,o),
(288.628,615.21,cs),
(256.852,644.337,o),
(213.602,660.225,o),
(170.352,660.225,cs),
(71.495,660.225,ls),
(65.317,660.225,o),
(60.903,654.929,o),
(60.903,648.751,cs),
(60.903,13.24,ls),
(60.903,7.061,o),
(65.317,1.765,o),
(71.495,1.765,cs),
(77.673,1.765,o),
(82.087,7.061,o),
(82.087,13.24,cs)
);
},
{
closed = 1;
nodes = (
(82.087,330.995,l),
(82.087,637.276,l),
(100.623,637.276,ls),
(133.28,637.276,o),
(175.648,624.037,o),
(208.306,595.791,cs),
(240.964,566.664,o),
(256.852,526.061,o),
(256.852,484.577,cs),
(256.852,443.092,o),
(240.964,401.608,o),
(211.837,373.362,cs),
(183.592,345.117,o),
(142.99,331.878,o),
(100.623,331.878,cs),
(98.857,331.878,o),
(97.092,331.878,o),
(95.326,330.995,c)
);
},
{
closed = 1;
nodes = (
(206.541,339.822,o),
(218.016,347.766,o),
(227.725,357.475,cs),
(263.031,393.663,o),
(279.801,441.327,o),
(279.801,484.577,cs),
(279.801,531.358,o),
(260.383,579.021,o),
(222.429,611.679,cs),
(210.955,622.271,o),
(198.597,630.215,o),
(185.357,637.276,c),
(218.016,633.745,o),
(249.791,620.506,o),
(274.505,598.439,cs),
(308.047,567.546,o),
(324.817,524.297,o),
(323.934,484.577,cs),
(323.934,443.975,o),
(307.163,404.255,o),
(278.918,376.01,cs),
(255.087,352.179,o),
(225.077,338.056,o),
(195.066,333.643,c)
);
}
);
};
layerId = m01;
shapes = (
{
closed = 1;
nodes = (
(79.439,641.69,l),
(190.653,641.69,ls),
(270.092,641.69,o),
(321.286,576.373,o),
(321.286,490.755,cs),
(321.286,481.046,ls),
(321.286,396.312,o),
(270.092,330.113,o),
(190.653,330.113,cs),
(70.612,330.113,ls),
(65.317,330.113,o),
(61.786,326.582,o),
(61.786,321.286,cs),
(61.786,315.99,o),
(65.317,312.46,o),
(70.612,312.46,cs),
(190.653,312.46,ls),
(279.801,312.46,o),
(338.939,389.25,o),
(338.939,481.046,cs),
(338.939,490.755,ls),
(338.939,583.434,o),
(279.801,659.343,o),
(190.653,659.343,cs),
(76.791,659.343,ls),
(67.081,659.343,o),
(61.786,654.046,o),
(61.786,644.337,cs),
(61.786,8.827,ls),
(61.786,3.531,o),
(65.317,0,o),
(70.612,0,cs),
(75.908,0,o),
(79.439,3.531,o),
(79.439,8.827,cs)
);
},
{
closed = 1;
nodes = (
(208.306,641.69,o),
(259.501,576.373,o),
(259.501,490.755,cs),
(259.501,481.046,ls),
(259.501,396.312,o),
(208.306,330.113,o),
(128.867,330.113,cs),
(123.572,330.113,o),
(120.041,326.582,o),
(120.041,321.286,cs),
(120.041,315.99,o),
(123.572,312.46,o),
(128.867,312.46,cs),
(218.016,312.46,o),
(277.154,389.25,o),
(277.154,481.046,cs),
(277.154,490.755,ls),
(277.154,583.434,o),
(218.016,659.343,o),
(128.867,659.343,cs),
(123.572,659.343,o),
(120.041,655.812,o),
(120.041,650.516,cs),
(120.041,645.22,o),
(123.572,641.69,o),
(128.867,641.69,cs)
);
}
);
width = 374.2453;
},
{
anchors = (
{
name = bottom;
pos = (239.199,0);
},
{
name = top;
pos = (239.199,659.343);
}
);
layerId = m002;
shapes = (
{
closed = 1;
nodes = (
(167.704,553.424,l),
(242.73,553.424,ls),
(308.929,553.424,o),
(338.056,523.414,o),
(338.056,467.807,cs),
(338.056,458.98,ls),
(338.056,405.139,o),
(308.929,374.246,o),
(242.73,374.246,cs),
(114.745,374.246,ls),
(85.618,374.246,o),
(61.786,350.414,o),
(61.786,321.286,cs),
(61.786,292.158,o),
(85.618,268.327,o),
(114.745,268.327,cs),
(242.73,268.327,ls),
(361.888,268.327,o),
(443.975,355.709,o),
(443.975,458.98,cs),
(443.975,467.807,ls),
(443.975,572.843,o),
(361.888,659.343,o),
(242.73,659.343,cs),
(114.745,659.343,ls),
(80.321,659.343,o),
(61.786,640.806,o),
(61.786,606.383,cs),
(61.786,52.959,ls),
(61.786,23.832,o),
(85.618,0,o),
(114.745,0,cs),
(143.872,0,o),
(167.704,23.832,o),
(167.704,52.959,cs)
);
},
{
closed = 1;
nodes = (
(189.771,553.424,o),
(218.898,523.414,o),
(218.898,467.807,cs),
(218.898,458.98,ls),
(218.898,405.139,o),
(189.771,374.246,o),
(123.572,374.246,cs),
(94.444,374.246,o),
(70.612,350.414,o),
(70.612,321.286,cs),
(70.612,292.158,o),
(94.444,268.327,o),
(123.572,268.327,cs),
(242.73,268.327,o),
(324.817,355.709,o),
(324.817,458.98,cs),
(324.817,467.807,ls),
(324.817,572.843,o),
(242.73,659.343,o),
(123.572,659.343,cs),
(94.444,659.343,o),
(70.612,635.511,o),
(70.612,606.383,cs),
(70.612,577.256,o),
(94.444,553.424,o),
(123.572,553.424,cs)
);
}
);
width = 479.28112;
}
);
note = P;
unicode = 80;
},
{
glyphname = Thorn;
kernLeft = T;
kernRight = T;
lastChange = "2024-12-12 09:14:51 +0000";
layers = (
{
anchors = (
{
name = bottom;
pos = (130.633,-4.413);
},
{
name = top;
pos = (130.633,664.638);
}
);
background = {
hints = (
{
horizontal = 1;
place = (151.817,22.066);
type = Stem;
},
{
horizontal = 1;
place = (388.368,22.066);
type = Stem;
},
{
place = (73.26,22.066);
type = Stem;
},
{
place = (263.031,22.066);
type = Stem;
}
);
shapes = (
{
closed = 1;
nodes = (
(47.664,151.817,l),
(107.684,151.817,ls),
(142.107,151.817,o),
(174.765,165.939,o),
(199.479,189.771,cs),
(223.311,213.602,o),
(237.434,247.143,o),
(237.434,281.567,cs),
(237.434,315.108,o),
(223.311,351.296,o),
(195.066,377.776,cs),
(171.235,398.96,o),
(139.459,410.434,o),
(107.684,410.434,cs),
(47.664,410.434,l),
(47.664,492.521,ls),
(47.664,498.7,o),
(42.367,503.113,o),
(36.189,503.113,cs),
(30.893,503.113,o),
(25.597,498.7,o),
(25.597,492.521,cs),
(25.597,-99.74,ls),
(25.597,-105.918,o),
(30.893,-111.214,o),
(36.189,-111.214,cs),
(42.367,-111.214,o),
(47.664,-105.918,o),
(47.664,-99.74,cs)
);
},
{
closed = 1;
nodes = (
(47.664,173.883,l),
(47.664,388.368,l),
(107.684,388.368,ls),
(134.164,388.368,o),
(160.643,378.659,o),
(180.062,361.006,cs),
(203.893,339.822,o),
(215.368,309.811,o),
(215.368,281.567,cs),
(215.368,252.439,o),
(203.893,225.077,o),
(183.592,204.776,cs),
(164.173,185.357,o),
(135.929,173.883,o),
(107.684,173.883,cs)
);
}
);
};
layerId = m01;
shapes = (
{
closed = 1;
nodes = (
(132.398,534.888,l),
(142.107,534.888,ls),
(221.546,534.888,o),
(272.74,469.572,o),
(272.74,383.072,cs),
(272.74,373.362,ls),
(272.74,289.51,o),
(221.546,223.311,o),
(142.107,223.311,cs),
(22.066,223.311,ls),
(16.771,223.311,o),
(13.24,219.781,o),
(13.24,214.485,cs),
(13.24,209.189,o),
(16.771,205.658,o),
(22.066,205.658,cs),
(142.107,205.658,ls),
(231.256,205.658,o),
(290.393,282.449,o),
(290.393,373.362,cs),
(290.393,383.072,ls),
(290.393,476.633,o),
(231.256,552.541,o),
(142.107,552.541,cs),
(132.398,552.541,l),
(22.066,552.541,ls),
(16.771,552.541,o),
(13.24,549.011,o),
(13.24,543.715,cs),
(13.24,538.419,o),
(16.771,534.888,o),
(22.066,534.888,cs)
);
},
{
closed = 1;
nodes = (
(159.76,534.888,o),
(210.955,469.572,o),
(210.955,383.072,cs),
(210.955,373.362,ls),
(210.955,289.51,o),
(159.76,223.311,o),
(80.321,223.311,cs),
(75.026,223.311,o),
(71.495,219.781,o),
(71.495,214.485,cs),
(71.495,209.189,o),
(75.026,205.658,o),
(80.321,205.658,cs),
(169.47,205.658,o),
(228.608,282.449,o),
(228.608,373.362,cs),
(228.608,383.072,ls),
(228.608,476.633,o),
(169.47,552.541,o),
(80.321,552.541,cs),
(75.026,552.541,o),
(71.495,549.011,o),
(71.495,543.715,cs),
(71.495,538.419,o),
(75.026,534.888,o),
(80.321,534.888,cs)
);
},
{
closed = 1;
nodes = (
(30.893,650.516,ls),
(30.893,655.812,o),
(27.362,659.343,o),
(22.066,659.343,cs),
(16.771,659.343,o),
(13.24,655.812,o),
(13.24,650.516,cs),
(13.24,8.827,ls),
(13.24,3.531,o),
(16.771,0,o),
(22.066,0,cs),
(27.362,0,o),
(30.893,3.531,o),
(30.893,8.827,cs)
);
}
);
width = 303.63298;
},
{
anchors = (
{
name = bottom;
pos = (181.826,40.602);
},
{
name = top;
pos = (181.826,617.858);
}
);
layerId = m002;
shapes = (
{
closed = 1;
nodes = (
(183.592,460.746,l),
(194.184,460.746,ls),
(260.383,460.746,o),
(289.51,430.735,o),
(289.51,375.128,cs),
(289.51,366.301,ls),
(289.51,312.46,o),
(260.383,281.567,o),
(194.184,281.567,cs),
(66.199,281.567,ls),
(37.072,281.567,o),
(13.24,257.735,o),
(13.24,228.608,cs),
(13.24,199.479,o),
(37.072,175.648,o),
(66.199,175.648,cs),
(194.184,175.648,ls),
(313.342,175.648,o),
(395.429,263.031,o),
(395.429,366.301,cs),
(395.429,375.128,ls),
(395.429,480.164,o),
(313.342,566.664,o),
(194.184,566.664,cs),
(183.592,566.664,l),
(66.199,566.664,ls),
(37.072,566.664,o),
(13.24,542.832,o),
(13.24,513.705,cs),
(13.24,484.577,o),
(37.072,460.746,o),
(66.199,460.746,cs)
);
},
{
closed = 1;
nodes = (
(141.225,460.746,o),
(170.352,430.735,o),
(170.352,375.128,cs),
(170.352,366.301,ls),
(170.352,312.46,o),
(141.225,281.567,o),
(75.026,281.567,cs),
(45.898,281.567,o),
(22.066,257.735,o),
(22.066,228.608,cs),
(22.066,199.479,o),
(45.898,175.648,o),
(75.026,175.648,cs),
(194.184,175.648,o),
(276.271,263.031,o),
(276.271,366.301,cs),
(276.271,375.128,ls),
(276.271,480.164,o),
(194.184,566.664,o),
(75.026,566.664,cs),
(45.898,566.664,o),
(22.066,542.832,o),
(22.066,513.705,cs),
(22.066,484.577,o),
(45.898,460.746,o),
(75.026,460.746,cs)
);
},
{
closed = 1;
nodes = (
(119.158,606.383,ls),
(119.158,635.511,o),
(95.326,659.343,o),
(66.199,659.343,cs),
(37.072,659.343,o),
(13.24,635.511,o),
(13.24,606.383,cs),
(13.24,52.959,ls),
(13.24,23.832,o),
(37.072,0,o),
(66.199,0,cs),
(95.326,0,o),
(119.158,23.832,o),
(119.158,52.959,cs)
);
}
);
width = 408.6688;
}
);
note = Thorn;
unicode = 222;
},
{
glyphname = Q;
kernLeft = O;
kernRight = O;
lastChange = "2024-12-12 09:14:51 +0000";
layers = (
{
anchors = (
{
name = bottom;
pos = (244.495,0);
},
{
name = top;
pos = (244.495,659.343);
}
);
background = {
hints = (
{
horizontal = 1;
place = (1.765,22.066);
type = Stem;
},
{
horizontal = 1;
place = (637.276,22.949);
type = Stem;
},
{
place = (38.837,22.066);
type = Stem;
},
{
place = (402.49,22.066);
type = Stem;
}
);
shapes = (
{
closed = 1;
nodes = (
(400.725,-40.602,ls),
(404.255,-45.898,o),
(410.434,-47.664,o),
(415.73,-45.015,cs),
(421.026,-41.485,o),
(422.792,-35.306,o),
(420.143,-30.011,cs),
(364.536,63.551,l),
(383.954,85.618,o),
(397.194,112.097,o),
(406.021,138.577,cs),
(420.143,181.826,o),
(423.674,227.725,o),
(424.556,272.74,cs),
(424.556,351.296,l),
(424.556,390.133,ls),
(423.674,434.266,o),
(420.143,479.281,o),
(406.021,522.531,cs),
(391.899,565.781,o),
(365.419,607.266,o),
(323.934,633.745,cs),
(292.158,653.164,o),
(263.031,660.225,o),
(230.372,660.225,cs),
(193.302,660.225,o),
(165.939,650.516,o),
(138.577,633.745,cs),
(97.974,607.266,o),
(71.495,565.781,o),
(57.373,522.531,cs),
(43.25,479.281,o),
(38.837,434.266,o),
(38.837,390.133,cs),
(38.837,330.995,l),
(38.837,270.975,ls),
(38.837,226.842,o),
(43.25,181.826,o),
(57.373,138.577,cs),
(71.495,95.326,o),
(97.974,53.842,o),
(138.577,28.245,cs),
(165.939,10.592,o),
(193.302,1.765,o),
(230.372,1.765,cs),
(247.143,1.765,o),
(263.031,3.531,o),
(278.918,7.944,c),
(311.577,-45.898,l),
(315.108,-50.311,o),
(322.169,-52.077,o),
(327.464,-49.428,c),
(331.878,-45.898,o),
(333.643,-38.837,o),
(330.995,-33.541,cs),
(300.102,15.005,l),
(308.047,18.535,o),
(315.99,22.949,o),
(323.934,28.245,cs),
(332.761,33.541,o),
(341.587,39.719,o),
(348.648,46.781,c)
);
},
{
closed = 1;
nodes = (
(295.689,180.062,ls),
(292.158,185.357,o),
(285.98,187.123,o),
(280.684,184.475,cs),
(275.388,180.944,o),
(273.623,174.765,o),
(276.271,169.47,cs),
(337.174,66.199,l),
(330.113,59.138,o),
(321.286,52.077,o),
(312.46,46.781,cs),
(304.516,41.485,o),
(296.571,37.072,o),
(288.628,34.424,c),
(202.128,173.883,l),
(198.597,178.296,o),
(191.536,180.062,o),
(186.24,177.413,c),
(181.826,173.883,o),
(180.062,166.822,o),
(182.71,161.526,cs),
(266.562,27.362,l),
(255.087,24.714,o),
(242.73,23.832,o),
(230.372,23.832,cs),
(196.832,23.832,o),
(175.648,30.893,o),
(150.051,46.781,cs),
(115.627,68.847,o),
(90.913,105.918,o),
(77.673,145.638,cs),
(65.317,185.357,o),
(60.903,227.725,o),
(60.903,270.975,cs),
(60.903,292.158,o),
(60.02,311.577,o),
(60.02,330.995,cs),
(60.02,350.414,o),
(60.903,368.95,o),
(60.903,390.133,cs),
(60.903,433.383,o),
(65.317,475.751,o),
(77.673,515.47,cs),
(90.913,555.19,o),
(115.627,592.261,o),
(150.051,615.21,cs),
(175.648,630.215,o),
(196.832,637.276,o),
(230.372,637.276,cs),
(258.617,637.276,o),
(285.097,631.98,o),
(312.46,615.21,cs),
(347.766,592.261,o),
(371.597,555.19,o),
(384.837,515.47,cs),
(398.077,475.751,o),
(401.608,433.383,o),
(402.49,390.133,cs),
(402.49,351.296,l),
(402.49,272.74,ls),
(402.49,228.608,o),
(398.077,185.357,o),
(384.837,145.638,cs),
(377.776,123.572,o),
(367.184,102.388,o),
(353.062,83.852,c)
);
}
);
};
layerId = m01;
shapes = (
{
ref = O;
},
{
closed = 1;
nodes = (
(252.439,181.826,ls),
(251.556,184.475,o),
(248.909,186.24,o),
(245.378,186.24,cs),
(240.082,186.24,o),
(236.551,181.826,o),
(236.551,177.413,cs),
(236.551,175.648,o),
(236.551,173.883,o),
(238.317,173,cs),
(379.541,-53.842,ls),
(380.424,-56.49,o),
(383.072,-58.255,o),
(386.602,-58.255,cs),
(391.899,-58.255,o),
(395.429,-53.842,o),
(395.429,-49.428,cs),
(395.429,-47.664,o),
(394.546,-45.898,o),
(393.663,-45.015,cs)
);
}
);
width = 484.57705;
},
{
anchors = (
{
name = bottom;
pos = (290.393,0);
},
{
name = top;
pos = (282.449,659.343);
}
);
layerId = m002;
shapes = (
{
ref = O;
},
{
closed = 1;
nodes = (
(297.455,205.658,ls),
(287.745,220.664,o),
(270.975,230.372,o),
(252.439,230.372,cs),
(223.311,230.372,o),
(199.479,206.541,o),
(199.479,177.413,cs),
(199.479,166.822,o),
(202.128,157.112,o),
(207.424,149.169,cs),
(348.648,-77.673,ls),
(358.357,-92.679,o),
(375.128,-102.388,o),
(393.663,-102.388,cs),
(422.792,-102.388,o),
(446.623,-78.557,o),
(446.623,-49.428,cs),
(446.623,-38.837,o),
(443.975,-29.127,o),
(438.679,-21.184,cs)
);
}
);
width = 594.9088;
}
);
note = Q;
unicode = 81;
},
{
glyphname = R;
kernLeft = H;
kernRight = R;
lastChange = "2024-12-12 09:14:51 +0000";
layers = (
{
anchors = (
{
name = bottom;
pos = (197.715,-4.413);
},
{
name = top;
pos = (197.715,664.638);
}
);
background = {
hints = (
{
horizontal = 1;
place = (241.848,21.184);
type = Stem;
},
{
horizontal = 1;
place = (337.174,21.184);
type = Stem;
},
{
horizontal = 1;
place = (637.276,22.066);
type = Stem;
},
{
place = (54.725,21.184);
type = Stem;
},
{
place = (338.939,22.066);
type = Stem;
},
{
place = (315.108,21.184);
type = Stem;
}
);
shapes = (
{
closed = 1;
nodes = (
(82.087,241.848,l),
(228.608,241.848,l),
(321.286,8.827,ls),
(323.934,3.531,o),
(330.113,0.882,o),
(336.291,2.648,cs),
(341.587,5.296,o),
(344.235,11.474,o),
(342.47,17.653,c),
(213.602,337.174,l),
(251.556,339.822,o),
(289.51,354.827,o),
(317.755,381.307,cs),
(348.648,411.316,o),
(367.184,453.684,o),
(367.184,497.817,cs),
(367.184,541.95,o),
(349.531,584.317,o),
(317.755,614.327,cs),
(287.745,643.455,o),
(247.143,660.225,o),
(205.658,660.225,cs),
(203.893,660.225,o),
(202.128,660.225,o),
(199.479,659.343,c),
(71.495,659.343,ls),
(65.317,659.343,o),
(60.903,654.929,o),
(60.903,648.751,cs),
(60.903,13.24,ls),
(60.903,7.061,o),
(65.317,1.765,o),
(71.495,1.765,cs),
(77.673,1.765,o),
(82.087,7.061,o),
(82.087,13.24,cs)
);
},
{
closed = 1;
nodes = (
(82.087,358.357,l),
(82.087,637.276,l),
(199.479,637.276,l),
(202.128,638.159,o),
(203.893,638.159,o),
(205.658,638.159,cs),
(240.964,638.159,o),
(277.154,623.153,o),
(302.75,598.439,cs),
(329.23,572.843,o),
(345.117,535.771,o),
(345.117,497.817,cs),
(345.117,459.862,o),
(329.23,422.792,o),
(301.868,397.194,cs),
(275.388,371.597,o),
(237.434,358.357,o),
(199.479,358.357,cs)
);
},
{
closed = 1;
nodes = (
(219.781,263.031,l),
(82.087,263.031,l),
(82.087,337.174,l),
(190.653,337.174,l)
);
}
);
};
layerId = m01;
shapes = (
{
closed = 1;
nodes = (
(79.439,641.69,l),
(212.719,641.69,ls),
(292.158,641.69,o),
(343.353,580.786,o),
(343.353,503.113,cs),
(343.353,494.286,ls),
(343.353,418.378,o),
(292.158,356.593,o),
(212.719,356.593,cs),
(74.143,356.593,ls),
(68.847,356.593,o),
(65.317,353.062,o),
(65.317,347.766,cs),
(65.317,342.47,o),
(68.847,338.939,o),
(74.143,338.939,cs),
(212.719,338.939,ls),
(301.868,338.939,o),
(361.006,410.434,o),
(361.006,494.286,cs),
(361.006,503.113,ls),
(361.006,588.73,o),
(301.868,659.343,o),
(212.719,659.343,cs),
(70.612,659.343,ls),
(65.317,659.343,o),
(61.786,656.695,o),
(61.786,650.516,cs),
(61.786,8.827,ls),
(61.786,3.531,o),
(65.317,0,o),
(70.612,0,cs),
(75.908,0,o),
(79.439,3.531,o),
(79.439,8.827,cs)
);
},
{
closed = 1;
nodes = (
(351.296,5.296,ls),
(353.062,1.765,o),
(355.709,0,o),
(359.24,0,cs),
(364.536,0,o),
(368.067,4.413,o),
(368.067,8.827,cs),
(368.067,10.592,o),
(368.067,11.474,o),
(367.184,12.357,cs),
(206.541,348.648,ls),
(204.776,352.179,o),
(202.128,353.944,o),
(198.597,353.944,cs),
(193.302,353.944,o),
(189.771,348.648,o),
(189.771,345.117,cs),
(189.771,343.353,o),
(189.771,342.47,o),
(190.653,341.587,cs)
);
},
{
closed = 1;
nodes = (
(76.791,255.97,ls),
(71.495,255.97,o),
(67.965,252.439,o),
(67.965,247.143,cs),
(67.965,241.848,o),
(71.495,238.317,o),
(76.791,238.317,cs),
(242.73,238.317,ls),
(248.025,238.317,o),
(251.556,241.848,o),
(251.556,247.143,cs),
(251.556,252.439,o),
(248.025,255.97,o),
(242.73,255.97,cs)
);
}
);
width = 394.54634;
},
{
anchors = (
{
name = bottom;
pos = (249.791,0);
},
{
name = top;
pos = (249.791,659.343);
}
);
layerId = m002;
shapes = (
{
closed = 1;
nodes = (
(167.704,553.424,l),
(265.679,553.424,ls),
(333.643,553.424,o),
(361.006,526.945,o),
(361.006,478.399,cs),
(361.006,470.454,ls),
(361.006,424.556,o),
(332.761,397.194,o),
(265.679,397.194,cs),
(127.985,397.194,ls),
(98.857,397.194,o),
(75.026,373.362,o),
(75.026,344.235,cs),
(75.026,315.108,o),
(98.857,291.276,o),
(127.985,291.276,cs),
(265.679,291.276,ls),
(383.954,291.276,o),
(466.924,373.362,o),
(466.924,470.454,cs),
(466.924,478.399,ls),
(466.924,579.021,o),
(383.954,659.343,o),
(265.679,659.343,cs),
(114.745,659.343,ls),
(80.321,659.343,o),
(61.786,640.806,o),
(61.786,606.383,cs),
(61.786,52.959,ls),
(61.786,23.832,o),
(85.618,0,o),
(114.745,0,cs),
(143.872,0,o),
(167.704,23.832,o),
(167.704,52.959,cs)
);
},
{
closed = 1;
nodes = (
(376.01,25.597,ls),
(384.837,10.592,o),
(402.49,0,o),
(421.908,0,cs),
(451.036,0,o),
(474.868,23.832,o),
(474.868,52.959,cs),
(474.868,62.668,o),
(472.22,72.378,o),
(467.807,80.321,cs),
(300.102,363.654,ls),
(291.276,378.659,o),
(273.623,389.25,o),
(254.204,389.25,cs),
(225.077,389.25,o),
(201.245,365.419,o),
(201.245,336.291,cs),
(201.245,326.582,o),
(203.893,315.99,o),
(208.306,308.929,cs)
);
},
{
closed = 1;
nodes = (
(128.867,248.025,ls),
(99.74,248.025,o),
(75.908,224.194,o),
(75.908,195.066,cs),
(75.908,165.939,o),
(99.74,142.107,o),
(128.867,142.107,cs),
(317.755,142.107,ls),
(346.883,142.107,o),
(370.715,165.939,o),
(370.715,195.066,cs),
(370.715,224.194,o),
(346.883,248.025,o),
(317.755,248.025,cs)
);
}
);
width = 501.34747;
}
);
note = R;
unicode = 82;
},
{
glyphname = S;
kernLeft = S;
kernRight = S;
lastChange = "2024-12-12 09:14:51 +0000";
layers = (
{
anchors = (
{
name = bottom;
pos = (195.949,-4.413);
},
{
name = top;
pos = (195.949,664.638);
}
);
background = {
hints = (
{
horizontal = 1;
place = (1.765,22.066);
type = Stem;
},
{
horizontal = 1;
place = (563.133,21.184);
type = Stem;
},
{
horizontal = 1;
place = (637.276,22.949);
type = Stem;
},
{
place = (22.066,22.066);
type = Stem;
},
{
place = (329.23,22.066);
type = Stem;
},
{
place = (43.25,22.066);
type = Stem;
}
);
shapes = (
{
closed = 1;
nodes = (
(203.893,637.276,ls),
(250.674,637.276,o),
(297.455,610.797,o),
(328.347,569.312,cs),
(331.878,564.016,o),
(338.939,563.133,o),
(344.235,566.664,cs),
(348.648,570.194,o),
(349.531,577.256,o),
(346,581.669,cs),
(313.342,626.684,o),
(261.265,659.343,o),
(203.893,660.225,cs),
(202.128,660.225,ls),
(176.531,660.225,o),
(150.934,653.164,o),
(127.985,639.924,cs),
(104.153,625.802,o),
(84.734,603.736,o),
(71.495,577.256,cs),
(61.786,557.837,o),
(56.49,535.771,o),
(56.49,512.822,c),
(51.194,503.995,ls),
(40.602,481.929,o),
(35.306,458.098,o),
(35.306,433.383,cs),
(35.306,425.439,o),
(35.306,417.495,o),
(37.072,408.669,cs),
(41.485,375.128,o),
(60.903,346.883,o),
(78.557,323.934,cs),
(106.801,286.863,o),
(144.756,268.327,o),
(184.475,250.674,cs),
(224.194,233.021,o),
(262.148,215.368,o),
(285.98,182.71,c),
(307.163,157.995,o),
(323.934,124.454,o),
(323.934,88.265,c),
(323.051,88.265,o),
(323.934,88.265,o),
(323.934,87.383,c),
(318.638,79.439,o),
(313.342,72.378,o),
(308.047,65.317,c),
(282.449,37.954,o),
(247.143,23.832,o),
(211.837,23.832,cs),
(201.245,23.832,l),
(154.464,28.245,o),
(107.684,56.49,o),
(76.791,98.857,cs),
(73.26,104.153,o),
(66.199,105.036,o),
(60.903,101.505,cs),
(56.49,97.974,o),
(55.607,90.913,o),
(59.138,86.5,cs),
(93.561,38.837,o),
(144.756,6.179,o),
(199.479,2.648,c),
(203.893,1.765,o),
(208.306,1.765,o),
(211.837,1.765,cs),
(253.322,1.765,o),
(294.807,17.653,o),
(323.934,51.194,cs),
(349.531,79.439,o),
(364.536,119.158,o),
(364.536,159.76,cs),
(364.536,161.526,ls),
(364.536,203.01,o),
(348.648,242.73,o),
(323.934,271.857,cs),
(293.041,308.047,o),
(253.322,327.464,o),
(215.368,345.117,cs),
(177.413,362.77,o),
(140.342,381.307,o),
(113.863,412.2,cs),
(96.21,432.5,o),
(83.852,458.098,o),
(79.439,486.342,cs),
(78.557,493.404,o),
(78.557,499.582,o),
(78.557,506.644,c),
(89.148,524.297,o),
(102.388,536.653,o),
(119.158,546.363,cs),
(139.459,558.72,o),
(158.878,563.133,o),
(184.475,563.133,cs),
(233.021,563.133,o),
(278.918,534.006,o),
(308.047,492.521,cs),
(311.577,487.225,o),
(318.638,486.342,o),
(323.051,489.873,cs),
(328.347,493.404,o),
(329.23,500.465,o),
(325.7,504.878,cs),
(293.041,551.659,o),
(241.848,584.317,o),
(184.475,584.317,cs),
(157.112,584.317,o),
(132.398,579.904,o),
(108.566,565.781,cs),
(99.74,560.485,o),
(90.913,554.307,o),
(83.852,547.245,c),
(85.618,554.307,o),
(88.265,561.368,o),
(91.796,568.429,cs),
(102.388,590.496,o),
(119.158,609.031,o),
(139.459,620.506,cs),
(157.995,631.98,o),
(180.062,637.276,o),
(202.128,637.276,cs)
);
},
{
closed = 1;
nodes = (
(342.47,159.76,ls),
(342.47,150.051,o),
(341.587,139.459,o),
(339.822,129.75,c),
(331.878,155.347,o),
(318.638,178.296,o),
(303.633,196.832,cs),
(274.505,234.786,o),
(233.021,252.439,o),
(193.302,270.092,cs),
(153.582,287.745,o),
(120.924,305.398,o),
(96.21,338.056,cs),
(79.439,359.24,o),
(62.668,383.954,o),
(58.255,412.2,cs),
(57.373,419.261,o),
(57.373,426.322,o),
(57.373,433.383,cs),
(57.373,444.858,o),
(58.255,456.332,o),
(60.903,466.924,c),
(67.965,441.327,o),
(80.321,417.495,o),
(97.092,398.077,cs),
(127.102,361.888,o),
(167.704,342.47,o),
(205.658,324.817,cs),
(243.612,308.047,o),
(279.801,289.51,o),
(306.281,257.735,cs),
(328.347,232.138,o),
(342.47,196.832,o),
(342.47,161.526,cs)
);
}
);
};
layerId = m01;
shapes = (
{
closed = 1;
nodes = (
(61.786,35.306,o),
(120.041,-4.413,o),
(199.479,-4.413,cs),
(290.393,-4.413,o),
(366.301,71.495,o),
(366.301,164.173,cs),
(366.301,263.031,o),
(284.215,306.281,o),
(208.306,347.766,cs),
(135.046,386.602,o),
(67.965,422.792,o),
(67.965,502.23,cs),
(67.965,582.552,o),
(127.102,646.103,o),
(206.541,646.103,cs),
(262.148,646.103,o),
(308.929,615.21,o),
(333.643,568.429,cs),
(335.409,565.781,o),
(338.056,564.016,o),
(341.587,564.016,cs),
(346.883,564.016,o),
(350.414,568.429,o),
(350.414,572.843,cs),
(350.414,573.725,o),
(350.414,575.491,o),
(349.531,576.373,cs),
(322.169,628.45,o),
(268.327,663.756,o),
(206.541,663.756,cs),
(118.276,663.756,o),
(50.311,590.496,o),
(50.311,502.23,cs),
(50.311,412.2,o),
(127.102,370.715,o),
(200.363,331.878,cs),
(276.271,292.158,o),
(348.648,252.439,o),
(348.648,164.173,cs),
(348.648,79.439,o),
(282.449,13.24,o),
(199.479,13.24,cs),
(126.219,13.24,o),
(75.908,47.664,o),
(52.077,100.623,cs),
(50.931,103.168,o),
(48.546,105.918,o),
(44.133,105.918,cs),
(37.954,105.918,o),
(35.306,101.505,o),
(35.306,97.092,cs),
(35.306,96.21,o),
(35.692,94.707,o),
(36.189,93.561,cs)
);
},
{
closed = 1;
nodes = (
(340.704,98.857,l),
(331.878,183.592,o),
(266.562,219.781,o),
(183.592,263.914,cs),
(89.148,314.225,o),
(43.25,338.939,o),
(43.25,417.495,cs),
(43.25,499.582,o),
(102.388,563.133,o),
(181.826,563.133,cs),
(237.434,563.133,o),
(285.097,531.358,o),
(308.929,483.694,cs),
(310.694,481.046,o),
(313.342,479.281,o),
(316.873,479.281,cs),
(322.169,479.281,o),
(325.7,483.694,o),
(325.7,488.991,cs),
(325.7,489.873,o),
(325.7,491.638,o),
(324.817,492.521,cs),
(298.337,544.598,o),
(243.612,579.904,o),
(181.826,579.904,cs),
(94.444,579.904,o),
(26.48,506.644,o),
(26.48,417.495,cs),
(26.48,321.286,o),
(119.158,278.918,o),
(174.765,248.025,cs),
(238.317,214.485,o),
(323.934,172.118,o),
(323.934,79.439,c)
);
}
);
width = 392.78103;
},
{
anchors = (
{
name = bottom;
pos = (251.556,0);
},
{
name = top;
pos = (251.556,659.343);
}
);
layerId = m002;
shapes = (
{
closed = 1;
nodes = (
(78.557,37.072,o),
(155.347,-4.413,o),
(254.204,-4.413,cs),
(372.48,-4.413,o),
(475.751,77.673,o),
(475.751,185.357,cs),
(475.751,287.745,o),
(397.194,335.409,o),
(279.801,386.602,cs),
(178.296,430.735,o),
(157.995,439.562,o),
(157.995,476.633,cs),
(157.995,526.061,o),
(193.302,556.954,o),
(262.148,556.954,cs),
(310.694,556.954,o),
(341.587,540.184,o),
(361.888,509.292,cs),
(370.715,495.169,o),
(387.485,485.46,o),
(406.021,485.46,cs),
(435.148,485.46,o),
(458.98,509.292,o),
(458.98,538.419,cs),
(458.98,549.011,o),
(455.449,558.72,o),
(450.154,567.546,cs),
(413.082,624.919,o),
(341.587,663.756,o),
(262.148,663.756,cs),
(147.403,663.756,o),
(52.077,582.552,o),
(52.077,476.633,cs),
(52.077,368.95,o),
(157.995,323.934,o),
(238.317,289.51,cs),
(297.455,263.031,o),
(369.832,235.669,o),
(369.832,185.357,cs),
(369.832,135.046,o),
(327.464,101.505,o),
(254.204,101.505,cs),
(188.005,101.505,o),
(155.347,119.158,o),
(136.811,152.699,cs),
(127.985,169.47,o),
(110.332,180.944,o),
(90.031,180.944,cs),
(60.903,180.944,o),
(37.072,157.112,o),
(37.072,127.985,cs),
(37.072,119.158,o),
(39.719,110.332,o),
(43.25,103.271,cs)
);
},
{
closed = 1;
nodes = (
(424.556,137.694,l),
(390.133,189.771,o),
(323.051,221.546,o),
(254.204,251.556,cs),
(176.531,285.097,o),
(132.398,304.516,o),
(132.398,342.47,cs),
(132.398,391.899,o),
(167.704,422.792,o),
(235.669,422.792,cs),
(285.097,422.792,o),
(315.108,406.903,o),
(334.526,376.01,cs),
(343.353,360.123,o),
(360.123,350.414,o),
(379.541,350.414,cs),
(408.669,350.414,o),
(432.5,374.246,o),
(432.5,403.373,cs),
(432.5,413.082,o),
(429.853,422.792,o),
(424.556,430.735,cs),
(388.368,490.755,o),
(315.99,529.592,o),
(235.669,529.592,cs),
(120.924,529.592,o),
(26.48,446.623,o),
(26.48,342.47,cs),
(26.48,241.848,o),
(113.753,197.467,o),
(211.837,154.464,cs),
(292.932,118.91,o),
(343.353,97.092,o),
(343.353,51.194,c)
);
}
);
width = 502.23013;
}
);
note = S;
unicode = 83;
},
{
glyphname = Germandbls;
kernLeft = H;
kernRight = B;
lastChange = "2024-12-12 09:14:51 +0000";
layers = (
{
anchors = (
{
name = bottom;
pos = (231.256,-4.413);
},
{
name = top;
pos = (231.256,711.419);
}
);
hints = (
{
horizontal = 1;
place = (0.882,22.066);
type = Stem;
},
{
horizontal = 1;
place = (628.45,22.066);
type = Stem;
},
{
place = (91.796,21.184);
type = Stem;
},
{
place = (231.256,22.066);
type = Stem;
},
{
place = (311.577,22.066);
type = Stem;
},
{
horizontal = 1;
place = (5.296,22.066);
type = Stem;
},
{
place = (339.822,22.066);
type = Stem;
}
);
layerId = m01;
shapes = (
{
closed = 1;
nodes = (
(278.918,343.353,ls),
(368.067,343.353,o),
(425.439,275.388,o),
(425.439,187.123,cs),
(425.439,173,ls),
(425.439,86.5,o),
(368.067,17.653,o),
(278.918,17.653,cs),
(135.046,17.653,ls),
(129.75,17.653,o),
(126.219,14.122,o),
(126.219,8.827,cs),
(126.219,3.531,o),
(129.75,0,o),
(135.046,0,cs),
(278.918,0,ls),
(377.776,0,o),
(443.092,78.557,o),
(443.092,173,cs),
(443.092,187.123,ls),
(443.092,283.332,o),
(377.776,361.006,o),
(278.918,361.006,cs),
(197.715,361.006,ls),
(192.418,361.006,o),
(188.888,357.475,o),
(188.888,352.179,cs),
(188.888,346.883,o),
(192.418,343.353,o),
(196.832,343.353,cs)
);
},
{
closed = 1;
nodes = (
(406.903,641.69,l),
(191.536,359.24,ls),
(188.888,355.709,o),
(188.888,353.944,o),
(188.888,352.179,cs),
(188.888,346.883,o),
(192.418,343.353,o),
(196.832,343.353,cs),
(199.479,343.353,o),
(202.128,345.117,o),
(203.893,346.883,cs),
(425.439,638.159,ls),
(435.148,649.633,o),
(431.618,659.343,o),
(416.613,659.343,cs),
(71.495,659.343,ls),
(66.199,659.343,o),
(62.668,655.812,o),
(62.668,650.516,cs),
(62.668,645.22,o),
(66.199,641.69,o),
(71.495,641.69,cs)
);
},
{
closed = 1;
nodes = (
(80.321,650.516,ls),
(80.328,655.812,o),
(76.791,659.343,o),
(71.495,659.343,cs),
(66.199,659.343,o),
(62.675,655.812,o),
(62.668,650.516,cs),
(61.786,8.827,ls),
(61.779,3.531,o),
(65.317,0,o),
(70.612,0,cs),
(75.908,0,o),
(79.432,3.531,o),
(79.439,8.827,cs)
);
}
);
width = 468.68927;
},
{
anchors = (
{
name = bottom;
pos = (285.097,40.602);
},
{
name = top;
pos = (285.097,658.46);
}
);
hints = (
{
horizontal = 1;
place = (0.882,22.949);
type = Stem;
},
{
horizontal = 1;
place = (668.169,22.949);
type = Stem;
},
{
place = (97.092,22.066);
type = Stem;
},
{
place = (245.378,22.949);
type = Stem;
},
{
place = (331.878,22.949);
type = Stem;
},
{
horizontal = 1;
place = (5.296,22.949);
type = Stem;
},
{
place = (361.888,22.949);
type = Stem;
}
);
layerId = m002;
shapes = (
{
closed = 1;
nodes = (
(335.409,294.807,ls),
(413.965,294.807,o),
(447.506,262.148,o),
(447.506,205.658,cs),
(447.506,195.066,ls),
(447.506,138.577,o),
(413.965,105.918,o),
(335.409,105.918,cs),
(237.434,105.918,ls),
(208.306,105.918,o),
(184.475,82.087,o),
(184.475,52.959,cs),
(184.475,23.832,o),
(208.306,0,o),
(237.434,0,cs),
(335.409,0,ls),
(464.276,0,o),
(553.424,86.5,o),
(553.424,195.066,cs),
(553.424,205.658,ls),
(553.424,314.225,o),
(464.276,400.725,o),
(335.409,400.725,cs),
(248.909,400.725,ls),
(219.781,400.725,o),
(195.949,376.893,o),
(195.949,347.766,cs),
(195.949,318.638,o),
(219.781,294.807,o),
(248.909,294.807,cs)
);
},
{
closed = 1;
nodes = (
(368.95,553.424,l),
(210.071,383.954,ls),
(201.245,374.246,o),
(195.949,361.888,o),
(195.949,347.766,cs),
(195.949,318.638,o),
(219.781,294.807,o),
(248.909,294.807,cs),
(263.914,294.807,o),
(278.036,300.985,o),
(287.745,311.577,cs),
(490.755,528.71,ls),
(536.653,578.138,o),
(527.827,659.343,o),
(447.506,659.343,cs),
(115.627,659.343,ls),
(86.5,659.343,o),
(62.668,635.511,o),
(62.668,606.383,cs),
(62.668,577.256,o),
(86.5,553.424,o),
(115.627,553.424,cs)
);
},
{
closed = 1;
nodes = (
(168.587,606.383,ls),
(168.587,635.511,o),
(144.756,659.343,o),
(115.627,659.343,cs),
(86.5,659.343,o),
(62.668,635.511,o),
(62.668,606.383,cs),
(61.786,52.959,ls),
(61.786,23.832,o),
(85.618,0,o),
(114.745,0,cs),
(143.872,0,o),
(167.704,23.832,o),
(167.704,52.959,cs)
);
}
);
width = 638.15884;
}
);
unicode = 7838;
},
{
glyphname = T;
kernLeft = T;
kernRight = T;
lastChange = "2024-12-12 09:14:51 +0000";
layers = (
{
anchors = (
{
name = bottom;
pos = (195.949,-4.413);
},
{
name = center;
pos = (195.949,330.113);
},
{
name = top;
pos = (195.949,664.638);
}
);
background = {
hints = (
{
horizontal = 1;
place = (571.077,22.066);
type = Stem;
},
{
horizontal = 1;
place = (635.511,22.066);
type = Stem;
},
{
place = (182.71,22.066);
type = Stem;
}
);
shapes = (
{
closed = 1;
nodes = (
(210.186,571.077,l),
(371.712,571.077,ls),
(377.89,571.077,o),
(383.187,576.373,o),
(383.187,582.552,cs),
(383.187,587.847,o),
(377.89,593.144,o),
(371.712,593.144,cs),
(210.186,593.144,l),
(210.186,635.511,l),
(371.712,635.511,ls),
(377.008,635.511,o),
(382.304,640.806,o),
(382.304,646.103,cs),
(382.304,652.282,o),
(377.008,657.577,o),
(371.712,657.577,cs),
(26.594,657.577,ls),
(21.299,657.577,o),
(16.002,652.282,o),
(16.002,646.103,cs),
(16.002,640.806,o),
(21.299,635.511,o),
(26.594,635.511,cs),
(188.12,635.511,l),
(188.12,593.144,l),
(27.477,593.144,ls),
(21.299,593.144,o),
(16.002,587.847,o),
(16.002,582.552,cs),
(16.002,576.373,o),
(21.299,571.077,o),
(27.477,571.077,cs),
(188.12,571.077,l),
(188.12,10.592,ls),
(188.12,5.296,o),
(193.416,0,o),
(199.595,0,cs),
(204.89,0,o),
(210.186,5.296,o),
(210.186,10.592,cs)
);
}
);
};
layerId = m01;
shapes = (
{
closed = 1;
nodes = (
(187.123,8.827,ls),
(187.123,3.531,o),
(190.653,0,o),
(195.949,0,cs),
(201.245,0,o),
(204.776,3.531,o),
(204.776,8.827,cs),
(204.776,650.516,ls),
(204.776,655.812,o),
(201.245,659.343,o),
(195.949,659.343,cs),
(190.653,659.343,o),
(187.123,655.812,o),
(187.123,650.516,cs)
);
},
{
closed = 1;
nodes = (
(22.066,659.343,ls),
(16.771,659.343,o),
(13.24,655.812,o),
(13.24,650.516,cs),
(13.24,645.22,o),
(16.771,641.69,o),
(22.066,641.69,cs),
(370.715,641.69,ls),
(376.01,641.69,o),
(379.541,645.22,o),
(379.541,650.516,cs),
(379.541,655.812,o),
(376.01,659.343,o),
(370.715,659.343,cs)
);
},
{
closed = 1;
nodes = (
(22.066,550.776,ls),
(16.771,550.776,o),
(13.24,547.245,o),
(13.24,541.95,cs),
(13.24,536.646,o),
(16.771,533.123,o),
(22.066,533.123,cs),
(370.715,533.123,ls),
(376.01,533.123,o),
(379.541,536.653,o),
(379.541,541.95,cs),
(379.541,547.245,o),
(376.01,550.776,o),
(370.715,550.776,cs)
);
}
);
width = 392.37501;
},
{
anchors = (
{
name = bottom;
pos = (251.556,0);
},
{
name = center;
pos = (251.556,330.113);
},
{
name = top;
pos = (251.556,659.343);
}
);
layerId = m002;
shapes = (
{
closed = 1;
nodes = (
(198.597,52.959,ls),
(198.597,23.832,o),
(222.429,0,o),
(251.556,0,cs),
(280.684,0,o),
(304.516,23.832,o),
(304.516,52.959,cs),
(304.516,606.383,ls),
(304.516,635.511,o),
(280.684,659.343,o),
(251.556,659.343,cs),
(222.429,659.343,o),
(198.597,635.511,o),
(198.597,606.383,cs)
);
},
{
closed = 1;
nodes = (
(66.199,659.343,ls),
(37.072,659.343,o),
(13.24,635.511,o),
(13.24,606.383,cs),
(13.24,577.256,o),
(37.072,553.424,o),
(66.199,553.424,cs),
(436.914,553.424,ls),
(466.041,553.424,o),
(489.873,577.256,o),
(489.873,606.383,cs),
(489.873,635.511,o),
(466.041,659.343,o),
(436.914,659.343,cs)
);
},
{
closed = 1;
nodes = (
(66.199,511.939,ls),
(37.072,511.939,o),
(13.24,488.108,o),
(13.24,458.98,cs),
(13.24,429.853,o),
(37.072,406.021,o),
(66.199,406.021,cs),
(436.914,406.021,ls),
(466.041,406.021,o),
(489.873,429.853,o),
(489.873,458.98,cs),
(489.873,488.108,o),
(466.041,511.939,o),
(436.914,511.939,cs)
);
}
);
width = 503.11278;
}
);
note = T;
unicode = 84;
},
{
glyphname = Tbar;
kernLeft = T;
kernRight = T;
lastChange = "2024-12-12 09:14:51 +0000";
layers = (
{
layerId = m01;
shapes = (
{
pos = (4.413,0);
ref = T;
},
{
closed = 1;
nodes = (
(22.066,322.169,ls),
(16.771,322.169,o),
(13.24,318.638,o),
(13.24,313.342,cs),
(13.24,308.047,o),
(16.771,304.516,o),
(22.066,304.516,cs),
(375.128,304.516,ls),
(380.424,304.516,o),
(383.954,308.047,o),
(383.954,313.342,cs),
(383.954,318.638,o),
(380.424,322.169,o),
(375.128,322.169,cs)
);
}
);
width = 397.1943;
},
{
layerId = m002;
shapes = (
{
ref = T;
},
{
closed = 1;
nodes = (
(70.612,366.301,ls),
(41.485,366.301,o),
(17.653,342.47,o),
(17.653,313.342,cs),
(17.653,284.215,o),
(41.485,260.383,o),
(70.612,260.383,cs),
(423.674,260.383,ls),
(452.808,260.383,o),
(476.633,284.215,o),
(476.633,313.342,cs),
(476.633,342.47,o),
(452.808,366.301,o),
(423.674,366.301,cs)
);
}
);
width = 503.11278;
}
);
unicode = 358;
},
{
glyphname = U;
kernLeft = H;
kernRight = H;
lastChange = "2024-12-12 09:14:51 +0000";
layers = (
{
anchors = (
{
name = bottom;
pos = (237.434,-4.413);
},
{
name = ogonek;
pos = (248.909,2.648);
},
{
name = top;
pos = (237.434,664.638);
},
{
name = topright;
pos = (412.414,606.383);
}
);
background = {
hints = (
{
horizontal = 1;
place = (1.765,22.949);
type = Stem;
},
{
horizontal = 1;
place = (153.582,21.184);
type = Stem;
},
{
place = (48.546,22.066);
type = Stem;
},
{
place = (367.184,22.066);
type = Stem;
}
);
shapes = (
{
closed = 1;
nodes = (
(399.842,648.751,ls),
(399.842,654.929,o),
(394.546,660.225,o),
(388.368,660.225,cs),
(383.072,660.225,o),
(377.776,654.929,o),
(377.776,648.751,cs),
(377.776,174.765,l),
(81.204,174.765,l),
(81.204,648.751,ls),
(81.204,654.929,o),
(75.908,660.225,o),
(70.612,660.225,cs),
(64.434,660.225,o),
(59.138,654.929,o),
(59.138,648.751,cs),
(59.138,167.704,ls),
(59.138,164.173,o),
(59.138,159.76,o),
(60.02,155.347,c),
(62.668,113.863,o),
(82.97,73.26,o),
(113.863,45.015,cs),
(148.286,14.122,o),
(186.24,1.765,o),
(229.49,1.765,cs),
(272.74,1.765,o),
(311.577,14.122,o),
(345.117,45.015,cs),
(376.01,73.26,o),
(396.312,113.863,o),
(398.96,155.347,c),
(399.842,159.76,o),
(399.842,164.173,o),
(399.842,167.704,cs)
);
},
{
closed = 1;
nodes = (
(376.893,153.582,l),
(373.362,118.276,o),
(356.593,84.734,o),
(330.113,60.903,cs),
(302.75,36.189,o),
(272.74,24.714,o),
(229.49,24.714,cs),
(191.536,24.714,o),
(157.995,34.424,o),
(128.867,60.903,cs),
(102.388,84.734,o),
(85.618,118.276,o),
(82.087,153.582,c)
);
}
);
};
layerId = m01;
shapes = (
{
closed = 1;
nodes = (
(396.312,169.47,ls),
(396.312,75.026,o),
(336.291,13.24,o),
(243.612,13.24,cs),
(232.138,13.24,ls),
(139.459,13.24,o),
(79.439,75.026,o),
(79.439,169.47,cs),
(79.439,650.516,ls),
(79.439,655.812,o),
(75.908,659.343,o),
(70.612,659.343,cs),
(65.317,659.343,o),
(61.786,655.812,o),
(61.786,650.516,cs),
(61.786,169.47,ls),
(61.786,67.081,o),
(131.516,-4.413,o),
(232.138,-4.413,cs),
(243.612,-4.413,ls),
(344.235,-4.413,o),
(413.965,67.081,o),
(413.965,169.47,cs),
(413.965,650.516,ls),
(413.965,655.812,o),
(410.434,659.343,o),
(405.139,659.343,cs),
(399.842,659.343,o),
(396.312,655.812,o),
(396.312,650.516,cs)
);
},
{
closed = 1;
nodes = (
(403.373,155.347,ls),
(408.669,155.347,o),
(412.2,158.878,o),
(412.2,164.173,cs),
(412.2,168.587,o),
(408.669,172.118,o),
(403.373,172.118,cs),
(72.378,172.118,ls),
(67.081,172.118,o),
(63.551,168.587,o),
(63.551,164.173,cs),
(63.551,158.878,o),
(67.081,155.347,o),
(72.378,155.347,cs)
);
}
);
width = 475.75051;
},
{
anchors = (
{
name = bottom;
pos = (293.041,0);
},
{
name = ogonek;
pos = (296.571,35.306);
},
{
name = top;
pos = (293.041,659.343);
},
{
name = topright;
pos = (521.414,606.383);
}
);
layerId = m002;
shapes = (
{
closed = 1;
nodes = (
(417.495,191.536,ls),
(417.495,131.516,o),
(381.307,101.505,o),
(299.22,101.505,cs),
(285.98,101.505,ls),
(203.893,101.505,o),
(167.704,131.516,o),
(167.704,191.536,cs),
(167.704,606.383,ls),
(167.704,635.511,o),
(143.872,659.343,o),
(114.745,659.343,cs),
(85.618,659.343,o),
(61.786,635.511,o),
(61.786,606.383,cs),
(61.786,191.536,ls),
(61.786,75.908,o),
(156.23,-4.413,o),
(285.98,-4.413,cs),
(299.22,-4.413,ls),
(428.97,-4.413,o),
(523.414,75.908,o),
(523.414,191.536,cs),
(523.414,606.383,ls),
(523.414,635.511,o),
(499.582,659.343,o),
(470.454,659.343,cs),
(441.327,659.343,o),
(417.495,635.511,o),
(417.495,606.383,cs)
);
},
{
closed = 1;
nodes = (
(466.924,186.24,ls),
(496.052,186.24,o),
(519.884,210.071,o),
(519.884,239.199,cs),
(519.884,268.327,o),
(496.052,292.158,o),
(466.924,292.158,cs),
(118.276,292.158,ls),
(89.148,292.158,o),
(65.317,268.327,o),
(65.317,239.199,cs),
(65.317,210.071,o),
(89.148,186.24,o),
(118.276,186.24,cs)
);
}
);
width = 585.1996;
}
);
note = U;
unicode = 85;
},
{
glyphname = V;
kernLeft = V;
kernRight = V;
lastChange = "2024-12-12 09:14:51 +0000";
layers = (
{
anchors = (
{
name = bottom;
pos = (194.184,-4.413);
},
{
name = top;
pos = (194.184,664.638);
}
);
background = {
hints = (
{
horizontal = 1;
place = (659.343,-20);
target = down;
type = TopGhost;
},
{
place = (17.274,348.507);
type = Stem;
}
);
shapes = (
{
closed = 1;
nodes = (
(243.728,256.852,l),
(137.809,654.046,ls),
(136.044,660.225,o),
(129.865,663.756,o),
(124.569,661.99,cs),
(118.391,660.225,o),
(114.86,654.046,o),
(116.625,648.751,cs),
(232.252,212.719,l),
(192.533,57.373,l),
(39.834,651.398,ls),
(38.069,657.577,o),
(32.773,661.108,o),
(26.594,659.343,cs),
(20.415,657.577,o),
(16.885,652.282,o),
(18.651,646.103,cs),
(181.942,10.592,ls),
(182.824,5.296,o),
(187.237,1.765,o),
(192.533,1.765,cs),
(197.829,1.765,o),
(202.243,5.296,o),
(203.125,10.592,cs),
(366.416,646.103,ls),
(368.181,652.282,o),
(364.651,657.577,o),
(358.473,659.343,cs),
(352.294,661.108,o),
(346.997,657.577,o),
(345.233,651.398,cs)
);
}
);
};
layerId = m01;
shapes = (
{
closed = 1;
nodes = (
(34.424,653.164,ls),
(33.541,656.695,o),
(30.011,659.343,o),
(25.597,659.343,cs),
(22.066,659.343,o),
(17.654,654.929,o),
(17.653,649.633,cs),
(17.653,648.751,o),
(17.653,648.751,o),
(17.653,647.868,cs),
(185.357,6.179,ls),
(186.24,2.648,o),
(189.771,0,o),
(194.184,0,cs),
(199.479,0,o),
(203.01,4.413,o),
(203.01,9.709,cs),
(203.01,10.592,o),
(203.01,10.592,o),
(203.01,11.474,cs)
);
},
{
closed = 1;
nodes = (
(139.459,653.164,ls),
(138.577,656.695,o),
(135.046,659.343,o),
(130.633,659.343,cs),
(126.219,659.343,o),
(121.808,654.923,o),
(121.806,649.633,cs),
(121.806,648.751,o),
(121.806,648.751,o),
(121.806,647.868,cs),
(236.551,203.01,l),
(254.204,208.306,l)
);
},
{
closed = 1;
nodes = (
(185.357,11.474,ls),
(185.357,10.592,o),
(185.357,9.709,o),
(185.357,9.709,cs),
(185.357,4.413,o),
(189.771,0,o),
(194.184,0,cs),
(198.597,0,o),
(202.128,2.648,o),
(203.01,6.179,cs),
(370.715,647.868,ls),
(370.715,648.751,o),
(370.715,649.633,o),
(370.715,650.516,cs),
(370.715,654.929,o),
(367.184,659.343,o),
(362.77,659.343,cs),
(358.357,659.343,o),
(354.827,656.695,o),
(353.944,653.164,cs)
);
}
);
width = 388.79143;
},
{
anchors = (
{
name = bottom;
pos = (249.791,0);
},
{
name = top;
pos = (249.791,659.343);
}
);
layerId = m002;
shapes = (
{
closed = 1;
nodes = (
(120.924,622.271,ls),
(113.863,644.337,o),
(94.444,659.343,o),
(70.612,659.343,cs),
(41.485,659.343,o),
(17.653,635.511,o),
(17.653,606.383,cs),
(17.653,601.087,o),
(18.535,594.909,o),
(20.301,590.496,cs),
(199.479,36.189,ls),
(206.541,14.122,o),
(225.959,0,o),
(249.791,0,cs),
(278.918,0,o),
(302.75,22.949,o),
(302.75,52.077,cs),
(302.75,57.373,o),
(301.868,63.551,o),
(300.102,67.965,cs)
);
},
{
closed = 1;
nodes = (
(271.857,622.271,ls),
(264.796,643.455,o),
(245.378,659.343,o),
(221.546,659.343,cs),
(192.418,659.343,o),
(168.587,635.511,o),
(168.587,606.383,cs),
(168.587,601.087,o),
(169.47,595.791,o),
(171.235,590.496,cs),
(271.857,275.388,l),
(372.48,307.163,l)
);
},
{
closed = 1;
nodes = (
(199.479,67.965,ls),
(197.715,63.551,o),
(196.832,57.373,o),
(196.832,52.077,cs),
(196.832,22.949,o),
(220.664,0,o),
(249.791,0,cs),
(273.623,0,o),
(293.041,14.122,o),
(300.102,36.189,cs),
(478.399,590.496,ls),
(480.164,594.909,o),
(481.046,601.087,o),
(481.046,606.383,cs),
(481.046,635.511,o),
(457.215,659.343,o),
(428.087,659.343,cs),
(404.255,659.343,o),
(384.837,644.337,o),
(377.776,622.271,cs)
);
}
);
width = 498.69951;
}
);
note = V;
unicode = 86;
},
{
glyphname = W;
kernLeft = W;
kernRight = W;
lastChange = "2024-12-12 09:14:51 +0000";
layers = (
{
anchors = (
{
name = bottom;
pos = (232.138,-4.413);
},
{
name = top;
pos = (232.138,664.638);
}
);
background = {
hints = (
{
horizontal = 1;
place = (340.704,22.949);
type = Stem;
},
{
horizontal = 1;
place = (659.343,-20);
target = down;
type = TopGhost;
},
{
place = (33.541,396.312);
type = Stem;
}
);
shapes = (
{
closed = 1;
nodes = (
(381.051,363.654,l),
(89.775,363.654,l),
(58.882,649.633,l),
(58.882,655.812,o),
(53.586,660.225,o),
(47.408,659.343,cs),
(41.229,659.343,o),
(36.816,654.046,o),
(37.698,647.868,cs),
(105.663,12.357,l),
(105.663,7.061,o),
(110.076,2.648,o),
(115.371,2.648,cs),
(120.668,1.765,o),
(125.081,4.413,o),
(126.847,9.709,cs),
(235.413,322.169,l),
(343.979,9.709,ls),
(345.745,4.413,o),
(350.158,1.765,o),
(355.453,2.648,cs),
(360.75,2.648,o),
(365.163,7.061,o),
(365.163,12.357,c),
(434.01,647.868,l),
(434.01,654.046,o),
(429.597,659.343,o),
(424.3,659.343,cs),
(418.122,660.225,o),
(412.826,655.812,o),
(411.944,649.633,cs)
);
},
{
closed = 1;
nodes = (
(122.433,63.551,l),
(92.423,340.704,l),
(218.642,340.704,l)
);
},
{
closed = 1;
nodes = (
(252.183,340.704,l),
(378.403,340.704,l),
(348.392,63.551,l)
);
}
);
};
layerId = m01;
shapes = (
{
closed = 1;
nodes = (
(343.353,14.122,ls),
(342.47,7.944,o),
(346,2.648,o),
(350.414,3.531,cs),
(354.827,4.413,o),
(357.475,9.709,o),
(354.827,15.888,cs),
(241.848,341.587,ls),
(238.317,351.296,o),
(225.959,351.296,o),
(223.311,341.587,cs),
(109.449,15.888,ls),
(107.684,9.709,o),
(109.449,4.413,o),
(113.863,3.531,cs),
(118.276,2.648,o),
(121.806,7.944,o),
(120.924,14.122,cs),
(52.959,651.398,ls),
(52.077,655.812,o),
(48.546,659.343,o),
(44.133,659.343,cs),
(38.837,659.343,o),
(34.424,654.929,o),
(35.306,649.633,cs),
(104.153,7.944,ls),
(104.153,3.531,o),
(107.684,0.882,o),
(114.745,0,cs),
(119.158,-0.882,o),
(122.689,1.765,o),
(123.572,5.296,cs),
(232.138,314.225,l),
(340.704,5.296,ls),
(342.47,1.765,o),
(346,-0.882,o),
(353.062,0,cs),
(357.475,0.882,o),
(360.123,3.531,o),
(361.006,7.944,cs),
(428.97,649.633,ls),
(429.853,654.929,o),
(425.439,659.343,o),
(420.143,659.343,cs),
(415.73,659.343,o),
(412.2,655.812,o),
(411.316,651.398,cs)
);
},
{
closed = 1;
nodes = (
(383.954,332.761,ls),
(389.25,332.761,o),
(392.781,336.291,o),
(392.781,341.587,cs),
(392.781,346.883,o),
(389.25,350.414,o),
(383.954,350.414,cs),
(79.439,350.414,ls),
(75.026,350.414,o),
(71.495,346.883,o),
(71.495,341.587,cs),
(71.495,336.291,o),
(75.026,332.761,o),
(79.439,332.761,cs)
);
}
);
width = 464.48784;
},
{
anchors = (
{
name = bottom;
pos = (287.745,0);
},
{
name = top;
pos = (287.745,659.343);
}
);
layerId = m002;
shapes = (
{
closed = 1;
nodes = (
(376.01,125.337,ls),
(368.95,69.73,o),
(385.72,26.48,o),
(412.2,30.011,cs),
(439.562,33.541,o),
(441.327,79.439,o),
(422.792,132.398,cs),
(358.357,309.811,ls),
(332.761,378.659,o),
(243.612,378.659,o),
(218.016,309.811,cs),
(153.582,132.398,ls),
(135.046,79.439,o),
(136.811,33.541,o),
(163.291,30.011,cs),
(190.653,26.48,o),
(207.424,69.73,o),
(200.363,125.337,cs),
(139.459,613.445,ls),
(136.811,639.042,o),
(113.863,659.343,o),
(87.383,659.343,cs),
(55.607,659.343,o),
(31.775,631.098,o),
(35.306,599.322,cs),
(103.271,60.02,ls),
(106.801,29.127,o),
(129.75,6.179,o),
(160.643,2.648,cs),
(190.653,-1.765,o),
(219.781,13.24,o),
(230.372,42.367,cs),
(287.745,203.01,l),
(346,42.367,ls),
(356.593,13.24,o),
(385.72,-1.765,o),
(415.73,2.648,cs),
(446.623,6.179,o),
(469.572,29.127,o),
(473.102,60.02,cs),
(540.184,599.322,ls),
(544.598,631.098,o),
(519.884,659.343,o),
(488.108,659.343,cs),
(461.628,659.343,o),
(439.562,639.042,o),
(436.031,613.445,cs)
);
},
{
closed = 1;
nodes = (
(427.205,285.98,ls),
(456.332,285.98,o),
(480.164,309.811,o),
(480.164,338.939,cs),
(480.164,368.067,o),
(456.332,391.899,o),
(427.205,391.899,cs),
(148.286,391.899,ls),
(119.158,391.899,o),
(95.326,368.067,o),
(95.326,338.939,cs),
(95.326,309.811,o),
(119.158,285.98,o),
(148.286,285.98,cs)
);
}
);
width = 576.35541;
}
);
note = W;
unicode = 87;
},
{
glyphname = X;
kernLeft = X;
kernRight = X;
lastChange = "2024-12-12 09:14:51 +0000";
layers = (
{
anchors = (
{
name = bottom;
pos = (202.128,-4.413);
},
{
name = top;
pos = (202.128,664.638);
}
);
background = {
hints = (
{
horizontal = 1;
place = (637.276,22.066);
type = Stem;
},
{
place = (35.518,353.132);
type = Stem;
}
);
shapes = (
{
closed = 1;
nodes = (
(225.077,330.113,l),
(384.837,643.455,ls),
(387.485,648.751,o),
(385.72,655.812,o),
(380.424,658.46,cs),
(377.776,659.343,o),
(376.01,660.225,o),
(373.362,659.343,c),
(51.194,659.343,l),
(48.546,660.225,o),
(45.898,659.343,o),
(44.133,658.46,cs),
(38.837,655.812,o),
(36.189,648.751,o),
(38.837,643.455,cs),
(196.832,336.291,l),
(34.424,18.535,l),
(30.893,13.24,o),
(33.541,6.179,o),
(38.837,3.531,cs),
(44.133,0.882,o),
(51.194,2.648,o),
(53.842,7.944,cs),
(209.189,312.46,l),
(365.419,7.944,ls),
(368.067,2.648,o),
(375.128,0.882,o),
(380.424,3.531,cs),
(385.72,6.179,o),
(387.485,13.24,o),
(384.837,18.535,cs)
);
},
{
closed = 1;
nodes = (
(67.081,637.276,l),
(356.593,637.276,l),
(212.719,354.827,l)
);
}
);
};
layerId = m01;
shapes = (
{
closed = 1;
nodes = (
(27.362,13.24,ls),
(26.48,12.357,o),
(26.48,10.592,o),
(26.48,9.709,cs),
(26.48,5.296,o),
(30.011,0,o),
(35.306,0,cs),
(38.837,0,o),
(41.485,1.765,o),
(43.25,4.413,cs),
(375.128,646.103,ls),
(376.01,646.985,o),
(376.01,648.751,o),
(376.01,649.633,cs),
(376.01,654.929,o),
(372.48,659.343,o),
(367.184,659.343,cs),
(363.654,659.343,o),
(361.006,657.577,o),
(360.123,654.929,cs)
);
},
{
closed = 1;
nodes = (
(43.25,654.929,ls),
(41.485,657.577,o),
(38.837,659.343,o),
(35.306,659.343,cs),
(30.011,659.343,o),
(26.48,655.812,o),
(26.48,650.516,cs),
(26.48,649.633,o),
(26.48,646.985,o),
(27.362,646.103,cs),
(360.123,4.413,ls),
(361.006,1.765,o),
(363.654,0,o),
(367.184,0,cs),
(372.48,0,o),
(376.01,4.413,o),
(376.01,9.709,cs),
(376.01,10.592,o),
(376.01,12.357,o),
(375.128,13.24,cs)
);
},
{
closed = 1;
nodes = (
(367.184,641.69,ls),
(372.48,641.69,o),
(375.128,645.22,o),
(375.128,650.516,cs),
(375.128,655.812,o),
(372.48,659.343,o),
(367.184,659.343,cs),
(35.306,659.343,ls),
(30.011,659.343,o),
(26.48,655.812,o),
(26.48,650.516,cs),
(26.48,645.22,o),
(31.775,641.69,o),
(37.072,641.69,cs)
);
}
);
width = 402.5167;
},
{
anchors = (
{
name = bottom;
pos = (255.97,0);
},
{
name = top;
pos = (255.97,659.343);
}
);
layerId = m002;
shapes = (
{
closed = 1;
nodes = (
(34.424,81.204,ls),
(29.127,73.26,o),
(26.48,63.551,o),
(26.48,52.959,cs),
(26.48,23.832,o),
(50.311,0,o),
(79.439,0,cs),
(97.974,0,o),
(114.745,9.709,o),
(124.454,24.714,cs),
(477.515,578.138,ls),
(482.812,586.083,o),
(485.46,595.791,o),
(485.46,606.383,cs),
(485.46,635.511,o),
(461.628,659.343,o),
(432.5,659.343,cs),
(413.965,659.343,o),
(397.194,649.633,o),
(387.485,634.629,cs)
);
},
{
closed = 1;
nodes = (
(124.454,634.629,ls),
(114.745,649.633,o),
(97.974,659.343,o),
(79.439,659.343,cs),
(50.311,659.343,o),
(26.48,635.511,o),
(26.48,606.383,cs),
(26.48,595.791,o),
(29.127,586.083,o),
(34.424,578.138,cs),
(387.485,24.714,ls),
(397.194,9.709,o),
(413.965,0,o),
(432.5,0,cs),
(461.628,0,o),
(485.46,23.832,o),
(485.46,52.959,cs),
(485.46,63.551,o),
(482.812,73.26,o),
(477.515,81.204,cs)
);
},
{
closed = 1;
nodes = (
(430.735,553.424,ls),
(459.862,553.424,o),
(483.694,577.256,o),
(483.694,606.383,cs),
(483.694,635.511,o),
(461.628,659.343,o),
(432.5,659.343,cs),
(79.439,659.343,ls),
(50.311,659.343,o),
(30.011,635.511,o),
(30.011,606.383,cs),
(30.011,577.256,o),
(53.842,553.424,o),
(82.97,553.424,cs)
);
}
);
width = 511.93932;
}
);
note = X;
unicode = 88;
},
{
glyphname = Y;
kernLeft = Y;
kernRight = Y;
lastChange = "2024-12-12 09:14:51 +0000";
layers = (
{
anchors = (
{
name = bottom;
pos = (201.245,0);
},
{
name = top;
pos = (201.245,664.638);
},
{
name = topleft;
pos = (27.362,664.638);
}
);
background = {
hints = (
{
horizontal = 1;
place = (637.276,22.949);
type = Stem;
},
{
place = (180.062,22.066);
type = Stem;
}
);
shapes = (
{
closed = 1;
nodes = (
(45.828,641.69,l),
(350.343,641.69,l),
(198.526,342.47,l)
);
},
{
closed = 1;
nodes = (
(367.177,638.441,ls),
(373.356,650.708,o),
(368.039,659.343,o),
(354.302,659.343,cs),
(41.903,659.343,ls),
(28.154,659.343,o),
(22.841,650.697,o),
(29.05,638.432,cs),
(198.526,303.633,l)
);
},
{
closed = 1;
nodes = (
(189.7,8.827,ls),
(189.7,3.531,o),
(193.231,0,o),
(198.526,0,cs),
(203.822,0,o),
(207.353,3.531,o),
(207.353,8.827,cs),
(207.353,323.051,ls),
(207.353,328.347,o),
(203.822,331.878,o),
(198.526,331.878,cs),
(193.231,331.878,o),
(189.7,328.347,o),
(189.7,323.051,cs)
);
}
);
};
layerId = m01;
shapes = (
{
closed = 1;
nodes = (
(192.418,8.827,ls),
(192.418,3.531,o),
(195.949,0,o),
(201.245,0,cs),
(206.541,0,o),
(210.071,3.531,o),
(210.071,8.827,cs),
(210.071,336.291,ls),
(210.071,341.587,o),
(206.541,345.117,o),
(201.245,345.117,cs),
(195.949,345.117,o),
(192.418,341.587,o),
(192.418,336.291,cs)
);
},
{
closed = 1;
nodes = (
(201.245,348.648,l),
(43.25,654.929,ls),
(41.485,657.577,o),
(38.837,659.343,o),
(35.306,659.343,cs),
(30.011,659.343,o),
(26.48,655.812,o),
(26.48,650.516,cs),
(26.48,649.633,o),
(26.79,647.211,o),
(27.362,646.103,c),
(201.245,310.694,l),
(375.128,646.103,l),
(375.703,647.211,o),
(376.01,648.751,o),
(376.01,649.633,cs),
(376.01,654.929,o),
(372.48,659.343,o),
(367.184,659.343,cs),
(363.654,659.343,o),
(361.006,657.577,o),
(360.123,654.929,cs)
);
},
{
closed = 1;
nodes = (
(367.184,641.69,ls),
(372.48,641.69,o),
(375.128,645.22,o),
(375.128,650.516,cs),
(375.128,655.812,o),
(372.48,659.343,o),
(367.184,659.343,cs),
(35.306,659.343,ls),
(30.011,659.343,o),
(26.48,655.812,o),
(26.48,650.516,cs),
(26.48,645.22,o),
(31.775,641.69,o),
(37.072,641.69,cs)
);
}
);
width = 402.5167;
},
{
anchors = (
{
name = bottom;
pos = (255.97,0);
},
{
name = top;
pos = (255.97,659.343);
},
{
name = topleft;
pos = (53.842,659.343);
}
);
background = {
shapes = (
{
closed = 1;
nodes = (
(159.381,553.424,l),
(321.79,553.424,l),
(240.585,422.792,l)
);
},
{
closed = 1;
nodes = (
(432.864,531.707,ls),
(478.217,604.448,o),
(447.754,659.343,o),
(388.511,659.343,cs),
(92.659,659.343,ls),
(33.417,659.343,o),
(2.952,604.448,o),
(48.306,531.707,cs),
(240.585,223.311,l)
);
},
{
closed = 1;
nodes = (
(187.626,52.959,ls),
(187.626,23.832,o),
(211.458,0,o),
(240.585,0,cs),
(269.713,0,o),
(293.544,23.832,o),
(293.544,52.959,cs),
(293.544,323.051,ls),
(293.544,352.179,o),
(269.713,376.01,o),
(240.585,376.01,cs),
(211.458,376.01,o),
(187.626,352.179,o),
(187.626,323.051,cs)
);
}
);
};
layerId = m002;
shapes = (
{
closed = 1;
nodes = (
(203.01,52.959,ls),
(203.01,23.832,o),
(226.842,0,o),
(255.97,0,cs),
(285.097,0,o),
(308.929,23.832,o),
(308.929,52.959,cs),
(308.929,323.051,ls),
(308.929,352.179,o),
(285.097,376.01,o),
(255.97,376.01,cs),
(226.842,376.01,o),
(203.01,352.179,o),
(203.01,323.051,cs)
);
},
{
closed = 1;
nodes = (
(255.97,428.087,l),
(124.454,634.629,ls),
(114.745,649.633,o),
(97.974,659.343,o),
(79.439,659.343,cs),
(50.311,659.343,o),
(26.48,635.511,o),
(26.48,606.383,cs),
(26.48,595.791,o),
(29.274,586.178,o),
(34.424,578.138,cs),
(255.97,231.256,l),
(477.515,578.138,ls),
(482.812,586.083,o),
(485.46,595.791,o),
(485.46,606.383,cs),
(485.46,635.511,o),
(461.628,659.343,o),
(432.5,659.343,cs),
(413.965,659.343,o),
(397.194,649.633,o),
(387.485,634.629,cs)
);
},
{
closed = 1;
nodes = (
(430.735,553.424,ls),
(459.862,553.424,o),
(483.694,577.256,o),
(483.694,606.383,cs),
(483.694,635.511,o),
(461.628,659.343,o),
(432.5,659.343,cs),
(79.439,659.343,ls),
(50.311,659.343,o),
(30.011,635.511,o),
(30.011,606.383,cs),
(30.011,577.256,o),
(53.842,553.424,o),
(82.97,553.424,cs)
);
}
);
width = 511.93932;
}
);
note = Y;
unicode = 89;
},
{
glyphname = Z;
kernLeft = Z;
kernRight = Z;
lastChange = "2024-12-12 09:14:51 +0000";
layers = (
{
anchors = (
{
name = bottom;
pos = (211.837,-4.413);
},
{
name = center;
pos = (211.837,330.113);
},
{
name = top;
pos = (211.837,664.638);
}
);
background = {
hints = (
{
horizontal = 1;
place = (1.765,22.949);
type = Stem;
},
{
horizontal = 1;
place = (335.409,22.949);
type = Stem;
},
{
horizontal = 1;
place = (425.439,22.949);
type = Stem;
},
{
horizontal = 1;
place = (637.276,22.949);
type = Stem;
},
{
place = (33.982,345.559);
type = Stem;
}
);
shapes = (
{
closed = 1;
nodes = (
(197.811,335.409,l),
(42.465,17.653,ls),
(40.699,14.122,o),
(40.699,10.592,o),
(42.465,7.061,c),
(45.112,4.413,o),
(47.76,1.765,o),
(52.173,1.765,cs),
(365.516,1.765,ls),
(371.694,1.765,o),
(376.108,7.061,o),
(376.108,13.24,cs),
(376.108,19.419,o),
(371.694,24.714,o),
(365.516,24.714,cs),
(69.827,24.714,l),
(222.526,335.409,l),
(343.449,335.409,ls),
(349.628,335.409,o),
(354.041,340.704,o),
(354.041,346.883,cs),
(354.041,353.062,o),
(349.628,358.357,o),
(343.449,358.357,cs),
(233.118,358.357,l),
(265.776,425.439,l),
(376.108,425.439,ls),
(382.286,425.439,o),
(386.7,430.735,o),
(386.7,436.914,cs),
(386.7,443.092,o),
(382.286,448.388,o),
(376.108,448.388,cs),
(277.25,448.388,l),
(372.577,644.337,ls),
(374.342,647.868,o),
(374.342,651.398,o),
(372.577,654.929,c),
(369.929,657.577,o),
(366.399,660.225,o),
(362.868,660.225,cs),
(68.061,660.225,ls),
(61.883,660.225,o),
(56.587,654.929,o),
(56.587,648.751,cs),
(56.587,642.572,o),
(61.883,637.276,o),
(68.061,637.276,cs),
(345.215,637.276,l),
(252.536,448.388,l),
(121.903,448.388,ls),
(115.725,448.388,o),
(111.311,443.092,o),
(111.311,436.914,cs),
(111.311,430.735,o),
(115.725,425.439,o),
(121.903,425.439,cs),
(241.944,425.439,l),
(208.403,358.357,l),
(83.949,358.357,ls),
(77.771,358.357,o),
(72.474,353.062,o),
(72.474,346.883,cs),
(72.474,340.704,o),
(77.771,335.409,o),
(83.949,335.409,cs)
);
}
);
};
layerId = m01;
shapes = (
{
closed = 1;
nodes = (
(54.725,17.653,l),
(362.77,638.159,ls),
(368.95,650.516,o),
(363.654,659.343,o),
(350.414,659.343,cs),
(55.607,659.343,ls),
(50.311,659.343,o),
(46.781,655.812,o),
(46.781,650.516,cs),
(46.781,645.22,o),
(50.311,641.69,o),
(55.607,641.69,cs),
(345.117,641.69,l),
(37.954,21.184,ls),
(31.775,8.827,o),
(37.072,0,o),
(50.311,0,cs),
(364.536,0,ls),
(369.832,0,o),
(373.362,3.531,o),
(373.362,8.827,cs),
(373.362,14.122,o),
(369.832,17.653,o),
(364.536,17.653,cs)
);
},
{
closed = 1;
nodes = (
(381.307,430.735,ls),
(386.602,430.735,o),
(390.133,434.266,o),
(390.133,438.679,cs),
(390.133,443.975,o),
(386.602,447.506,o),
(381.307,447.506,cs),
(110.332,447.506,ls),
(105.918,447.506,o),
(102.388,443.975,o),
(102.388,438.679,cs),
(102.388,434.266,o),
(105.918,430.735,o),
(110.332,430.735,cs)
);
},
{
closed = 1;
nodes = (
(342.47,338.939,ls),
(347.766,338.939,o),
(351.296,342.47,o),
(351.296,347.766,cs),
(351.296,353.062,o),
(347.766,356.593,o),
(342.47,356.593,cs),
(71.495,356.593,ls),
(66.199,356.593,o),
(62.668,353.062,o),
(62.668,347.766,cs),
(62.668,342.47,o),
(66.199,338.939,o),
(71.495,338.939,cs)
);
}
);
width = 425.53632;
},
{
anchors = (
{
name = bottom;
pos = (254.204,0);
},
{
name = center;
pos = (254.204,330.113);
},
{
name = top;
pos = (254.204,659.343);
}
);
layerId = m002;
shapes = (
{
closed = 1;
nodes = (
(166.822,105.918,l),
(427.205,532.24,ls),
(471.338,604.618,o),
(441.327,659.343,o),
(355.709,659.343,cs),
(88.265,659.343,ls),
(59.138,659.343,o),
(35.306,635.511,o),
(35.306,606.383,cs),
(35.306,577.256,o),
(59.138,553.424,o),
(88.265,553.424,cs),
(315.99,553.424,l),
(55.607,127.102,ls),
(11.474,54.725,o),
(41.485,0,o),
(127.102,0,cs),
(416.613,0,ls),
(445.74,0,o),
(469.572,23.832,o),
(469.572,52.959,cs),
(469.572,82.087,o),
(445.74,105.918,o),
(416.613,105.918,cs)
);
},
{
closed = 1;
nodes = (
(422.792,369.832,ls),
(451.919,369.832,o),
(475.751,393.663,o),
(475.751,422.792,cs),
(475.751,451.919,o),
(451.919,475.751,o),
(422.792,475.751,cs),
(134.164,475.751,ls),
(105.036,475.751,o),
(81.204,451.919,o),
(81.204,422.792,cs),
(81.204,393.663,o),
(105.036,369.832,o),
(134.164,369.832,cs)
);
},
{
closed = 1;
nodes = (
(379.541,225.077,ls),
(408.669,225.077,o),
(432.5,248.909,o),
(432.5,278.036,cs),
(432.5,307.163,o),
(408.669,330.995,o),
(379.541,330.995,cs),
(91.796,330.995,ls),
(62.668,330.995,o),
(38.837,307.163,o),
(38.837,278.036,cs),
(38.837,248.909,o),
(62.668,225.077,o),
(91.796,225.077,cs)
);
}
);
width = 511.33029;
}
);
note = Z;
unicode = 90;
},
{
glyphname = Saltillo;
lastChange = "2024-12-12 09:14:51 +0000";
layers = (
{
layerId = m01;
shapes = (
{
closed = 1;
nodes = (
(87.383,415.751,ls),
(87.383,410.454,o),
(90.913,406.924,o),
(96.21,406.924,cs),
(100.623,406.924,o),
(104.153,410.454,o),
(104.153,415.751,cs),
(104.153,699.062,ls),
(104.153,703.475,o),
(100.623,707.006,o),
(96.21,707.006,cs),
(90.913,707.006,o),
(87.383,703.475,o),
(87.383,699.062,cs)
);
}
);
width = 194.15;
},
{
layerId = m002;
shapes = (
{
closed = 1;
nodes = (
(87.383,394.567,ls),
(87.383,365.439,o),
(111.214,341.608,o),
(140.342,341.608,cs),
(169.47,341.608,o),
(193.302,365.439,o),
(193.302,394.567,cs),
(193.302,646.985,ls),
(193.302,676.113,o),
(169.47,699.944,o),
(140.342,699.944,cs),
(111.214,699.944,o),
(87.383,676.113,o),
(87.383,646.985,cs)
);
}
);
width = 283.3;
}
);
unicode = 42891;
},
{
glyphname = A.ss01;
kernLeft = A;
kernRight = A;
lastChange = "2024-12-28 15:31:10 +0000";
layers = (
{
anchors = (
{
name = bottom;
pos = (199.479,-4.413);
},
{
name = ogonek;
pos = (368.067,5.296);
},
{
name = top;
pos = (199.921,664.638);
}
);
layerId = m01;
shapes = (
{
closed = 1;
nodes = (
(27.362,14.122,ls),
(26.48,11.474,o),
(26.48,8.827,o),
(26.48,7.944,cs),
(26.48,3.531,o),
(30.011,0,o),
(34.424,0,cs),
(38.837,0,o),
(42.131,2.702,o),
(43.25,7.061,cs),
(208.306,653.164,l),
(199.921,663.756,l),
(195.066,663.756,o),
(191.536,661.108,o),
(190.653,656.695,cs)
);
},
{
closed = 1;
nodes = (
(310.694,198.597,ls),
(315.99,198.597,o),
(319.521,202.128,o),
(319.521,207.424,cs),
(319.521,212.719,o),
(315.99,216.25,o),
(310.694,216.25,cs),
(88.265,216.25,ls),
(82.97,216.25,o),
(79.439,212.719,o),
(79.439,207.424,cs),
(79.439,202.128,o),
(82.97,198.597,o),
(88.265,198.597,cs)
);
},
{
closed = 1;
nodes = (
(209.189,656.695,ls),
(208.306,661.108,o),
(204.776,663.756,o),
(199.921,663.756,c),
(191.536,653.164,l),
(356.593,7.061,ls),
(357.475,2.648,o),
(361.888,0,o),
(366.301,0,cs),
(369.832,0,o),
(373.362,4.413,o),
(373.362,8.827,cs),
(373.362,9.709,o),
(373.362,9.709,o),
(373.362,10.592,cs)
);
}
);
width = 400.09823;
},
{
anchors = (
{
name = bottom;
pos = (255.087,0);
},
{
name = ogonek;
pos = (425.439,42.367);
},
{
name = top;
pos = (254.204,659.343);
}
);
layerId = m002;
shapes = (
{
closed = 1;
nodes = (
(29.127,67.965,ls),
(27.362,62.668,o),
(26.48,57.373,o),
(26.48,52.077,cs),
(26.48,22.949,o),
(50.311,-0.882,o),
(79.439,-0.882,cs),
(103.271,-0.882,o),
(123.153,15.132,o),
(129.75,36.189,cs),
(304.516,594.026,l),
(254.204,662.873,l),
(230.372,662.873,o),
(210.49,646.859,o),
(203.893,625.802,cs)
);
},
{
closed = 1;
nodes = (
(373.362,144.756,ls),
(402.49,144.756,o),
(426.322,168.587,o),
(426.322,197.715,cs),
(426.322,226.842,o),
(402.49,250.674,o),
(373.362,250.674,cs),
(135.929,250.674,ls),
(106.801,250.674,o),
(82.97,226.842,o),
(82.97,197.715,cs),
(82.97,168.587,o),
(106.801,144.756,o),
(135.929,144.756,cs)
);
},
{
closed = 1;
nodes = (
(304.516,625.802,ls),
(297.455,646.985,o),
(278.036,662.873,o),
(254.204,662.873,c),
(203.893,594.026,l),
(379.541,36.189,ls),
(386.602,15.005,o),
(406.021,-0.882,o),
(429.853,-0.882,cs),
(458.98,-0.882,o),
(482.812,22.949,o),
(482.812,52.077,cs),
(482.812,57.373,o),
(481.929,62.668,o),
(480.164,67.965,cs)
);
}
);
width = 509.29136;
}
);
note = A;
},
{
glyphname = AE.ss01;
kernLeft = A;
kernRight = E;
lastChange = "2024-12-28 15:31:10 +0000";
layers = (
{
anchors = (
{
name = top;
pos = (449.271,659.343);
}
);
layerId = m01;
shapes = (
{
closed = 1;
nodes = (
(27.362,13.24,ls),
(26.48,11.474,o),
(26.48,10.592,o),
(26.48,8.827,cs),
(26.48,4.413,o),
(30.011,0,o),
(35.306,0,cs),
(38.837,0,o),
(41.485,1.765,o),
(43.25,4.413,cs),
(380.424,646.103,ls),
(381.307,647.868,o),
(381.307,657.577,o),
(381.307,659.343,c),
(372.48,659.343,l),
(368.95,659.343,o),
(366.301,657.577,o),
(364.536,654.929,cs)
);
},
{
closed = 1;
nodes = (
(367.184,200.363,ls),
(372.48,200.363,o),
(376.01,203.893,o),
(376.01,209.189,cs),
(376.01,214.485,o),
(372.48,218.016,o),
(367.184,218.016,cs),
(142.107,218.016,ls),
(137.694,218.016,o),
(133.28,214.485,o),
(133.28,209.189,cs),
(133.28,203.893,o),
(137.694,200.363,o),
(142.107,200.363,cs)
);
},
{
alignment = -1;
pos = (301.868,0);
ref = E.ss01;
}
);
width = 682.29154;
},
{
anchors = (
{
name = top;
pos = (469.572,659.343);
}
);
layerId = m002;
shapes = (
{
closed = 1;
nodes = (
(32.658,78.557,ls),
(29.127,70.612,o),
(26.48,61.786,o),
(26.48,52.959,cs),
(26.48,23.832,o),
(50.311,0,o),
(79.439,0,cs),
(99.74,0,o),
(117.393,10.592,o),
(126.219,27.362,cs),
(417.495,580.786,ls),
(421.026,588.73,o),
(423.674,650.516,o),
(423.674,659.343,c),
(370.715,659.343,l),
(350.414,659.343,o),
(332.761,648.751,o),
(323.934,631.98,cs)
);
},
{
closed = 1;
nodes = (
(424.556,142.99,ls),
(453.684,142.99,o),
(477.515,166.822,o),
(477.515,195.949,cs),
(477.515,225.077,o),
(453.684,248.909,o),
(424.556,248.909,cs),
(170.352,248.909,ls),
(141.225,248.909,o),
(117.393,225.077,o),
(117.393,195.949,cs),
(117.393,166.822,o),
(141.225,142.99,o),
(170.352,142.99,cs)
);
},
{
alignment = -1;
pos = (322.169,0);
ref = E.ss01;
}
);
width = 807.62841;
}
);
metricLeft = A;
metricRight = E;
},
{
glyphname = B.ss01;
kernLeft = H;
kernRight = B;
lastChange = "2024-12-28 15:31:10 +0000";
layers = (
{
anchors = (
{
name = bottom;
pos = (206.541,-4.413);
},
{
name = center;
pos = (206.541,330.113);
},
{
name = top;
pos = (206.541,664.638);
}
);
layerId = m01;
shapes = (
{
closed = 1;
nodes = (
(204.776,0,ls),
(302.75,0,o),
(368.95,78.557,o),
(368.95,173,cs),
(368.95,187.123,ls),
(368.95,283.332,o),
(302.75,361.006,o),
(204.776,361.006,cs),
(70.612,361.006,l),
(70.612,343.353,l),
(190.653,343.353,ls),
(279.801,343.353,o),
(338.939,413.965,o),
(338.939,496.934,cs),
(338.939,505.761,ls),
(338.939,589.613,o),
(279.801,659.343,o),
(190.653,659.343,cs),
(76.791,659.343,ls),
(67.081,659.343,o),
(61.786,654.046,o),
(61.786,644.337,cs),
(61.786,15.005,ls),
(61.786,5.296,o),
(67.081,0,o),
(76.791,0,cs)
);
},
{
closed = 1;
nodes = (
(79.439,17.653,l),
(79.439,641.69,l),
(190.653,641.69,ls),
(270.092,641.69,o),
(321.286,581.669,o),
(321.286,505.761,cs),
(321.286,496.934,ls),
(321.286,421.908,o),
(270.092,361.006,o),
(190.653,361.006,cs),
(70.612,361.006,l),
(70.612,343.353,l),
(204.776,343.353,ls),
(293.924,343.353,o),
(351.296,275.388,o),
(351.296,187.123,cs),
(351.296,173,ls),
(351.296,86.5,o),
(293.924,17.653,o),
(204.776,17.653,cs)
);
}
);
width = 413.08207;
},
{
anchors = (
{
name = bottom;
pos = (259.501,0);
},
{
name = center;
pos = (259.501,330.113);
},
{
name = top;
pos = (259.501,659.343);
}
);
layerId = m002;
shapes = (
{
closed = 1;
nodes = (
(257.735,0,ls),
(384.837,0,o),
(475.751,86.5,o),
(475.751,194.184,cs),
(475.751,205.658,ls),
(475.751,314.225,o),
(384.837,400.725,o),
(257.735,400.725,cs),
(114.745,400.725,l),
(114.745,294.807,l),
(242.73,294.807,ls),
(361.006,294.807,o),
(443.975,375.128,o),
(443.975,473.102,cs),
(443.975,481.046,ls),
(443.975,579.904,o),
(360.123,659.343,o),
(242.73,659.343,cs),
(114.745,659.343,ls),
(80.321,659.343,o),
(61.786,640.806,o),
(61.786,606.383,cs),
(61.786,52.959,ls),
(61.786,18.535,o),
(80.321,0,o),
(114.745,0,cs)
);
},
{
closed = 1;
nodes = (
(167.704,105.918,l),
(167.704,553.424,l),
(242.73,553.424,ls),
(310.694,553.424,o),
(338.056,526.945,o),
(338.056,481.046,cs),
(338.056,473.102,ls),
(338.056,427.205,o),
(310.694,400.725,o),
(242.73,400.725,cs),
(114.745,400.725,l),
(114.745,294.807,l),
(257.735,294.807,ls),
(335.409,294.807,o),
(369.832,261.265,o),
(369.832,205.658,cs),
(369.832,194.184,ls),
(369.832,139.459,o),
(335.409,105.918,o),
(257.735,105.918,cs)
);
}
);
width = 519.88321;
}
);
note = B;
},
{
glyphname = C.ss01;
kernLeft = O;
kernRight = C;
lastChange = "2024-12-28 15:31:10 +0000";
layers = (
{
anchors = (
{
name = bottom;
pos = (220.664,-4.413);
},
{
name = top;
pos = (220.664,664.638);
}
);
layerId = m01;
shapes = (
{
closed = 1;
nodes = (
(360.123,47.664,o),
(317.755,13.24,o),
(248.025,13.24,cs),
(235.669,13.24,ls),
(128.867,13.24,o),
(70.612,90.913,o),
(70.612,236.551,cs),
(70.612,422.792,ls),
(70.612,569.312,o),
(128.867,646.103,o),
(235.669,646.103,cs),
(248.025,646.103,ls),
(300.985,646.103,o),
(339.822,629.332,o),
(368.067,593.144,cs),
(369.832,590.496,o),
(371.597,589.613,o),
(374.246,589.613,cs),
(379.541,589.613,o),
(383.072,593.144,o),
(383.072,598.439,cs),
(383.072,600.205,o),
(382.189,601.97,o),
(381.307,603.736,cs),
(350.414,643.455,o),
(304.516,663.756,o),
(248.025,663.756,cs),
(235.669,663.756,ls),
(119.158,663.756,o),
(52.959,576.373,o),
(52.959,422.792,cs),
(52.959,236.551,ls),
(52.959,83.852,o),
(119.158,-4.413,o),
(235.669,-4.413,cs),
(248.025,-4.413,ls),
(325.7,-4.413,o),
(374.246,36.189,o),
(395.429,105.036,cs),
(395.429,105.918,o),
(395.429,105.918,o),
(395.429,106.801,cs),
(395.429,111.214,o),
(391.016,116.51,o),
(386.602,116.51,cs),
(382.189,116.51,o),
(378.659,113.863,o),
(377.776,110.332,cs)
);
}
);
width = 439.85297;
},
{
anchors = (
{
name = bottom;
pos = (273.623,0);
},
{
name = top;
pos = (273.623,659.343);
}
);
background = {
hints = (
{
horizontal = 1;
place = (1.765,22.066);
type = Stem;
},
{
horizontal = 1;
place = (637.276,22.949);
type = Stem;
},
{
place = (38.837,22.066);
type = Stem;
},
{
place = (130.633,22.949);
type = Stem;
}
);
shapes = (
{
closed = 1;
nodes = (
(284.215,23.832,ls),
(252.439,23.832,o),
(231.256,30.893,o),
(207.424,45.015,c),
(208.306,45.015,l),
(208.306,616.092,l),
(231.256,631.098,o),
(253.322,637.276,o),
(285.097,637.276,cs),
(313.342,637.276,o),
(339.822,631.98,o),
(367.184,615.21,cs),
(378.659,607.266,o),
(389.25,598.439,o),
(398.077,588.73,cs),
(402.49,584.317,o),
(409.552,584.317,o),
(413.965,587.847,cs),
(418.378,592.261,o),
(418.378,599.322,o),
(414.847,603.736,cs),
(404.255,615.21,o),
(391.899,624.919,o),
(378.659,633.745,cs),
(346.883,653.164,o),
(317.755,660.225,o),
(285.097,660.225,cs),
(248.025,660.225,o),
(220.664,650.516,o),
(193.302,633.745,cs),
(152.699,607.266,o),
(126.219,565.781,o),
(112.097,522.531,cs),
(97.974,479.281,o),
(93.561,434.266,o),
(93.561,390.133,cs),
(93.561,330.995,l),
(93.561,270.975,ls),
(93.561,226.842,o),
(97.974,181.826,o),
(112.097,138.577,cs),
(126.219,95.326,o),
(152.699,53.842,o),
(193.302,28.245,cs),
(224.194,8.827,o),
(252.439,1.765,o),
(284.215,1.765,cs),
(285.097,1.765,ls),
(322.169,2.648,o),
(353.062,9.709,o),
(380.424,29.127,cs),
(406.021,47.664,o),
(422.792,72.378,o),
(431.618,100.623,cs),
(433.383,106.801,o),
(429.853,112.98,o),
(424.556,114.745,cs),
(418.378,116.51,o),
(412.2,112.98,o),
(410.434,107.684,cs),
(402.49,82.97,o),
(389.25,62.668,o),
(367.184,46.781,cs),
(344.235,30.011,o),
(319.521,24.714,o),
(285.097,23.832,cs)
);
},
{
closed = 1;
nodes = (
(185.357,60.903,l),
(160.643,82.97,o),
(142.99,113.863,o),
(132.398,145.638,cs),
(120.041,185.357,o),
(115.627,227.725,o),
(115.627,270.975,cs),
(115.627,292.158,o),
(114.745,311.577,o),
(114.745,330.995,cs),
(114.745,350.414,o),
(115.627,368.95,o),
(115.627,390.133,cs),
(115.627,433.383,o),
(120.041,475.751,o),
(132.398,515.47,cs),
(142.99,548.128,o),
(160.643,578.138,o),
(185.357,600.205,c)
);
}
);
};
layerId = m002;
shapes = (
{
closed = 1;
nodes = (
(386.956,116.379,o),
(365.419,101.505,o),
(303.633,101.505,cs),
(291.276,101.505,ls),
(195.066,101.505,o),
(158.878,141.225,o),
(158.878,249.791,cs),
(158.878,409.552,ls),
(158.878,518.118,o),
(195.066,557.837,o),
(291.276,557.837,cs),
(303.633,557.837,ls),
(351.296,557.837,o),
(376.893,548.128,o),
(398.96,525.179,cs),
(408.669,514.587,o),
(422.792,508.408,o),
(437.796,508.408,cs),
(466.924,508.408,o),
(490.755,532.24,o),
(490.755,561.368,cs),
(490.755,575.491,o),
(485.46,587.847,o),
(476.633,597.557,cs),
(434.266,641.69,o),
(373.362,663.756,o),
(303.633,663.756,cs),
(291.276,663.756,ls),
(141.225,663.756,o),
(52.959,567.546,o),
(52.959,409.552,cs),
(52.959,249.791,ls),
(52.959,92.679,o),
(141.225,-4.413,o),
(291.276,-4.413,cs),
(303.633,-4.413,ls),
(403.373,-4.413,o),
(473.102,42.367,o),
(500.465,120.924,cs),
(502.23,126.219,o),
(503.995,132.398,o),
(503.995,138.577,cs),
(503.995,167.704,o),
(480.164,191.536,o),
(451.036,191.536,cs),
(428.087,191.536,o),
(409.024,176.404,o),
(401.608,156.23,cs)
);
}
);
width = 548.12813;
}
);
note = C;
},
{
glyphname = D.ss01;
kernLeft = H;
kernRight = O;
lastChange = "2024-12-28 15:31:10 +0000";
layers = (
{
anchors = (
{
name = bottom;
pos = (209.189,-4.413);
},
{
name = center;
pos = (222.429,330.113);
},
{
name = top;
pos = (209.189,664.638);
}
);
layerId = m01;
shapes = (
{
closed = 1;
nodes = (
(76.791,659.343,ls),
(67.081,659.343,o),
(61.786,654.046,o),
(61.786,644.337,cs),
(61.786,15.005,ls),
(61.786,5.296,o),
(67.081,0,o),
(76.791,0,cs),
(203.893,0,ls),
(322.169,0,o),
(399.842,119.158,o),
(399.842,291.276,cs),
(399.842,368.95,ls),
(399.842,541.95,o),
(322.169,659.343,o),
(203.893,659.343,cs)
);
},
{
closed = 1;
nodes = (
(203.893,641.69,ls),
(311.577,641.69,o),
(382.189,536.653,o),
(382.189,368.95,cs),
(382.189,291.276,ls),
(382.189,124.454,o),
(311.577,17.653,o),
(203.893,17.653,cs),
(79.439,17.653,l),
(79.439,641.69,l)
);
}
);
width = 452.8015;
},
{
anchors = (
{
name = bottom;
pos = (236.551,0);
},
{
name = center;
pos = (276.271,330.113);
},
{
name = top;
pos = (236.551,659.343);
}
);
background = {
hints = (
{
horizontal = 1;
place = (1.765,21);
target = up;
type = BottomGhost;
},
{
horizontal = 1;
place = (637.276,22.949);
type = Stem;
},
{
place = (54.725,21.184);
type = Stem;
},
{
place = (305.398,21.184);
type = Stem;
},
{
place = (376.01,22.066);
type = Stem;
},
{
horizontal = 1;
place = (2.648,21.184);
type = Stem;
}
);
shapes = (
{
closed = 1;
nodes = (
(111.214,660.225,ls),
(105.036,660.225,o),
(100.623,654.929,o),
(100.623,648.751,cs),
(100.623,13.24,ls),
(100.623,7.061,o),
(105.036,1.765,o),
(111.214,1.765,cs),
(143.872,1.765,l),
(145.638,0.882,o),
(148.286,0,o),
(150.051,0,cs),
(158.878,0,o),
(168.587,0.882,o),
(177.413,2.648,c),
(218.898,2.648,l),
(220.664,1.765,o),
(221.546,1.765,o),
(223.311,1.765,cs),
(260.383,1.765,o),
(297.455,13.24,o),
(328.347,34.424,cs),
(375.128,65.317,o),
(406.021,115.627,o),
(421.908,167.704,cs),
(438.679,219.781,o),
(443.092,274.505,o),
(443.092,328.347,c),
(443.975,330.995,o),
(443.975,333.643,o),
(443.975,336.291,cs),
(443.975,385.72,o),
(439.562,435.148,o),
(426.322,482.812,cs),
(413.082,534.006,o),
(386.602,583.434,o),
(344.235,616.975,cs),
(309.811,644.337,o),
(266.562,660.225,o),
(222.429,660.225,cs)
);
},
{
closed = 1;
nodes = (
(121.806,23.832,l),
(121.806,637.276,l),
(143.872,637.276,l),
(145.638,636.393,o),
(148.286,635.511,o),
(150.051,635.511,cs),
(181.826,635.511,o),
(225.959,626.684,o),
(257.735,598.439,c),
(300.102,565.781,o),
(323.051,514.587,o),
(333.643,476.633,cs),
(346.883,428.97,o),
(351.296,376.893,o),
(351.296,324.817,cs),
(351.296,272.74,o),
(346,220.664,o),
(329.23,173.883,cs),
(312.46,126.219,o),
(285.98,80.321,o),
(245.378,51.194,cs),
(224.194,36.189,o),
(200.363,27.362,o),
(175.648,23.832,c)
);
},
{
closed = 1;
nodes = (
(250.674,28.245,o),
(254.204,30.893,o),
(257.735,33.541,cs),
(308.047,68.847,o),
(334.526,122.689,o),
(350.414,166.822,cs),
(368.95,217.133,o),
(372.48,270.975,o),
(372.48,324.817,cs),
(372.48,378.659,o),
(368.067,432.5,o),
(354.827,481.929,cs),
(343.353,524.297,o),
(318.638,579.904,o),
(271.857,616.092,cs),
(262.148,624.037,o),
(251.556,631.098,o),
(240.082,636.393,c),
(272.74,632.863,o),
(304.516,619.623,o),
(330.113,599.322,cs),
(372.48,565.781,o),
(394.546,516.353,o),
(405.139,477.515,cs),
(417.495,431.618,o),
(421.908,383.954,o),
(421.908,336.291,cs),
(421.908,328.347,ls),
(421.026,276.271,o),
(416.613,223.311,o),
(401.608,174.765,cs),
(385.72,125.337,o),
(357.475,80.321,o),
(315.99,52.077,cs),
(294.807,38.837,o),
(270.975,29.127,o),
(246.261,25.597,c)
);
}
);
};
layerId = m002;
shapes = (
{
closed = 1;
nodes = (
(114.745,659.343,ls),
(80.321,659.343,o),
(61.786,640.806,o),
(61.786,606.383,cs),
(61.786,52.077,ls),
(61.786,17.653,o),
(80.321,-0.882,o),
(114.745,-0.882,cs),
(256.852,-0.882,ls),
(406.903,-0.882,o),
(508.408,121.806,o),
(508.408,295.689,cs),
(508.408,362.77,ls),
(508.408,536.653,o),
(406.903,659.343,o),
(256.852,659.343,cs)
);
},
{
closed = 1;
nodes = (
(256.852,553.424,ls),
(351.296,553.424,o),
(402.49,490.755,o),
(402.49,362.77,cs),
(402.49,295.689,ls),
(402.49,167.704,o),
(351.296,105.036,o),
(256.852,105.036,cs),
(167.704,105.036,l),
(167.704,553.424,l)
);
}
);
width = 561.36794;
}
);
note = D;
},
{
glyphname = Eth.ss01;
kernLeft = H;
lastChange = "2024-12-28 15:31:10 +0000";
layers = (
{
layerId = m01;
shapes = (
{
pos = (2.648,0);
ref = D.ss01;
},
{
closed = 1;
nodes = (
(195.949,310.694,ls),
(201.245,310.694,o),
(204.776,314.225,o),
(204.776,319.521,cs),
(204.776,324.817,o),
(201.245,328.347,o),
(195.949,328.347,cs),
(26.48,328.347,ls),
(21.184,328.347,o),
(17.653,324.817,o),
(17.653,319.521,cs),
(17.653,314.225,o),
(21.184,310.694,o),
(26.48,310.694,cs)
);
}
);
width = 451.03619;
},
{
layerId = m002;
shapes = (
{
pos = (82.087,0);
ref = D.ss01;
},
{
closed = 1;
nodes = (
(266.562,266.562,ls),
(295.689,266.562,o),
(319.521,290.393,o),
(319.521,319.521,cs),
(319.521,348.648,o),
(295.689,372.48,o),
(266.562,372.48,cs),
(70.612,372.48,ls),
(41.485,372.48,o),
(17.653,348.648,o),
(17.653,319.521,cs),
(17.653,290.393,o),
(41.485,266.562,o),
(70.612,266.562,cs)
);
}
);
width = 638.84731;
}
);
},
{
glyphname = E.ss01;
kernLeft = H;
kernRight = E;
lastChange = "2024-12-28 15:31:10 +0000";
layers = (
{
anchors = (
{
name = bottom;
pos = (192.418,-4.413);
},
{
name = ogonek;
pos = (306.281,4.413);
},
{
name = top;
pos = (192.418,664.638);
},
{
name = topleft;
pos = (18.535,664.638);
}
);
layerId = m01;
shapes = (
{
closed = 1;
nodes = (
(79.439,17.653,l),
(79.439,641.69,l),
(323.051,641.69,ls),
(328.347,641.69,o),
(331.878,645.22,o),
(331.878,650.516,cs),
(331.878,655.812,o),
(328.347,659.343,o),
(323.051,659.343,cs),
(76.791,659.343,ls),
(67.081,659.343,o),
(61.786,654.046,o),
(61.786,644.337,cs),
(61.786,15.005,ls),
(61.786,5.296,o),
(67.081,0,o),
(76.791,0,cs),
(323.051,0,ls),
(328.347,0,o),
(331.878,3.531,o),
(331.878,8.827,cs),
(331.878,14.122,o),
(328.347,17.653,o),
(323.051,17.653,cs)
);
},
{
closed = 1;
nodes = (
(70.612,346,ls),
(65.317,346,o),
(61.786,342.47,o),
(61.786,337.174,cs),
(61.786,331.878,o),
(65.317,328.347,o),
(70.612,328.347,cs),
(301.868,328.347,ls),
(306.281,328.347,o),
(309.811,331.878,o),
(309.811,337.174,cs),
(309.811,342.47,o),
(306.281,346,o),
(301.868,346,cs)
);
}
);
width = 380.42387;
},
{
anchors = (
{
name = bottom;
pos = (244.495,0);
},
{
name = ogonek;
pos = (354.827,35.306);
},
{
name = top;
pos = (244.495,659.343);
},
{
name = topleft;
pos = (58.255,659.343);
}
);
background = {
hints = (
{
horizontal = 1;
place = (1.765,22.949);
type = Stem;
},
{
horizontal = 1;
place = (324.817,22.949);
type = Stem;
},
{
horizontal = 1;
place = (395.429,22.949);
type = Stem;
},
{
horizontal = 1;
place = (637.276,22.949);
type = Stem;
},
{
place = (54.725,21.184);
type = Stem;
}
);
shapes = (
{
closed = 1;
nodes = (
(121.806,24.714,l),
(121.806,324.817,l),
(342.47,324.817,ls),
(348.648,324.817,o),
(353.062,330.113,o),
(353.062,336.291,cs),
(353.062,342.47,o),
(348.648,347.766,o),
(342.47,347.766,cs),
(121.806,347.766,l),
(121.806,395.429,l),
(340.704,395.429,ls),
(346.883,395.429,o),
(351.296,400.725,o),
(351.296,406.903,cs),
(351.296,413.082,o),
(346.883,418.378,o),
(340.704,418.378,cs),
(121.806,418.378,l),
(121.806,637.276,l),
(361.006,637.276,ls),
(367.184,637.276,o),
(372.48,642.572,o),
(372.48,648.751,cs),
(372.48,654.929,o),
(367.184,660.225,o),
(361.006,660.225,cs),
(111.214,660.225,ls),
(105.036,660.225,o),
(100.623,654.929,o),
(100.623,648.751,cs),
(100.623,13.24,ls),
(100.623,7.061,o),
(105.036,1.765,o),
(111.214,1.765,cs),
(361.006,1.765,ls),
(367.184,1.765,o),
(372.48,7.061,o),
(372.48,13.24,cs),
(372.48,19.419,o),
(367.184,24.714,o),
(361.006,24.714,cs)
);
}
);
};
layerId = m002;
shapes = (
{
closed = 1;
nodes = (
(167.704,105.918,l),
(167.704,553.424,l),
(383.954,553.424,ls),
(413.082,553.424,o),
(436.914,577.256,o),
(436.914,606.383,cs),
(436.914,635.511,o),
(413.082,659.343,o),
(383.954,659.343,cs),
(114.745,659.343,ls),
(80.321,659.343,o),
(61.786,640.806,o),
(61.786,606.383,cs),
(61.786,52.959,ls),
(61.786,18.535,o),
(80.321,0,o),
(114.745,0,cs),
(383.954,0,ls),
(413.082,0,o),
(436.914,23.832,o),
(436.914,52.959,cs),
(436.914,82.087,o),
(413.082,105.918,o),
(383.954,105.918,cs)
);
},
{
closed = 1;
nodes = (
(114.745,348.648,ls),
(85.618,348.648,o),
(61.786,324.817,o),
(61.786,295.689,cs),
(61.786,266.562,o),
(85.618,242.73,o),
(114.745,242.73,cs),
(360.123,242.73,ls),
(389.25,242.73,o),
(413.082,266.562,o),
(413.082,295.689,cs),
(413.082,324.817,o),
(389.25,348.648,o),
(360.123,348.648,cs)
);
}
);
width = 485.4597;
}
);
note = E;
},
{
glyphname = F.ss01;
kernLeft = H;
kernRight = F;
lastChange = "2024-12-28 15:31:10 +0000";
layers = (
{
anchors = (
{
name = bottom;
pos = (192.418,-4.413);
},
{
name = top;
pos = (192.418,664.638);
}
);
layerId = m01;
shapes = (
{
closed = 1;
nodes = (
(79.439,641.69,l),
(323.051,641.69,ls),
(328.347,641.69,o),
(331.878,645.22,o),
(331.878,650.516,cs),
(331.878,655.812,o),
(328.347,659.343,o),
(323.051,659.343,cs),
(76.791,659.343,ls),
(67.081,659.343,o),
(61.786,654.046,o),
(61.786,644.337,cs),
(61.786,8.827,ls),
(61.786,3.531,o),
(65.317,0,o),
(70.612,0,cs),
(75.908,0,o),
(79.439,3.531,o),
(79.439,8.827,cs)
);
},
{
closed = 1;
nodes = (
(70.612,346,ls),
(65.317,346,o),
(61.786,342.47,o),
(61.786,337.174,cs),
(61.786,331.878,o),
(65.317,328.347,o),
(70.612,328.347,cs),
(314.225,328.347,ls),
(319.521,328.347,o),
(323.051,331.878,o),
(323.051,337.174,cs),
(323.051,342.47,o),
(319.521,346,o),
(314.225,346,cs)
);
}
);
width = 376.0106;
},
{
anchors = (
{
name = bottom;
pos = (244.495,0);
},
{
name = top;
pos = (244.495,659.343);
}
);
background = {
hints = (
{
horizontal = 1;
place = (324.817,22.949);
type = Stem;
},
{
horizontal = 1;
place = (534.888,21.184);
type = Stem;
},
{
horizontal = 1;
place = (637.276,22.949);
type = Stem;
},
{
place = (54.725,21.184);
type = Stem;
}
);
shapes = (
{
closed = 1;
nodes = (
(121.806,324.817,l),
(342.47,324.817,ls),
(348.648,324.817,o),
(353.062,330.113,o),
(353.062,336.291,cs),
(353.062,342.47,o),
(348.648,347.766,o),
(342.47,347.766,cs),
(121.806,347.766,l),
(121.806,534.888,l),
(359.24,534.888,ls),
(365.419,534.888,o),
(370.715,539.301,o),
(370.715,545.48,cs),
(370.715,551.659,o),
(365.419,556.072,o),
(359.24,556.072,cs),
(121.806,556.072,l),
(121.806,637.276,l),
(361.006,637.276,ls),
(367.184,637.276,o),
(372.48,642.572,o),
(372.48,648.751,cs),
(372.48,654.929,o),
(367.184,660.225,o),
(361.006,660.225,cs),
(111.214,660.225,ls),
(105.036,660.225,o),
(100.623,654.929,o),
(100.623,648.751,cs),
(100.623,13.24,ls),
(100.623,7.061,o),
(105.036,1.765,o),
(111.214,1.765,cs),
(117.393,1.765,o),
(121.806,7.061,o),
(121.806,13.24,cs)
);
}
);
};
layerId = m002;
shapes = (
{
closed = 1;
nodes = (
(167.704,553.424,l),
(383.954,553.424,ls),
(413.082,553.424,o),
(436.914,577.256,o),
(436.914,606.383,cs),
(436.914,635.511,o),
(413.082,659.343,o),
(383.954,659.343,cs),
(114.745,659.343,ls),
(80.321,659.343,o),
(61.786,640.806,o),
(61.786,606.383,cs),
(61.786,52.077,ls),
(61.786,22.949,o),
(85.618,-0.882,o),
(114.745,-0.882,cs),
(143.872,-0.882,o),
(167.704,22.949,o),
(167.704,52.077,cs)
);
},
{
closed = 1;
nodes = (
(114.745,388.368,ls),
(85.618,388.368,o),
(61.786,364.536,o),
(61.786,335.409,cs),
(61.786,306.281,o),
(85.618,282.449,o),
(114.745,282.449,cs),
(374.246,282.449,ls),
(403.373,282.449,o),
(427.205,306.281,o),
(427.205,335.409,cs),
(427.205,364.536,o),
(403.373,388.368,o),
(374.246,388.368,cs)
);
}
);
width = 481.04643;
}
);
note = F;
},
{
glyphname = G.ss01;
kernLeft = O;
kernRight = G;
lastChange = "2024-12-28 15:31:10 +0000";
layers = (
{
anchors = (
{
name = bottom;
pos = (227.725,-4.413);
},
{
name = top;
pos = (227.725,664.638);
}
);
layerId = m01;
shapes = (
{
closed = 1;
nodes = (
(387.485,289.51,l),
(387.485,183.592,ls),
(387.485,76.791,o),
(342.47,13.24,o),
(248.025,13.24,cs),
(235.669,13.24,ls),
(128.867,13.24,o),
(70.612,90.913,o),
(70.612,236.551,cs),
(70.612,422.792,ls),
(70.612,569.312,o),
(128.867,646.103,o),
(235.669,646.103,cs),
(248.025,646.103,ls),
(300.985,646.103,o),
(339.822,629.332,o),
(368.067,593.144,cs),
(369.832,590.496,o),
(371.597,589.613,o),
(374.246,589.613,cs),
(379.541,589.613,o),
(383.072,593.144,o),
(383.072,598.439,cs),
(383.072,600.205,o),
(382.189,601.97,o),
(381.307,603.736,c),
(350.414,643.455,o),
(304.516,663.756,o),
(248.025,663.756,cs),
(235.669,663.756,ls),
(119.158,663.756,o),
(52.959,576.373,o),
(52.959,422.792,cs),
(52.959,236.551,ls),
(52.959,83.852,o),
(119.158,-4.413,o),
(235.669,-4.413,cs),
(248.025,-4.413,ls),
(352.179,-4.413,o),
(405.139,70.612,o),
(405.139,183.592,cs),
(405.139,291.276,ls),
(405.139,300.985,o),
(399.842,306.281,o),
(390.133,306.281,cs),
(188.005,306.281,ls),
(182.71,306.281,o),
(179.179,302.75,o),
(179.179,298.337,cs),
(179.179,293.041,o),
(182.71,289.51,o),
(188.005,289.51,cs)
);
}
);
width = 453.68416;
},
{
anchors = (
{
name = bottom;
pos = (290.393,0);
},
{
name = top;
pos = (291.276,659.343);
}
);
layerId = m002;
shapes = (
{
closed = 1;
nodes = (
(408.669,289.51,l),
(408.669,203.893,ls),
(408.669,128.867,o),
(384.837,101.505,o),
(303.633,101.505,cs),
(291.276,101.505,ls),
(195.066,101.505,o),
(158.878,141.225,o),
(158.878,249.791,cs),
(158.878,409.552,ls),
(158.878,518.118,o),
(195.066,557.837,o),
(291.276,557.837,cs),
(303.633,557.837,ls),
(351.296,557.837,o),
(376.893,548.128,o),
(398.96,525.179,cs),
(408.669,514.587,o),
(422.792,508.408,o),
(437.796,508.408,cs),
(466.924,508.408,o),
(490.755,532.24,o),
(490.755,561.368,cs),
(490.755,575.491,o),
(485.46,587.847,o),
(476.633,597.557,cs),
(434.266,641.69,o),
(373.362,663.756,o),
(303.633,663.756,cs),
(291.276,663.756,ls),
(141.225,663.756,o),
(52.959,567.546,o),
(52.959,409.552,cs),
(52.959,249.791,ls),
(52.959,92.679,o),
(141.225,-4.413,o),
(291.276,-4.413,cs),
(303.633,-4.413,ls),
(440.445,-4.413,o),
(514.587,82.087,o),
(514.587,203.893,cs),
(514.587,342.47,ls),
(514.587,376.893,o),
(496.052,395.429,o),
(461.628,395.429,cs),
(240.082,395.429,ls),
(210.955,395.429,o),
(187.123,371.597,o),
(187.123,342.47,cs),
(187.123,313.342,o),
(210.955,289.51,o),
(240.082,289.51,cs)
);
}
);
width = 563.13325;
}
);
note = G;
},
{
glyphname = H.ss01;
kernLeft = H;
kernRight = H;
lastChange = "2024-12-28 15:31:10 +0000";
layers = (
{
anchors = (
{
name = bottom;
pos = (256.852,0);
},
{
name = center;
pos = (256.852,330.113);
},
{
name = top;
pos = (256.852,659.343);
},
{
name = topleft;
pos = (59.138,659.343);
}
);
layerId = m002;
shapes = (
{
closed = 1;
nodes = (
(61.786,52.959,ls),
(61.786,23.832,o),
(85.618,0,o),
(114.745,0,cs),
(143.872,0,o),
(167.704,23.832,o),
(167.704,52.959,cs),
(167.704,606.383,ls),
(167.704,635.511,o),
(143.872,659.343,o),
(114.745,659.343,cs),
(85.618,659.343,o),
(61.786,635.511,o),
(61.786,606.383,cs)
);
},
{
closed = 1;
nodes = (
(346,52.959,ls),
(346,23.832,o),
(369.832,0,o),
(398.96,0,cs),
(428.97,0,o),
(451.919,23.832,o),
(451.919,52.959,cs),
(451.919,606.383,ls),
(451.919,635.511,o),
(428.97,659.343,o),
(398.96,659.343,cs),
(369.832,659.343,o),
(346,635.511,o),
(346,606.383,cs)
);
},
{
closed = 1;
nodes = (
(114.745,396.312,ls),
(85.618,396.312,o),
(61.786,372.48,o),
(61.786,343.353,cs),
(61.786,314.225,o),
(85.618,290.393,o),
(114.745,290.393,cs),
(398.96,290.393,ls),
(428.97,290.393,o),
(451.919,314.225,o),
(451.919,343.353,cs),
(451.919,372.48,o),
(428.97,396.312,o),
(398.96,396.312,cs)
);
}
);
width = 514.05769;
},
{
anchors = (
{
name = bottom;
pos = (205.658,-4.413);
},
{
name = center;
pos = (205.658,330.113);
},
{
name = top;
pos = (205.658,664.638);
},
{
name = topleft;
pos = (18.535,664.638);
}
);
guides = (
{
pos = (1,5);
},
{
pos = (1,742);
}
);
layerId = m01;
name = Thin;
shapes = (
{
closed = 1;
nodes = (
(61.786,8.827,ls),
(61.786,3.531,o),
(65.317,0,o),
(70.612,0,cs),
(75.908,0,o),
(79.439,3.531,o),
(79.439,8.827,cs),
(79.439,650.516,ls),
(79.439,655.812,o),
(75.908,659.343,o),
(70.612,659.343,cs),
(65.317,659.343,o),
(61.786,655.812,o),
(61.786,650.516,cs)
);
},
{
closed = 1;
nodes = (
(331.878,8.827,ls),
(331.878,3.531,o),
(335.409,0,o),
(340.704,0,cs),
(346,0,o),
(349.531,3.531,o),
(349.531,8.827,cs),
(349.531,650.516,ls),
(349.531,655.812,o),
(346,659.343,o),
(340.704,659.343,cs),
(335.409,659.343,o),
(331.878,655.812,o),
(331.878,650.516,cs)
);
},
{
closed = 1;
nodes = (
(70.612,349.531,ls),
(65.317,349.531,o),
(61.786,346,o),
(61.786,340.704,cs),
(61.786,335.409,o),
(65.317,331.878,o),
(70.612,331.878,cs),
(340.704,331.878,ls),
(346,331.878,o),
(349.531,335.409,o),
(349.531,340.704,cs),
(349.531,346,o),
(346,349.531,o),
(340.704,349.531,cs)
);
}
);
width = 411.31676;
}
);
note = H;
},
{
glyphname = Hbar.ss01;
kernLeft = H;
lastChange = "2024-12-28 15:31:10 +0000";
layers = (
{
layerId = m01;
shapes = (
{
pos = (37.954,0);
ref = H.ss01;
},
{
closed = 1;
nodes = (
(70.612,467.807,ls),
(65.317,467.807,o),
(61.786,464.276,o),
(61.786,458.98,cs),
(61.786,453.684,o),
(65.317,450.154,o),
(70.612,450.154,cs),
(414.847,450.154,ls),
(420.143,450.154,o),
(423.674,453.684,o),
(423.674,458.98,cs),
(423.674,464.276,o),
(420.143,467.807,o),
(414.847,467.807,cs)
);
}
);
width = 450.15354;
},
{
layerId = m002;
shapes = (
{
pos = (68.847,0);
ref = H.ss01;
},
{
closed = 1;
nodes = (
(114.745,551.659,ls),
(85.618,551.659,o),
(61.786,527.827,o),
(61.786,498.7,cs),
(61.786,469.572,o),
(85.618,445.74,o),
(114.745,445.74,cs),
(535.771,445.74,ls),
(564.899,445.74,o),
(588.73,469.572,o),
(588.73,498.7,cs),
(588.73,527.827,o),
(564.899,551.659,o),
(535.771,551.659,cs)
);
}
);
width = 615.20984;
}
);
},
{
glyphname = I.ss01;
kernLeft = I;
kernRight = I;
lastChange = "2024-12-28 15:31:10 +0000";
layers = (
{
anchors = (
{
name = bottom;
pos = (70.612,-4.413);
},
{
name = ogonek;
pos = (75.908,6.179);
},
{
name = top;
pos = (70.612,664.638);
},
{
name = topleft;
pos = (18.535,664.638);
}
);
layerId = m01;
shapes = (
{
closed = 1;
nodes = (
(61.786,8.827,ls),
(61.786,3.531,o),
(65.317,0,o),
(70.612,0,cs),
(75.908,0,o),
(79.439,3.531,o),
(79.439,8.827,cs),
(79.439,650.516,ls),
(79.439,655.812,o),
(75.908,659.343,o),
(70.612,659.343,cs),
(65.317,659.343,o),
(61.786,655.812,o),
(61.786,650.516,cs)
);
}
);
width = 141.22464;
},
{
anchors = (
{
name = bottom;
pos = (114.745,0);
},
{
name = ogonek;
pos = (106.801,42.367);
},
{
name = top;
pos = (114.745,659.343);
},
{
name = topleft;
pos = (58.255,659.343);
}
);
background = {
hints = (
{
horizontal = 1;
place = (1.765,658.46);
type = Stem;
},
{
place = (54.725,21.184);
type = Stem;
}
);
shapes = (
{
closed = 1;
nodes = (
(121.806,648.751,ls),
(121.806,654.929,o),
(117.393,660.225,o),
(111.214,660.225,cs),
(105.036,660.225,o),
(100.623,654.929,o),
(100.623,648.751,cs),
(100.623,13.24,ls),
(100.623,7.061,o),
(105.036,1.765,o),
(111.214,1.765,cs),
(117.393,1.765,o),
(121.806,7.061,o),
(121.806,13.24,cs)
);
}
);
};
layerId = m002;
shapes = (
{
closed = 1;
nodes = (
(61.786,52.959,ls),
(61.786,23.832,o),
(85.618,0,o),
(114.745,0,cs),
(143.872,0,o),
(167.704,23.832,o),
(167.704,52.959,cs),
(167.704,606.383,ls),
(167.704,635.511,o),
(143.872,659.343,o),
(114.745,659.343,cs),
(85.618,659.343,o),
(61.786,635.511,o),
(61.786,606.383,cs)
);
}
);
width = 229.49004;
}
);
note = I;
},
{
glyphname = J.ss01;
kernLeft = J;
kernRight = J;
lastChange = "2024-12-28 15:31:10 +0000";
layers = (
{
anchors = (
{
name = bottom;
pos = (203.01,-4.413);
},
{
name = top;
pos = (203.01,664.638);
}
);
layerId = m01;
shapes = (
{
closed = 1;
nodes = (
(327.464,641.69,l),
(327.464,236.551,ls),
(327.464,90.913,o),
(269.209,13.24,o),
(162.409,13.24,cs),
(150.051,13.24,ls),
(93.561,13.24,o),
(55.607,35.306,o),
(33.541,76.791,c),
(32.658,79.439,o),
(30.011,81.204,o),
(26.48,81.204,cs),
(21.184,81.204,o),
(17.653,76.791,o),
(17.653,72.378,cs),
(17.653,70.612,o),
(17.653,68.847,o),
(18.535,67.965,cs),
(43.25,22.949,o),
(87.383,-4.413,o),
(150.051,-4.413,cs),
(162.409,-4.413,ls),
(278.918,-4.413,o),
(345.117,83.852,o),
(345.117,236.551,cs),
(345.117,644.337,ls),
(345.117,654.046,o),
(339.822,659.343,o),
(330.113,659.343,cs),
(141.225,659.343,ls),
(135.929,659.343,o),
(132.398,655.812,o),
(132.398,650.516,cs),
(132.398,645.22,o),
(135.929,641.69,o),
(141.225,641.69,cs)
);
}
);
width = 407.01824;
},
{
anchors = (
{
name = bottom;
pos = (258.617,0);
},
{
name = top;
pos = (258.617,659.343);
}
);
layerId = m002;
shapes = (
{
closed = 1;
nodes = (
(346.883,553.424,l),
(346.883,249.791,ls),
(346.883,141.225,o),
(310.694,101.505,o),
(214.485,101.505,cs),
(202.128,101.505,ls),
(150.934,101.505,o),
(131.516,111.214,o),
(114.745,136.811,cs),
(105.036,150.934,o),
(89.148,160.643,o),
(70.612,160.643,cs),
(41.485,160.643,o),
(17.653,136.811,o),
(17.653,107.684,cs),
(17.653,97.092,o),
(21.184,86.5,o),
(26.48,78.557,cs),
(61.786,26.48,o),
(121.806,-4.413,o),
(202.128,-4.413,cs),
(214.485,-4.413,ls),
(364.536,-4.413,o),
(452.801,92.679,o),
(452.801,249.791,cs),
(452.801,606.383,ls),
(452.801,640.806,o),
(434.266,659.343,o),
(399.842,659.343,cs),
(152.699,659.343,ls),
(123.572,659.343,o),
(99.74,635.511,o),
(99.74,606.383,cs),
(99.74,577.256,o),
(123.572,553.424,o),
(152.699,553.424,cs)
);
}
);
width = 514.58728;
}
);
note = J;
},
{
glyphname = K.ss01;
kernLeft = H;
kernRight = K;
lastChange = "2024-12-28 15:31:10 +0000";
layers = (
{
anchors = (
{
name = bottom;
pos = (192.418,-4.413);
},
{
name = top;
pos = (192.418,664.638);
}
);
layerId = m01;
shapes = (
{
closed = 1;
nodes = (
(79.439,650.516,ls),
(79.439,655.812,o),
(75.908,659.343,o),
(70.612,659.343,cs),
(65.317,659.343,o),
(61.786,655.812,o),
(61.786,650.516,cs),
(61.786,8.827,ls),
(61.786,3.531,o),
(65.317,0,o),
(70.612,0,cs),
(75.908,0,o),
(79.439,3.531,o),
(79.439,8.827,cs)
);
},
{
closed = 1;
nodes = (
(323.934,645.22,ls),
(324.817,646.985,o),
(325.7,648.751,o),
(325.7,650.516,cs),
(325.7,655.812,o),
(322.169,659.343,o),
(316.873,659.343,cs),
(314.225,659.343,o),
(311.577,657.577,o),
(309.811,655.812,cs),
(63.551,315.99,ls),
(62.668,314.225,o),
(61.786,312.46,o),
(61.786,310.694,cs),
(61.786,305.398,o),
(65.317,301.868,o),
(70.612,301.868,cs),
(73.26,301.868,o),
(75.908,303.633,o),
(77.673,305.398,c)
);
},
{
closed = 1;
nodes = (
(323.934,5.296,ls),
(324.817,2.648,o),
(328.347,0,o),
(331.878,0,cs),
(337.174,0,o),
(340.704,3.531,o),
(340.704,8.827,cs),
(340.704,9.709,o),
(340.704,11.474,o),
(339.822,12.357,cs),
(165.939,434.266,ls),
(165.056,436.031,o),
(161.526,438.679,o),
(157.995,438.679,cs),
(152.699,438.679,o),
(149.169,435.148,o),
(149.169,430.735,cs),
(149.169,429.853,o),
(149.169,428.087,o),
(150.051,427.205,cs)
);
}
);
width = 358.22513;
},
{
anchors = (
{
name = bottom;
pos = (244.495,0);
},
{
name = top;
pos = (244.495,659.343);
}
);
background = {
hints = (
{
horizontal = 1;
place = (659.563,-20);
target = down;
type = TopGhost;
},
{
place = (54.725,21.184);
type = Stem;
},
{
place = (239.199,21.184);
type = Stem;
}
);
shapes = (
{
closed = 1;
nodes = (
(121.806,303.633,l),
(150.934,343.353,l),
(285.097,6.179,ls),
(287.745,0.882,o),
(293.924,-1.765,o),
(300.102,0,cs),
(305.398,2.648,o),
(308.047,8.827,o),
(306.281,15.005,c),
(165.939,365.419,l),
(198.597,411.316,l),
(361.006,8.827,ls),
(363.654,3.531,o),
(369.832,0.882,o),
(375.128,2.648,cs),
(381.307,5.296,o),
(383.954,11.474,o),
(381.307,17.653,cs),
(214.485,432.5,l),
(363.654,642.572,ls),
(367.184,646.985,o),
(366.301,654.046,o),
(361.006,657.577,cs),
(356.593,661.108,o),
(349.531,660.225,o),
(346,654.929,cs),
(121.806,341.587,l),
(121.806,648.751,ls),
(121.806,654.929,o),
(117.393,660.225,o),
(111.214,660.225,cs),
(105.036,660.225,o),
(100.623,654.929,o),
(100.623,648.751,cs),
(100.623,13.24,ls),
(100.623,7.061,o),
(105.036,1.765,o),
(111.214,1.765,cs),
(117.393,1.765,o),
(121.806,7.061,o),
(121.806,13.24,cs)
);
}
);
};
layerId = m002;
shapes = (
{
closed = 1;
nodes = (
(167.704,606.383,ls),
(167.704,635.511,o),
(143.872,659.343,o),
(114.745,659.343,cs),
(85.618,659.343,o),
(61.786,635.511,o),
(61.786,606.383,cs),
(61.786,52.077,ls),
(61.786,22.949,o),
(85.618,-0.882,o),
(114.745,-0.882,cs),
(143.872,-0.882,o),
(167.704,22.949,o),
(167.704,52.077,cs)
);
},
{
closed = 1;
nodes = (
(416.613,571.077,ls),
(424.556,580.786,o),
(429.853,593.144,o),
(429.853,606.383,cs),
(429.853,635.511,o),
(406.021,659.343,o),
(376.893,659.343,cs),
(361.006,659.343,o),
(346.883,652.282,o),
(337.174,641.69,cs),
(75.026,347.766,ls),
(67.081,338.056,o),
(61.786,325.7,o),
(61.786,312.46,cs),
(61.786,283.332,o),
(85.618,259.501,o),
(114.745,259.501,cs),
(130.633,259.501,o),
(144.756,266.562,o),
(154.464,277.154,cs)
);
},
{
closed = 1;
nodes = (
(398.96,28.245,ls),
(407.786,10.592,o),
(425.439,-0.882,o),
(445.74,-0.882,cs),
(474.868,-0.882,o),
(498.7,22.949,o),
(498.7,52.077,cs),
(498.7,60.903,o),
(496.052,68.847,o),
(492.521,75.908,cs),
(288.628,474.868,ls),
(279.801,491.638,o),
(262.148,503.995,o),
(241.848,503.995,cs),
(212.719,503.995,o),
(188.888,480.164,o),
(188.888,451.036,cs),
(188.888,442.209,o),
(190.653,434.266,o),
(195.066,427.205,c)
);
}
);
width = 516.3526;
}
);
note = K;
},
{
glyphname = L.ss01;
kernLeft = H;
kernRight = L;
lastChange = "2024-12-28 15:31:10 +0000";
layers = (
{
anchors = (
{
name = bottom;
pos = (203.893,-4.413);
},
{
name = center;
pos = (174.765,330.113);
},
{
name = top;
pos = (174.765,664.638);
},
{
name = topright;
pos = (331.878,664.638);
}
);
layerId = m01;
shapes = (
{
closed = 1;
nodes = (
(79.439,17.653,l),
(79.439,650.516,ls),
(79.439,655.812,o),
(75.908,659.343,o),
(70.612,659.343,cs),
(65.317,659.343,o),
(61.786,655.812,o),
(61.786,650.516,cs),
(61.786,15.005,ls),
(61.786,5.296,o),
(67.081,0,o),
(76.791,0,cs),
(323.051,0,ls),
(328.347,0,o),
(331.878,3.531,o),
(331.878,8.827,cs),
(331.878,14.122,o),
(328.347,17.653,o),
(323.051,17.653,cs)
);
}
);
width = 349.53098;
},
{
anchors = (
{
name = bottom;
pos = (248.025,0);
},
{
name = center;
pos = (225.959,330.113);
},
{
name = top;
pos = (225.959,659.343);
},
{
name = topright;
pos = (393.663,659.343);
}
);
background = {
hints = (
{
horizontal = 1;
place = (1.765,22.949);
type = Stem;
},
{
horizontal = 1;
place = (111.214,21.184);
type = Stem;
},
{
place = (54.725,21.184);
type = Stem;
}
);
shapes = (
{
closed = 1;
nodes = (
(121.806,24.714,l),
(121.806,111.214,l),
(360.123,111.214,ls),
(366.301,111.214,o),
(370.715,115.627,o),
(370.715,121.806,cs),
(370.715,127.985,o),
(366.301,132.398,o),
(360.123,132.398,cs),
(121.806,132.398,l),
(121.806,648.751,ls),
(121.806,654.929,o),
(117.393,660.225,o),
(111.214,660.225,cs),
(105.036,660.225,o),
(100.623,654.929,o),
(100.623,648.751,cs),
(100.623,13.24,ls),
(100.623,7.061,o),
(105.036,1.765,o),
(111.214,1.765,cs),
(361.006,1.765,ls),
(367.184,1.765,o),
(372.48,7.061,o),
(372.48,13.24,cs),
(372.48,19.419,o),
(367.184,24.714,o),
(361.006,24.714,cs)
);
}
);
};
layerId = m002;
shapes = (
{
closed = 1;
nodes = (
(167.704,105.918,l),
(167.704,606.383,ls),
(167.704,635.511,o),
(143.872,659.343,o),
(114.745,659.343,cs),
(85.618,659.343,o),
(61.786,635.511,o),
(61.786,606.383,cs),
(61.786,52.959,ls),
(61.786,18.535,o),
(80.321,0,o),
(114.745,0,cs),
(383.954,0,ls),
(413.082,0,o),
(436.914,23.832,o),
(436.914,52.959,cs),
(436.914,82.087,o),
(413.082,105.918,o),
(383.954,105.918,cs)
);
}
);
width = 454.56681;
}
);
note = L;
},
{
glyphname = Lslash.ss01;
kernRight = L;
lastChange = "2024-12-28 15:31:10 +0000";
layers = (
{
layerId = m01;
shapes = (
{
ref = L.ss01;
},
{
closed = 1;
nodes = (
(286.863,397.194,ls),
(288.628,398.96,o),
(289.51,401.608,o),
(289.51,404.255,cs),
(289.51,409.552,o),
(285.98,413.082,o),
(280.684,413.082,cs),
(278.918,413.082,o),
(276.271,412.2,o),
(274.505,411.316,cs),
(21.184,192.418,ls),
(19.419,190.653,o),
(18.535,188.005,o),
(18.535,185.357,cs),
(18.535,180.062,o),
(22.066,176.531,o),
(27.362,176.531,cs),
(30.011,176.531,o),
(31.775,177.413,o),
(33.541,178.296,cs)
);
}
);
width = 348.64833;
},
{
layerId = m002;
shapes = (
{
ref = L.ss01;
},
{
closed = 1;
nodes = (
(315.108,364.536,ls),
(326.582,374.246,o),
(333.643,388.368,o),
(333.643,404.255,cs),
(333.643,433.383,o),
(309.811,457.215,o),
(280.684,457.215,cs),
(267.445,457.215,o),
(255.087,451.919,o),
(246.261,443.975,cs),
(-7.061,225.077,ls),
(-18.535,215.368,o),
(-25.597,201.245,o),
(-25.597,185.357,cs),
(-25.597,156.23,o),
(-1.765,132.398,o),
(27.362,132.398,cs),
(40.602,132.398,o),
(52.959,137.694,o),
(61.786,145.638,cs)
);
}
);
width = 458.09743;
}
);
},
{
glyphname = M.ss01;
kernLeft = H;
kernRight = H;
lastChange = "2024-12-28 15:31:10 +0000";
layers = (
{
anchors = (
{
name = bottom;
pos = (234.786,-4.413);
},
{
name = top;
pos = (234.786,664.638);
}
);
layerId = m01;
shapes = (
{
closed = 1;
nodes = (
(61.786,8.827,ls),
(61.786,3.531,o),
(65.317,0,o),
(70.612,0,cs),
(75.908,0,o),
(79.439,3.531,o),
(79.439,8.827,cs),
(79.439,650.516,ls),
(79.439,653.164,o),
(75.908,659.343,o),
(70.612,659.343,cs),
(65.317,659.343,o),
(61.786,655.812,o),
(61.786,650.516,cs)
);
},
{
closed = 1;
nodes = (
(406.903,650.516,ls),
(406.903,655.812,o),
(403.373,659.343,o),
(398.077,659.343,cs),
(392.781,659.343,o),
(389.25,652.282,o),
(389.25,648.751,cs),
(389.25,8.827,ls),
(389.25,3.531,o),
(392.781,0,o),
(398.077,0,cs),
(403.373,0,o),
(406.903,3.531,o),
(406.903,8.827,cs)
);
},
{
closed = 1;
nodes = (
(234.786,319.521,l),
(78.557,654.046,ls),
(76.791,657.577,o),
(74.143,659.343,o),
(70.612,659.343,cs),
(65.317,659.343,o),
(62.668,654.929,o),
(62.668,650.516,cs),
(62.668,649.633,o),
(61.786,647.868,o),
(62.668,646.985,cs),
(224.194,301.868,ls),
(228.608,291.276,o),
(240.964,291.276,o),
(245.378,301.868,cs),
(406.021,646.985,ls),
(406.903,647.868,o),
(406.021,649.633,o),
(406.021,650.516,cs),
(406.021,654.929,o),
(403.373,659.343,o),
(398.077,659.343,cs),
(394.546,659.343,o),
(391.899,657.577,o),
(390.133,654.046,cs)
);
}
);
width = 468.68927;
},
{
anchors = (
{
name = bottom;
pos = (289.51,0);
},
{
name = top;
pos = (289.51,659.343);
}
);
background = {
hints = (
{
horizontal = 1;
place = (659.343,-20);
target = down;
type = TopGhost;
},
{
place = (54.725,22.066);
type = Stem;
},
{
place = (220.664,22.949);
type = Stem;
},
{
place = (386.602,22.066);
type = Stem;
}
);
shapes = (
{
closed = 1;
nodes = (
(289.51,292.158,l),
(432.5,599.322,l),
(432.5,13.24,ls),
(432.5,7.061,o),
(436.914,1.765,o),
(443.092,1.765,cs),
(449.271,1.765,o),
(454.567,7.061,o),
(454.567,13.24,cs),
(454.567,648.751,ls),
(454.567,654.046,o),
(451.036,658.46,o),
(445.74,659.343,cs),
(440.445,661.108,o),
(436.031,658.46,o),
(433.383,653.164,cs),
(277.154,319.521,l),
(121.806,653.164,ls),
(119.158,658.46,o),
(113.863,661.108,o),
(108.566,659.343,cs),
(104.153,658.46,o),
(100.623,654.046,o),
(100.623,648.751,cs),
(100.623,13.24,ls),
(100.623,7.061,o),
(105.036,1.765,o),
(111.214,1.765,cs),
(117.393,1.765,o),
(122.689,7.061,o),
(122.689,13.24,cs),
(122.689,599.322,l),
(266.562,289.51,l),
(266.562,10.592,ls),
(266.562,4.413,o),
(271.857,0,o),
(278.036,0,cs),
(284.215,0,o),
(289.51,4.413,o),
(289.51,10.592,cs)
);
}
);
};
layerId = m002;
shapes = (
{
closed = 1;
nodes = (
(61.786,52.959,ls),
(61.786,23.832,o),
(85.618,0,o),
(114.745,0,cs),
(143.872,0,o),
(167.704,23.832,o),
(167.704,52.959,cs),
(167.704,606.383,ls),
(167.704,621.389,o),
(143.872,659.343,o),
(114.745,659.343,cs),
(85.618,659.343,o),
(61.786,635.511,o),
(61.786,606.383,cs)
);
},
{
closed = 1;
nodes = (
(516.353,606.383,ls),
(516.353,635.511,o),
(492.521,659.343,o),
(463.393,659.343,cs),
(434.266,659.343,o),
(410.434,621.389,o),
(410.434,606.383,cs),
(410.434,52.959,ls),
(410.434,23.832,o),
(434.266,0,o),
(463.393,0,cs),
(492.521,0,o),
(516.353,23.832,o),
(516.353,52.959,cs)
);
},
{
closed = 1;
nodes = (
(288.628,409.552,l),
(160.643,632.863,ls),
(151.817,648.751,o),
(134.164,659.343,o),
(114.745,659.343,cs),
(85.618,659.343,o),
(64.434,635.511,o),
(64.434,606.383,cs),
(64.434,596.674,o),
(64.434,587.847,o),
(68.847,579.904,cs),
(231.256,296.571,ls),
(258.617,248.025,o),
(318.638,248.025,o),
(346,296.571,cs),
(509.292,579.904,ls),
(513.705,587.847,o),
(513.705,596.674,o),
(513.705,606.383,cs),
(513.705,635.511,o),
(492.521,659.343,o),
(463.393,659.343,cs),
(443.975,659.343,o),
(426.322,648.751,o),
(417.495,632.863,cs)
);
}
);
width = 578.13837;
}
);
note = M;
},
{
glyphname = N.ss01;
kernLeft = H;
kernRight = H;
lastChange = "2024-12-28 15:31:10 +0000";
layers = (
{
anchors = (
{
name = bottom;
pos = (198.597,-4.413);
},
{
name = top;
pos = (198.597,664.638);
}
);
layerId = m01;
shapes = (
{
closed = 1;
nodes = (
(61.786,8.827,ls),
(61.786,3.531,o),
(65.317,0,o),
(70.612,0,cs),
(75.908,0,o),
(79.439,3.531,o),
(79.439,8.827,cs),
(79.439,650.516,ls),
(79.439,655.812,o),
(75.908,659.343,o),
(70.612,659.343,cs),
(65.317,659.343,o),
(61.786,655.812,o),
(61.786,650.516,cs)
);
},
{
closed = 1;
nodes = (
(316.873,8.827,ls),
(316.873,3.531,o),
(320.403,0,o),
(325.7,0,cs),
(330.995,0,o),
(334.526,3.531,o),
(334.526,8.827,cs),
(334.526,650.516,ls),
(334.526,655.812,o),
(330.995,659.343,o),
(325.7,659.343,cs),
(320.403,659.343,o),
(316.873,655.812,o),
(316.873,650.516,cs)
);
},
{
closed = 1;
nodes = (
(78.557,654.046,ls),
(77.673,656.695,o),
(74.143,659.343,o),
(70.612,659.343,cs),
(65.317,659.343,o),
(61.786,655.812,o),
(61.786,650.516,cs),
(61.786,649.633,o),
(62.668,647.868,o),
(62.668,646.985,cs),
(317.755,5.296,ls),
(318.638,2.648,o),
(322.169,0,o),
(325.7,0,cs),
(330.995,0,o),
(334.526,3.531,o),
(334.526,8.827,cs),
(334.526,9.709,o),
(333.643,11.474,o),
(333.643,12.357,cs)
);
}
);
width = 396.24986;
},
{
anchors = (
{
name = bottom;
pos = (250.674,0);
},
{
name = top;
pos = (250.674,659.343);
}
);
layerId = m002;
shapes = (
{
closed = 1;
nodes = (
(61.786,52.959,ls),
(61.786,23.832,o),
(85.618,0,o),
(114.745,0,cs),
(143.872,0,o),
(167.704,23.832,o),
(167.704,52.959,cs),
(167.704,606.383,ls),
(167.704,635.511,o),
(143.872,659.343,o),
(114.745,659.343,cs),
(85.618,659.343,o),
(61.786,635.511,o),
(61.786,606.383,cs)
);
},
{
closed = 1;
nodes = (
(333.643,52.959,ls),
(333.643,23.832,o),
(357.475,0,o),
(386.602,0,cs),
(415.73,0,o),
(439.562,23.832,o),
(439.562,52.959,cs),
(439.562,606.383,ls),
(439.562,635.511,o),
(415.73,659.343,o),
(386.602,659.343,cs),
(357.475,659.343,o),
(333.643,635.511,o),
(333.643,606.383,cs)
);
},
{
closed = 1;
nodes = (
(162.409,629.332,ls),
(153.582,646.985,o),
(135.929,659.343,o),
(114.745,659.343,cs),
(85.618,659.343,o),
(61.786,635.511,o),
(61.786,606.383,cs),
(61.786,598.439,o),
(63.551,590.496,o),
(67.081,583.434,cs),
(338.939,30.011,ls),
(347.766,12.357,o),
(365.419,0,o),
(386.602,0,cs),
(415.73,0,o),
(439.562,23.832,o),
(439.562,52.959,cs),
(439.562,60.903,o),
(437.796,68.847,o),
(434.266,75.908,cs)
);
}
);
width = 501.34747;
}
);
note = N;
},
{
glyphname = Nhookleft.ss01;
kernLeft = H;
kernRight = H;
lastChange = "2024-12-28 15:31:10 +0000";
layers = (
{
layerId = m01;
shapes = (
{
ref = N.ss01;
},
{
closed = 1;
nodes = (
(60.903,-127.102,ls),
(60.903,-173.883,o),
(-0.882,-188.888,o),
(-42.367,-150.051,cs),
(-44.133,-148.286,o),
(-45.898,-147.403,o),
(-48.546,-147.403,cs),
(-53.842,-147.403,o),
(-57.373,-150.934,o),
(-57.373,-156.23,cs),
(-57.373,-158.878,o),
(-56.49,-160.643,o),
(-54.725,-162.409,cs),
(-4.413,-210.071,o),
(78.557,-189.771,o),
(78.557,-127.102,cs),
(78.557,14.122,ls),
(78.557,19.419,o),
(75.026,22.949,o),
(69.73,22.949,cs),
(64.434,22.949,o),
(60.903,19.419,o),
(60.903,14.122,cs)
);
}
);
width = 396.24986;
},
{
layerId = m002;
shapes = (
{
pos = (39.719,0);
ref = N.ss01;
},
{
closed = 1;
nodes = (
(100.623,-127.102,ls),
(100.623,-139.459,o),
(95.326,-140.342,o),
(71.495,-117.393,cs),
(61.786,-108.566,o),
(49.428,-103.271,o),
(35.306,-103.271,cs),
(6.179,-103.271,o),
(-17.653,-127.102,o),
(-17.653,-156.23,cs),
(-17.653,-171.235,o),
(-11.474,-185.357,o),
(-0.882,-195.066,cs),
(77.673,-268.327,o),
(206.541,-228.608,o),
(206.541,-127.102,cs),
(206.541,67.081,ls),
(206.541,96.21,o),
(182.71,120.041,o),
(153.582,120.041,cs),
(124.454,120.041,o),
(100.623,96.21,o),
(100.623,67.081,cs)
);
}
);
width = 541.0669;
}
);
},
{
glyphname = Eng.ss01;
kernLeft = H;
kernRight = H;
lastChange = "2024-12-28 15:31:10 +0000";
layers = (
{
layerId = m01;
shapes = (
{
ref = N.ss01;
},
{
closed = 1;
nodes = (
(316.873,-127.102,ls),
(316.873,-173.883,o),
(255.087,-188.888,o),
(213.602,-150.051,cs),
(211.837,-148.286,o),
(210.071,-147.403,o),
(207.424,-147.403,cs),
(202.128,-147.403,o),
(198.597,-150.934,o),
(198.597,-156.23,cs),
(198.597,-158.878,o),
(199.479,-160.643,o),
(201.245,-162.409,cs),
(251.556,-210.071,o),
(334.526,-189.771,o),
(334.526,-127.102,cs),
(334.526,14.122,ls),
(334.526,19.419,o),
(330.995,22.949,o),
(325.7,22.949,cs),
(320.403,22.949,o),
(316.873,19.419,o),
(316.873,14.122,cs)
);
}
);
width = 396.24986;
},
{
layerId = m002;
shapes = (
{
ref = N.ss01;
},
{
closed = 1;
nodes = (
(333.643,-127.102,ls),
(333.643,-139.459,o),
(328.347,-140.342,o),
(304.516,-117.393,cs),
(294.807,-108.566,o),
(282.449,-103.271,o),
(268.327,-103.271,cs),
(239.199,-103.271,o),
(215.368,-127.102,o),
(215.368,-156.23,cs),
(215.368,-171.235,o),
(221.546,-185.357,o),
(232.138,-195.066,cs),
(310.694,-268.327,o),
(439.562,-228.608,o),
(439.562,-127.102,cs),
(439.562,67.081,ls),
(439.562,96.21,o),
(415.73,120.041,o),
(386.602,120.041,cs),
(357.475,120.041,o),
(333.643,96.21,o),
(333.643,67.081,cs)
);
}
);
width = 501.34747;
}
);
},
{
glyphname = O.ss01;
kernLeft = O;
kernRight = O;
lastChange = "2024-12-28 15:31:10 +0000";
layers = (
{
anchors = (
{
name = bottom;
pos = (241.848,-4.413);
},
{
name = center;
pos = (241.848,330.113);
},
{
name = ogonek;
pos = (259.501,2.648);
},
{
name = top;
pos = (241.848,664.638);
},
{
name = topleft;
pos = (18.535,664.638);
},
{
name = topright;
pos = (466.041,664.638);
}
);
layerId = m01;
shapes = (
{
closed = 1;
nodes = (
(52.959,236.551,ls),
(52.959,83.852,o),
(119.158,-4.413,o),
(235.669,-4.413,cs),
(248.025,-4.413,ls),
(365.419,-4.413,o),
(431.618,83.852,o),
(431.618,236.551,cs),
(431.618,422.792,ls),
(431.618,576.373,o),
(365.419,663.756,o),
(248.025,663.756,cs),
(235.669,663.756,ls),
(119.158,663.756,o),
(52.959,576.373,o),
(52.959,422.792,cs)
);
},
{
closed = 1;
nodes = (
(70.612,569.312,o),
(128.867,646.103,o),
(235.669,646.103,cs),
(248.025,646.103,ls),
(355.709,646.103,o),
(413.965,569.312,o),
(413.965,422.792,cs),
(413.965,236.551,ls),
(413.965,90.913,o),
(355.709,13.24,o),
(248.025,13.24,cs),
(235.669,13.24,ls),
(128.867,13.24,o),
(70.612,90.913,o),
(70.612,236.551,cs),
(70.612,422.792,ls)
);
}
);
width = 484.57705;
},
{
anchors = (
{
name = bottom;
pos = (297.455,0);
},
{
name = center;
pos = (297.455,330.113);
},
{
name = ogonek;
pos = (318.638,35.306);
},
{
name = top;
pos = (297.455,659.343);
},
{
name = topleft;
pos = (58.255,659.343);
},
{
name = topright;
pos = (536.653,659.343);
}
);
background = {
hints = (
{
horizontal = 1;
place = (1.765,22.066);
type = Stem;
},
{
horizontal = 1;
place = (637.276,22.949);
type = Stem;
},
{
place = (38.837,22.066);
type = Stem;
},
{
place = (324.817,22.949);
type = Stem;
},
{
place = (402.49,22.066);
type = Stem;
}
);
shapes = (
{
closed = 1;
nodes = (
(474.868,181.826,o),
(478.399,227.725,o),
(479.281,272.74,cs),
(479.281,351.296,l),
(479.281,390.133,ls),
(478.399,434.266,o),
(474.868,479.281,o),
(460.746,522.531,cs),
(446.623,565.781,o),
(420.143,607.266,o),
(378.659,633.745,cs),
(346.883,653.164,o),
(317.755,660.225,o),
(285.097,660.225,cs),
(248.025,660.225,o),
(220.664,650.516,o),
(193.302,633.745,cs),
(152.699,607.266,o),
(126.219,565.781,o),
(112.097,522.531,cs),
(97.974,479.281,o),
(93.561,434.266,o),
(93.561,390.133,cs),
(93.561,330.995,l),
(93.561,270.975,ls),
(93.561,226.842,o),
(97.974,181.826,o),
(112.097,138.577,cs),
(126.219,95.326,o),
(152.699,53.842,o),
(193.302,28.245,cs),
(220.664,10.592,o),
(248.025,1.765,o),
(285.097,1.765,cs),
(317.755,1.765,o),
(346.883,7.944,o),
(378.659,28.245,cs),
(420.143,53.842,o),
(446.623,95.326,o),
(460.746,138.577,cs)
);
},
{
closed = 1;
nodes = (
(304.516,26.48,ls),
(347.766,51.194,o),
(369.832,97.092,o),
(383.954,138.577,cs),
(398.077,180.062,o),
(402.49,229.49,o),
(402.49,274.505,cs),
(402.49,389.25,ls),
(402.49,434.266,o),
(398.077,483.694,o),
(383.954,525.179,cs),
(369.832,565.781,o),
(347.766,608.149,o),
(304.516,632.863,cs),
(296.571,637.276,l),
(320.403,636.393,o),
(343.353,630.215,o),
(367.184,615.21,cs),
(402.49,592.261,o),
(426.322,555.19,o),
(439.562,515.47,cs),
(452.801,475.751,o),
(456.332,433.383,o),
(457.215,390.133,cs),
(457.215,351.296,l),
(457.215,272.74,ls),
(457.215,228.608,o),
(452.801,185.357,o),
(439.562,145.638,cs),
(426.322,105.918,o),
(402.49,68.847,o),
(367.184,46.781,cs),
(344.235,31.775,o),
(323.051,25.597,o),
(300.102,23.832,c)
);
},
{
closed = 1;
nodes = (
(379.541,274.505,ls),
(379.541,231.256,o),
(375.128,183.592,o),
(362.77,145.638,cs),
(351.296,112.097,o),
(330.995,67.081,o),
(292.158,45.898,c),
(278.918,36.189,o),
(266.562,31.775,o),
(254.204,29.127,c),
(252.439,29.127,o),
(251.556,28.245,o),
(249.791,27.362,c),
(233.903,30.893,o),
(219.781,37.072,o),
(204.776,46.781,cs),
(170.352,68.847,o),
(145.638,105.918,o),
(132.398,145.638,cs),
(120.041,185.357,o),
(115.627,227.725,o),
(115.627,270.975,cs),
(115.627,292.158,o),
(114.745,311.577,o),
(114.745,330.995,cs),
(114.745,350.414,o),
(115.627,368.95,o),
(115.627,390.133,cs),
(115.627,433.383,o),
(120.041,475.751,o),
(132.398,515.47,cs),
(145.638,555.19,o),
(170.352,592.261,o),
(204.776,615.21,cs),
(220.664,624.919,o),
(234.786,631.098,o),
(251.556,634.629,c),
(252.439,633.745,o),
(254.204,632.863,o),
(255.97,631.98,cs),
(268.327,627.567,o),
(280.684,621.389,o),
(292.158,613.445,c),
(328.347,594.026,o),
(350.414,556.954,o),
(362.77,518.118,cs),
(375.128,480.164,o),
(379.541,432.5,o),
(379.541,389.25,cs)
);
}
);
};
layerId = m002;
shapes = (
{
closed = 1;
nodes = (
(52.959,248.909,ls),
(52.959,91.796,o),
(141.225,-5.296,o),
(291.276,-5.296,cs),
(303.633,-5.296,ls),
(453.684,-5.296,o),
(541.95,91.796,o),
(541.95,248.909,cs),
(541.95,409.552,ls),
(541.95,567.546,o),
(453.684,663.756,o),
(303.633,663.756,cs),
(291.276,663.756,ls),
(141.225,663.756,o),
(52.959,567.546,o),
(52.959,409.552,cs)
);
},
{
closed = 1;
nodes = (
(158.878,518.118,o),
(195.066,557.837,o),
(291.276,557.837,cs),
(303.633,557.837,ls),
(399.842,557.837,o),
(436.031,518.118,o),
(436.031,409.552,cs),
(436.031,248.909,ls),
(436.031,140.342,o),
(399.842,100.623,o),
(303.633,100.623,cs),
(291.276,100.623,ls),
(195.066,100.623,o),
(158.878,140.342,o),
(158.878,248.909,cs),
(158.878,409.552,ls)
);
}
);
width = 594.9088;
}
);
note = O;
},
{
glyphname = Oslash.ss01;
kernLeft = O;
kernRight = O;
lastChange = "2024-12-28 15:31:10 +0000";
layers = (
{
anchors = (
{
name = bottom;
pos = (240.964,-4.413);
},
{
name = center;
pos = (240.964,330.113);
},
{
name = ogonek;
pos = (435.148,4.413);
},
{
name = top;
pos = (244.495,659.343);
},
{
name = topleft;
pos = (17.653,664.638);
},
{
name = topright;
pos = (465.159,664.638);
}
);
layerId = m01;
shapes = (
{
closed = 1;
nodes = (
(52.077,236.551,ls),
(52.077,83.852,o),
(118.276,-4.413,o),
(234.786,-4.413,cs),
(247.143,-4.413,ls),
(364.536,-4.413,o),
(430.735,83.852,o),
(430.735,236.551,cs),
(430.735,422.792,ls),
(430.735,576.373,o),
(364.536,663.756,o),
(247.143,663.756,cs),
(234.786,663.756,ls),
(118.276,663.756,o),
(52.077,576.373,o),
(52.077,422.792,cs)
);
},
{
closed = 1;
nodes = (
(69.73,569.312,o),
(127.985,646.103,o),
(234.786,646.103,cs),
(247.143,646.103,ls),
(354.827,646.103,o),
(413.082,569.312,o),
(413.082,422.792,cs),
(413.082,236.551,ls),
(413.082,90.913,o),
(354.827,13.24,o),
(247.143,13.24,cs),
(234.786,13.24,ls),
(127.985,13.24,o),
(69.73,90.913,o),
(69.73,236.551,cs),
(69.73,422.792,ls)
);
},
{
pos = (95.326,0);
ref = slash;
}
);
width = 483.69439;
},
{
anchors = (
{
name = bottom;
pos = (297.455,0);
},
{
name = center;
pos = (297.455,330.113);
},
{
name = ogonek;
pos = (503.113,8.827);
},
{
name = top;
pos = (324.817,659.343);
},
{
name = topleft;
pos = (58.255,659.343);
},
{
name = topright;
pos = (536.653,659.343);
}
);
layerId = m002;
shapes = (
{
closed = 1;
nodes = (
(52.959,248.909,ls),
(52.959,91.796,o),
(141.225,-5.296,o),
(291.276,-5.296,cs),
(303.633,-5.296,ls),
(453.684,-5.296,o),
(541.95,91.796,o),
(541.95,248.909,cs),
(541.95,409.552,ls),
(541.95,567.546,o),
(453.684,663.756,o),
(303.633,663.756,cs),
(291.276,663.756,ls),
(141.225,663.756,o),
(52.959,567.546,o),
(52.959,409.552,cs)
);
},
{
closed = 1;
nodes = (
(158.878,518.118,o),
(195.066,557.837,o),
(291.276,557.837,cs),
(303.633,557.837,ls),
(399.842,557.837,o),
(436.031,518.118,o),
(436.031,409.552,cs),
(436.031,248.909,ls),
(436.031,140.342,o),
(399.842,100.623,o),
(303.633,100.623,cs),
(291.276,100.623,ls),
(195.066,100.623,o),
(158.878,140.342,o),
(158.878,248.909,cs),
(158.878,409.552,ls)
);
},
{
pos = (107.684,0);
ref = slash;
}
);
width = 594.9088;
}
);
},
